<ttFont>
          <CharString index="0">
            hhcurveto
            -88 -75 -32 -65 -62 hvcurveto
            -63 -69 -32 -88 -1 -107 -1 -98 32 -85 64 -71 rrcurveto
            -71 64 75 -36 87 hhcurveto
            87 75 34 69 62 hvcurveto
            63 69 31 84 99 vvcurveto
            -152 -3 rmoveto
            -101 -11 -75 -21 -49 vhcurveto
            -59 -27 -44 -29 -62 hhcurveto
            -65 -45 29 58 -27 hvcurveto
            -23 49 -11 77 105 vvcurveto
            105 11 79 23 53 vhcurveto
            63 27 46 32 63 hhcurveto
            65 46 -33 -66 25 hvcurveto
            20 -51 10 -79 -108 vvcurveto
            return
          </CharString>
          <CharString index="1">
            rmoveto
            -6 7 -1 10 1 6 2 9 4 12 31 20 31 20 15 21 3 22 rrcurveto
            49 4 -40 15 -48 hhcurveto
            -41 -3 -26 -18 -15 -31 20 -15 rcurveline
            8 17 14 8 19 1 24 -1 12 -11 1 -22 rrcurveto
            -10 -7 -16 -16 -21 vhcurveto
            -16 -21 -11 -16 -11 vvcurveto
            -13 11 -10 14 -7 vhcurveto
            9 6 5 4 -1 -1 rrcurveto
            return
          </CharString>
          <CharString index="2">
            775 29 rmoveto
            -76 -67 callgsubr
            -20 -53 -18 -32 -17 -11 rlinecurve
            -13 -8 -25 -4 -35 1 rrcurveto
            -32 218 32 vlineto
            -39 -21 3 6 -4 hvcurveto
            -3 7 -2 7 9 vvcurveto
            18 6 25 13 32 vhcurveto
            36 90 rlineto
            244 hlineto
            67 -197 rlineto
            -80 -32 309 hlineto
            -524 267 rmoveto
            113 294 100 -294 rlineto
            return
          </CharString>
          <CharString index="3">
            rmoveto
            56 -25 54 -50 52 vhcurveto
            53 -49 -53 26 -56 hhcurveto
            -21 -10 -5 -9 -5 11 -12 23 -21 hvcurveto
            27 -26 21 -24 14 -23 rrcurveto
            23 -37 11 -40 108 callgsubr
            10 5 21 10 31 vhcurveto
            return
          </CharString>
          <CharString index="4">
            rmoveto
            -5 82 -14 57 -22 35 -31 46 -53 23 -74 1 rrcurveto
            -70 -57 -26 -53 -41 hvcurveto
            -35 -47 -19 -59 -71 vvcurveto
            -145 82 -85 143 vhcurveto
            74 1 60 30 48 59 -12 16 rcurveline
            -24 -39 -35 -12 -33 hhcurveto
            -52 -40 18 34 -28 hvcurveto
            -27 31 -14 41 50 vvcurveto
            196 98 0 -2 hvcurveto
            -127 50 rmoveto
            -79 -1 -57 0 -35 1 rrcurveto
            93 29 46 57 56 29 -46 -93 vhcurveto
            return
          </CharString>
          <CharString index="5">
            -27 -107 -14 -80 -53 vvcurveto
            -33 5 -22 10 -12 vhcurveto
            -16 11 21 -8 31 hhcurveto
            15 14 2 4 13 hvcurveto
            17 6 9 9 11 vvcurveto
            19 -4 32 -9 45 vhcurveto
            -9 44 -4 33 22 vvcurveto
            37 4 55 9 72 vhcurveto
            return
          </CharString>
          <CharString index="6">
            188 callgsubr
            -1 7 vhcurveto
            -17 -19 -18 -8 -19 hhcurveto
            -40 -30 27 55 -20 hvcurveto
            130 -12 callsubr
            -10 -47 53 -83 hhcurveto
            -70 -57 -25 -50 -45 hvcurveto
            -24 callsubr
            42 51 -23 60 hhcurveto
            43 42 15 31 39 hvcurveto
            35 27 28 36 20 43 rrcurveto
            -101 14 32 -51 50 hhcurveto
            23 19 12 25 14 hvcurveto
            11 21 5 24 25 vvcurveto
            -236 172 rmoveto
            -1 -10 -31 -19 -61 vhcurveto
            return
          </CharString>
          <CharString index="7">
            rmoveto
            -2 3 -6 3 -9 1 rrcurveto
            -8 -6 -1 -3 -3 hvcurveto
            -64 -17 -29 -17 -52 hhcurveto
            -55 1 -32 25 -9 51 -5 4 -6 2 -9 -1 rrcurveto
            -8 -5 -2 -3 -3 hvcurveto
            -91 -7 43 -46 95 hhcurveto
            94 44 46 92 -5 hvcurveto
            return
          </CharString>
          <CharString index="8">
            rmoveto
            -198 -30 49 hlineto
            12 5 -4 -12 -6 -2 -9 -5 -10 hvcurveto
            -48 -117 -36 -86 -23 -53 -68 185 -33 88 1 -3 rrcurveto
            -1 3 0 4 3 vvcurveto
            23 9 -6 63 vhcurveto
            30 -278 -30 31 vlineto
            13 11 -7 -13 10 hvcurveto
            174 -433 -23 -76 -29 -49 -37 -21 rlinecurve
            -3 -3 -4 -1 -6 -10 -25 9 -6 hhcurveto
            -35 -21 -9 -16 -6 hvcurveto
            -2 -6 -1 -4 -7 vvcurveto
            -15 7 -13 16 -8 vhcurveto
            -7 12 13 -3 13 hhcurveto
            39 36 15 28 31 hvcurveto
            17 17 22 34 26 54 11 19 16 36 21 51 170 387 rcurveline
            28 11 16 13 19 hhcurveto
            26 hlineto
            return
          </CharString>
          <CharString index="9">
            rmoveto
            149 -81 83 -150 -158 -86 -89 -156 -73 17 -57 36 -43 vhcurveto
            -46 39 57 -22 74 hhcurveto
            164 88 91 163 hvcurveto
            -136 -41 rmoveto
            -110 -31 -55 -63 -73 -36 73 144 115 33 58 66 70 34 -75 -150 vhcurveto
            return
          </CharString>
          <CharString index="10">
            -17 -16 -16 -9 -16 hhcurveto
            -33 1 -23 8 -15 15 rrcurveto
            -19 17 -8 31 43 vvcurveto
            271 -200 -31 55 vlineto
            12 9 -8 -16 2 hvcurveto
            1 -232 1 -141 50 -44 94 -1 rlinecurve
            69 -1 49 27 34 56 rrcurveto
            return
          </CharString>
          <CharString index="11">
            rmoveto
            -92 hlineto
            -80 callsubr
            97 112 -97 rlineto
            57 hlineto
            return
          </CharString>
          <CharString index="12">
            748 224 -104 callsubr
            return
          </CharString>
          <CharString index="13">
            27 70 14 52 33 vvcurveto
            19 -25 9 -49 -35 -20 -8 -15 -7 vhcurveto
            -3 -6 -2 -24 -41 -128 0 -6 -38 vvcurveto
            -94 14 -123 102 26 25 9 19 21 vhcurveto
            return
          </CharString>
          <CharString index="14">
            707 276 rmoveto
            -285 -41 110 -170 hlineto
            -20 -27 -51 -14 -83 -2 -65 -1 -46 29 -26 59 rrcurveto
            -22 49 -11 77 104 vvcurveto
            103 11 78 22 53 vhcurveto
            27 61 45 32 64 2 58 2 47 -18 36 -37 34 -35 20 -46 5 -58 rrcurveto
            38 160 hlineto
            -48 48 -80 22 -110 -4 -89 -1 -74 -33 -61 -64 -63 -67 -32 -87 -1 -107 -1 -98 32 -84 64 -70 rrcurveto
            -71 63 76 -35 86 hhcurveto
            75 60 5 11 41 hvcurveto
            7 1 38 15 68 28 rrcurveto
            193 41 vlineto
            return
          </CharString>
          <CharString index="15">
            25 callgsubr
            -7 -10 -3 -5 -13 hvcurveto
            -16 -5 -8 -11 -15 -64 callsubr
            return
          </CharString>
          <CharString index="16">
            25 -19 19 -25 -23 -22 -12 -24 72 callgsubr
            -149 14 callgsubr
            50 callsubr
            return
          </CharString>
          <CharString index="17">
            rmoveto
            30 -11 25 -22 20 vhcurveto
            20 -21 -26 10 -29 hhcurveto
            -15 -16 -3 -6 -16 hvcurveto
            -19 -7 -12 -9 -5 -11 rrcurveto
            2 vlineto
            -1 31 6 32 13 31 rrcurveto
            39 15 22 20 27 hhcurveto
            17 13 -17 -19 hvcurveto
            -11 -8 -11 -5 vvcurveto
            -12 9 -6 18 29 14 13 25 17 -11 15 -23 12 vhcurveto
            11 -19 -19 5 -19 hhcurveto
            -48 -38 -23 -46 -28 hvcurveto
            -25 -39 -12 -45 -50 vvcurveto
            -48 10 -37 21 -27 vhcurveto
            -31 23 34 -15 46 hhcurveto
            hintmask 01110100
            72 54 47 73 hvcurveto
            -69 -14 rmoveto
            -24 -4 -20 -9 -17 vhcurveto
            -20 -11 -17 -10 -22 hhcurveto
            -17 -14 11 23 -12 hvcurveto
            -11 20 -5 19 17 vvcurveto
            23 4 21 9 19 vhcurveto
            25 11 16 12 21 hhcurveto
            23 16 -12 -23 10 hvcurveto
            8 -17 4 -22 -25 vvcurveto
            endchar
          </CharString>
          <CharString index="18">
            -48 -47 -24 -60 -75 vvcurveto
            -67 22 -56 43 -45 vhcurveto
            -45 44 55 -23 67 hhcurveto
            74 63 25 50 53 hvcurveto
            53 51 26 62 75 vvcurveto
            -138 32 rmoveto
            -55 -9 -53 -19 -53 vhcurveto
            -69 -25 218 callgsubr
            101 59 9 55 18 53 hvcurveto
            71 25 37 35 48 hhcurveto
            61 30 -54 -107 hvcurveto
            return
          </CharString>
          <CharString index="19">
            rmoveto
            47 -10 37 -20 27 vhcurveto
            31 -23 -35 15 -45 hhcurveto
            -34 -29 -9 -19 -24 hvcurveto
            -26 -20 -13 -26 -33 vvcurveto
            -73 48 -45 73 36 23 16 33 10 vhcurveto
            1 -2 1 -33 -5 -33 -13 -35 rlinecurve
            -43 -15 -22 -21 -28 hhcurveto
            -17 -11 17 19 hvcurveto
            11 7 9 7 vvcurveto
            6 -4 5 -7 3 vhcurveto
            205 callsubr
            hintmask 11001100
            -28 -14 -13 -25 -17 12 -14 23 -13 hvcurveto
            -11 19 19 -6 18 hhcurveto
            47 38 23 46 29 hvcurveto
            25 39 12 45 51 vvcurveto
            -71 51 rmoveto
            -23 -4 -21 -8 -18 vhcurveto
            -23 -10 -15 -12 -21 hhcurveto
            -39 -20 32 63 24 4 21 8 17 hvcurveto
            21 11 17 11 21 hhcurveto
            16 14 -12 -24 12 hvcurveto
            9 -20 5 -19 -17 vvcurveto
            endchar
          </CharString>
          <CharString index="20">
            11 47 6 36 25 vvcurveto
            71 -25 35 -50 -13 -17 -4 -8 -21 vhcurveto
            -26 -9 -13 -10 -9 vvcurveto
            -11 6 -10 13 -9 vhcurveto
            13 -9 7 -15 -22 vvcurveto
            -18 60 callsubr
            return
          </CharString>
          <CharString index="21">
            -25 -13 10 19 24 17 18 33 13 hvcurveto
            9 24 27 5 29 hhcurveto
            17 23 -5 -11 30 hvcurveto
            -11 31 19 -5 8 hhcurveto
            11 13 11 21 15 hvcurveto
            15 21 8 17 12 vvcurveto
            20 -28 14 -57 9 vhcurveto
            6 -35 -36 3 -39 hhcurveto
            -48 -40 -9 -18 -33 hvcurveto
            3 callsubr
            return
          </CharString>
          <CharString index="22">
            rmoveto
            69 -47 42 -71 -39 -29 -12 -23 -17 vhcurveto
            4 110 rlineto
            -9 20 21 -4 21 hhcurveto
            45 37 17 33 28 hvcurveto
            hintmask 11010110
            -11 15 rlineto
            hintmask 11100110
            -12 -17 -25 -6 -33 hhcurveto
            -33 -28 6 11 -23 hvcurveto
            -23 -6 -7 -189 rlineto
            22 hlineto
            29 19 21 15 24 hhcurveto
            24 18 -10 -19 12 hvcurveto
            10 -17 5 -21 -25 vvcurveto
            -26 -4 -22 -7 -18 vhcurveto
            -26 -11 -16 -13 -22 hhcurveto
            hintmask 11101010
            -23 -20 13 23 hvcurveto
            5 6 11 7 vvcurveto
            19 -12 9 -23 -20 -17 -12 -17 -29 14 -21 28 -11 vhcurveto
            18 -7 26 -4 35 -1 33 1 28 13 23 25 rrcurveto
            24 25 12 29 33 vvcurveto
            endchar
          </CharString>
          <CharString index="23">
            -51 callsubr
            7 callsubr
            46 -55 -85 23 -115 hhcurveto
            -25 vlineto
            103 -5 70 -49 39 -93 rrcurveto
            25 -62 12 -92 -121 vvcurveto
            -232 return
          </CharString>
          <CharString index="24">
            -4 callsubr
            -36 12 -18 19 26 vvcurveto
            12 6 9 12 7 vhcurveto
            7 9 11 3 11 hhcurveto
            9 14 -4 -9 20 hvcurveto
            -8 21 17 -4 13 hhcurveto
            35 36 22 35 28 -32 21 -28 -13 -17 -4 -8 -23 hvcurveto
            -8 -23 -16 -4 -10 hhcurveto
            return
          </CharString>
          <CharString index="25">
            -9 -37 -5 -29 -20 vvcurveto
            -58 21 -47 41 -37 vhcurveto
            -37 41 50 -18 59 hhcurveto
            80 66 23 47 51 hvcurveto
            52 61 callsubr
          </CharString>
          <CharString index="26">
            110 31 37 55 43 hhcurveto
            31 15 -21 -42 -53 -14 -80 -28 -107 hvcurveto
            return
          </CharString>
          <CharString index="27">
            -122 -175 rlineto
            55 hlineto
            113 return
          </CharString>
          <CharString index="28">
            22 11 -11 -24 1 hvcurveto
            1 -150 0 -89 -27 vvcurveto
            -70 56 callgsubr
            -59 -32 267 32 -42 hlineto
            75 callgsubr
            1 262 17 45 25 19 35 3 rlinecurve
            34 3 25 -10 15 -15 rrcurveto
            18 -18 9 -31 -44 vvcurveto
            -99 0 -72 1 -43 vhcurveto
            178 callsubr
            -46 -32 267 32 -54 hlineto
            -13 42 callgsubr
            return
          </CharString>
          <CharString index="29">
            rmoveto
            -7 -11 -9 -3 -7 hhcurveto
            return
          </CharString>
          <CharString index="30">
            117 callgsubr
            53 15 43 30 32 vhcurveto
            24 26 26 13 28 2 rrcurveto
            19 11 -7 -11 3 hvcurveto
            3 -16 -22 -13 -4 -9 -5 -15 23 -19 19 -2 40 -3 33 19 -1 41 -4 51 -47 28 -68 -4 -60 -2 -54 -22 -48 -41 -56 -48 -28 -61 1 -74 rrcurveto
            -71 17 -56 36 -40 vhcurveto
            -45 38 57 -22 74 hhcurveto
            70 51 22 46 32 hvcurveto
            -12 21 rlineto
            -13 -29 -27 -6 -26 hhcurveto
            -54 -41 21 42 -28 hvcurveto
            -24 36 -12 47 57 vvcurveto
            return
          </CharString>
          <CharString index="31">
            65 callgsubr
            -16 131 -70 70 hintmask 10111101
            514 444 rmoveto
            hintmask 10111010
            -31 callgsubr
            hintmask 10111101
            29 -15 15 -12 -10 vvcurveto
            -34 -43 -30 -40 -5 vhcurveto
            -51 -48 0 -50 hhcurveto
            -32 -18 callsubr
            -97 callsubr
            hintmask 01111101
            47 callsubr
            return
          </CharString>
          <CharString index="32">
            rmoveto
            49 -9 41 -18 32 vhcurveto
            39 -23 -35 20 -46 hhcurveto
            -43 -34 -20 -40 -24 hvcurveto
            -20 -35 -10 -40 -45 vvcurveto
            -48 9 -40 19 -33 vhcurveto
            -40 23 34 -20 45 hhcurveto
            41 33 20 41 26 hvcurveto
            21 35 11 40 44 vvcurveto
            -69 1 rmoveto
            -28 -5 -32 -9 -36 vhcurveto
            -47 -13 -16 -23 -19 hhcurveto
            -22 -17 23 45 -12 hvcurveto
            -8 31 -4 32 32 vvcurveto
            32 4 33 8 33 vhcurveto
            47 12 17 23 22 hhcurveto
            23 16 -23 -46 11 hvcurveto
            8 -31 4 -32 -33 vvcurveto
            endchar
          </CharString>
          <CharString index="33">
            690 rmoveto
            -225 -31 hlineto
            37 177 callsubr
            -17 10 -26 -34 vvcurveto
            -309 vlineto
            -277 426 rlineto
            -258 -31 55 hlineto
            19 10 -7 -14 1 hvcurveto
            -520 vlineto
            -35 -9 -26 -19 -17 vhcurveto
            -6 -7 -22 -3 -37 hhcurveto
            -31 225 31 vlineto
            -39 -23 225 callsubr
            16 -8 26 35 vvcurveto
            520 vlineto
            return
          </CharString>
          <CharString index="34">
            90 -421 rmoveto
            -61 -50 -30 -99 -41 -34 8 13 -27 vhcurveto
            -34 19 -17 27 38 vvcurveto
            43 28 31 31 10 vhcurveto
            61 -2 44 -4 27 -5 31 -5 24 -6 14 -6 rrcurveto
            28 -15 14 -24 -31 vvcurveto
            -157 594 rmoveto
            -63 -51 -15 -30 -38 hvcurveto
            return
          </CharString>
          <CharString index="35">
            5 -35 -26 3 -18 hhcurveto
            -71 -29 -28 -72 hvcurveto
            29 hlineto
            23 3 18 12 32 hhcurveto
            19 28 -3 -7 38 hvcurveto
            return
          </CharString>
          <CharString index="36">
            -20 hstemhm
            40 180 callsubr
            -34 133 -70 70 hintmask 11111010
            -54 callgsubr
            hintmask 11110100
            -32 callgsubr
            hintmask 11111010
            -49 callgsubr
            return
          </CharString>
          <CharString index="37">
            rmoveto
            210 callsubr
            -27 -22 -13 -25 -17 vhcurveto
            -115 -172 rlineto
            53 hlineto
            153 126 rlineto
            13 10 6 13 17 vvcurveto
            0 vmoveto
            210 callsubr
            -27 -22 -13 -25 -17 vhcurveto
            -115 -172 rlineto
            53 hlineto
            153 126 rlineto
            13 10 6 13 17 vvcurveto
            -205 3 rmoveto
            hintmask 11011100
            -66 callsubr
            0 vmoveto
            -66 callsubr
            endchar
          </CharString>
          <CharString index="38">
            -5 -217 -21 223 38 -38 109 371 -20 21 -20 hstemhm
            64 105 -105 138 -124 91 204 139 hintmask 1010110010000000
            593 139 rmoveto
            -30 -19 -27 -15 -34 hhcurveto
            -36 -21 14 27 -7 hvcurveto
            42 96 21 86 77 vvcurveto
            26 -3 17 -7 9 vhcurveto
            13 -9 -17 7 -25 hhcurveto
            -45 -26 -38 -77 -7 hvcurveto
            -3 -71 -4 -71 -3 -71 rrcurveto
            hintmask 1100110010000000
            -77 -10 -31 -38 -51 hhcurveto
            -68 -34 54 107 27 5 38 11 51 hvcurveto
            hintmask 1101001010000000
            11 51 6 38 25 vvcurveto
            34 -23 17 -47 -29 -19 -9 -18 -10 vhcurveto
            -7 -13 -3 -23 -33 vvcurveto
            -22 2 -33 5 -44 vhcurveto
            hintmask 1100100110000000
            5 -44 2 -33 -23 vvcurveto
            -29 -3 -44 -7 -57 vhcurveto
            -6 -57 -3 -43 -29 vvcurveto
            -46 3 -32 6 -18 vhcurveto
            -35 11 23 -18 35 hhcurveto
            13 15 5 11 17 hvcurveto
            17 11 9 11 12 vvcurveto
            15 -7 17 -14 21 vhcurveto
            -12 17 -12 16 -11 16 -14 25 -10 31 -7 39 -2 10 -4 33 -6 57 rrcurveto
            -83 35 56 -41 78 hhcurveto
            26 29 13 26 31 hvcurveto
            27 23 21 24 16 27 3 -29 7 -25 13 -21 rrcurveto
            -27 15 20 -14 25 hhcurveto
            27 21 16 32 17 hvcurveto
            15 27 7 27 -2 27 rrcurveto
            endchar
          </CharString>
          <CharString index="39">
            4 callgsubr
            -40 callsubr
            return
          </CharString>
          <CharString index="40">
            -41 -27 -20 -38 -50 vvcurveto
            -39 11 -30 23 -21 vhcurveto
            return
          </CharString>
          <CharString index="41">
            24 -19 19 -25 -27 -22 -12 -24 -17 vhcurveto
            -116 -174 rlineto
            54 hlineto
            153 127 rlineto
            13 11 6 13 16 vvcurveto
            return
          </CharString>
          <CharString index="42">
            5 -35 -26 3 -17 hhcurveto
            -72 -31 -28 -72 hvcurveto
            30 hlineto
            23 3 17 11 33 hhcurveto
            19 28 -3 -7 37 hvcurveto
            return
          </CharString>
          <CharString index="43">
            vvcurveto
            -14 -60 callgsubr
            return
          </CharString>
          <CharString index="44">
            -20 hstemhm
            28 151 callsubr
            -55 104 163 124 -34 111 hintmask 1101010100100000
            334 -7 callgsubr
            hintmask 1100110010010000
            -73 callsubr
            hintmask 1101010100100000
            46 callgsubr
            hintmask 1101010001100000
            47 callgsubr
            hintmask 1101011000010000
            -61 callsubr
            hintmask 1011010100100000
            -57 callsubr
            return
          </CharString>
          <CharString index="45">
            rmoveto
            37 -31 31 -36 -37 -31 -31 -37 -36 31 -31 37 36 31 31 36 vhcurveto
            -215 hmoveto
            37 -31 31 -36 -37 -31 -31 -37 -36 31 -31 37 36 31 31 36 vhcurveto
            return
          </CharString>
          <CharString index="46">
            -71 -21 -36 -35 1 -49 1 -53 24 -39 49 -25 rrcurveto
            -20 37 47 -10 59 hhcurveto
            83 68 14 29 48 hvcurveto
            61 33 30 54 73 vvcurveto
            77 -46 43 -93 7 vhcurveto
            -81 6 -59 4 -39 3 rrcurveto
            return
          </CharString>
          <CharString index="47">
            23 -20 21 -24 -23 -22 -12 -25 72 callgsubr
            -148 14 callgsubr
            7 6 14 19 vvcurveto
            endchar
          </CharString>
          <CharString index="48">
            -39 10 -37 5 -36 -2 -76 -2 -61 -19 -47 -36 rrcurveto
            -53 -41 -26 -57 -75 vvcurveto
            -84 57 -60 89 -26 vhcurveto
            139 -42 rlineto
            55 -16 28 -31 -45 vvcurveto
            -84 -68 -48 -89 -95 -55 48 96 -14 vhcurveto
            -40 -154 hlineto
            -29 53 65 -15 76 return
          </CharString>
          <CharString index="49">
            9 21 10 7 hhcurveto
            -72 callgsubr
            return
          </CharString>
          <CharString index="50">
            -31 3 -15 10 17 vvcurveto
            16 10 12 19 11 vhcurveto
            -1 15 15 -1 14 hhcurveto
            56 48 14 28 41 hvcurveto
            46 33 24 42 -1 51 -1 54 -22 37 -39 21 102 -17 rcurveline
            22 61 rlineto
            return
          </CharString>
          <CharString index="51">
            rmoveto
            -29 -6 -16 -15 -27 hhcurveto
            -18 -27 6 11 -37 hvcurveto
            return
          </CharString>
          <CharString index="52">
            -47 11 -24 18 23 vvcurveto
            17 7 9 15 vhcurveto
            9 21 -10 9 hhcurveto
            return
          </CharString>
          <CharString index="53">
            hhcurveto
            -62 -47 -11 -23 -36 hvcurveto
            -38 -27 -20 -40 1 -53 1 -50 37 -37 68 -25 87 -31 rcurveline
            41 -16 20 -26 1 -36 rrcurveto
            -39 2 -39 -23 -50 hhcurveto
            -33 -29 13 29 -23 hvcurveto
            -23 26 -12 29 -2 33 rrcurveto
            -38 hlineto
            return
          </CharString>
          <CharString index="54">
            92 -36 callgsubr
            return
          </CharString>
          <CharString index="55">
            648 -9 callsubr
            621 95 31 -326 -31 71 callsubr
            630 vlineto
            75 callsubr
            return
          </CharString>
          <CharString index="56">
            613 rmoveto
            60 -45 38 -61 -63 -51 -38 -75 -38 vhcurveto
            -29 -61 -15 -67 -2 -71 rrcurveto
            return
          </CharString>
          <CharString index="57">
            -14 -27 -13 -22 callgsubr
            return
          </CharString>
          <CharString index="58">
            -103 callsubr
            endchar
          </CharString>
          <CharString index="59">
            rmoveto
            -204 -81 13 hlineto
            25 3 3 7 24 hhcurveto
            129 hlineto
            -5 -11 -22 -50 -41 -88 rrcurveto
            -38 -83 -19 -42 -2 vvcurveto
            -17 13 -11 19 18 12 8 15 5 vhcurveto
            13 49 9 38 5 25 11 43 16 48 19 55 rrcurveto
            11 35 6 16 -1 vvcurveto
            endchar
          </CharString>
          <CharString index="60">
            -48 11 -24 17 25 vvcurveto
            17 17 callsubr
            -10 11 hhcurveto
            return
          </CharString>
          <CharString index="61">
            31 -324 -31 93 return
          </CharString>
          <CharString index="62">
            16 -3 8 9 20 hhcurveto
            46 33 -280 -33 32 hlineto
            13 11 -6 -13 10 hvcurveto
            116 -407 rlineto
            81 hlineto
            1 45 101 203 91 hvcurveto
            127 -304 rlineto
            86 hlineto
            1 43 130 258 86 hvcurveto
            26 6 15 12 25 hhcurveto
            26 hlineto
            return
          </CharString>
          <CharString index="63">
            -9 -15 -25 -5 -33 hhcurveto
            -8 -17 hlineto
            35 1 27 -4 17 -8 rrcurveto
            25 -11 12 -21 -30 vvcurveto
            -24 -5 -21 -10 -18 vhcurveto
            -22 -13 -18 -11 -22 hhcurveto
            return
          </CharString>
          <CharString index="64">
            -35 89 callsubr
            19 9 10 18 vhcurveto
            5 8 -8 11 hhcurveto
            return
          </CharString>
          <CharString index="65">
            240 rmoveto
            -3 -64 -21 -50 -40 -37 -13 -13 -20 -11 -27 4 callsubr
            -18 hhcurveto
            -182 -2 rlineto
            293 117 vlineto
            49 38 -43 -79 hvcurveto
            38 279 -38 hlineto
            -41 -8 -31 -16 -21 vhcurveto
            -17 -12 -21 -8 -30 hhcurveto
            -117 283 hlineto
            160 -3 65 -1 45 -14 25 -27 rlinecurve
            26 -27 16 -40 6 -53 rrcurveto
            132 callgsubr
            88 hlineto
            -387 -533 -31 -44 -22 -26 -13 -8 rlinecurve
            -30 -9 -26 -5 -21 -3 rrcurveto
            -31 225 31 vlineto
            -33 -13 0 -1 7 hvcurveto
            -21 1 -2 12 11 vvcurveto
            13 13 23 26 34 vhcurveto
            79 105 rlineto
            255 -198 -94 -31 630 hlineto
            13 240 rlineto
            -780 26 rmoveto
            231 323 rlineto
            -323 vlineto
            return
          </CharString>
          <CharString index="66">
            rmoveto
            -47 hlineto
            -106 callgsubr
            hintmask 00111110
            -19 22 28 -10 35 hhcurveto
            31 27 9 18 21 hvcurveto
            2 20 21 44 39 hvcurveto
            hintmask 10011110
            -39 callgsubr
            hintmask 01011110
            6 callgsubr
          </CharString>
          <CharString index="67">
            -187 -1 rlineto
            -31 -18 callsubr
            return
          </CharString>
          <CharString index="68">
            rmoveto
            63 -25 53 -51 43 vhcurveto
            40 -48 -56 20 -65 hhcurveto
            -107 -74 -46 -91 -41 hvcurveto
            -29 -62 -15 -91 -120 vvcurveto
            -65 4 -56 9 -47 vhcurveto
            -84 15 26 -42 37 hhcurveto
            19 19 7 14 19 hvcurveto
            19 13 9 17 19 vvcurveto
            15 -12 19 -23 22 vhcurveto
            -31 29 -21 26 -11 21 -23 41 -10 51 1 61 18 -37 25 -32 32 -26 rrcurveto
            return
          </CharString>
          <CharString index="69">
            905 753 rmoveto
            3 43 -25 34 -54 23 rrcurveto
            2 -6 -6 1 -6 hhcurveto
            -21 -17 -17 -20 -14 7 -11 15 -8 hvcurveto
            38 -20 rlineto
            return
          </CharString>
          <CharString index="70">
            -34 -17 15 29 37 13 54 27 69 hvcurveto
            return
          </CharString>
          <CharString index="71">
            21 12 -11 -24 1 hvcurveto
            -337 vlineto
            178 callsubr
            return
          </CharString>
          <CharString index="72">
            -10 -9 -11 -5 -14 hhcurveto
            -16 -25 8 16 -33 hvcurveto
            return
          </CharString>
          <CharString index="73">
            234 rmoveto
            -34 0 -37 -30 vvcurveto
            -31 -22 -37 -31 -26 hhcurveto
            -38 -21 23 46 5 hvcurveto
            3 30 14 23 29 13 41 15 34 9 18 4 rrcurveto
            84 190 rmoveto
            26 -30 -38 21 5 callgsubr
            -14 35 hhcurveto
            62 47 28 69 61 hvcurveto
            -66 36 69 -31 93 233 callgsubr
            return
          </CharString>
          <CharString index="74">
            57 -43 43 -84 30 vhcurveto
            -82 32 rlineto
            -40 14 -15 12 30 vvcurveto
            41 38 27 56 -4 vhcurveto
            31 -2 25 -14 14 -23 rrcurveto
            10 -17 5 -19 -21 vvcurveto
            44 hlineto
            return
          </CharString>
          <CharString index="75">
            67 11 36 29 3 47 3 43 -25 34 -54 23 rrcurveto
            205 callsubr
            -21 -18 -18 -20 -14 8 -11 15 -7 hvcurveto
            return
          </CharString>
          <CharString index="76">
            hvcurveto
            -22 callsubr
            return
          </CharString>
          <CharString index="77">
            rmoveto
            4 -4 -9 -12 -21 -20 -21 -20 -24 -10 -28 1 rrcurveto
            2 -41 -67 1 -93 hhcurveto
            -28 -37 -3 -7 -47 hvcurveto
            68 95 35 78 2 63 rrcurveto
            68 hlineto
            56 38 0 -1 20 hvcurveto
            45 vlineto
            1 11 -59 0 -129 hhcurveto
            79 vlineto
            -2 17 -1 18 21 vvcurveto
            50 9 44 17 39 vhcurveto
            13 27 19 17 25 7 rrcurveto
            3 8 8 1 7 hhcurveto
            28 22 -15 -15 1 hvcurveto
            1 -19 -22 -7 -1 -11 -3 -21 17 -15 36 -9 rrcurveto
            -1 3 4 0 3 hhcurveto
            31 34 31 39 1 hvcurveto
            1 45 -64 29 -85 4 -72 1 -57 -19 -43 -40 rrcurveto
            -47 -43 -23 -67 -89 vvcurveto
            -103 vlineto
            -7 -19 -1 -1 -30 hvcurveto
            return
          </CharString>
          <CharString index="78">
            -4 81 -58 66 -89 23 -114 30 rcurveline
            -71 19 -35 32 46 vvcurveto
            74 49 57 88 62 39 -18 -39 19 vhcurveto
            10 -20 6 -27 3 -34 rrcurveto
            41 hlineto
            return
          </CharString>
          <CharString index="79">
            -13 23 -6 28 33 vvcurveto
            25 5 36 11 47 vhcurveto
            return
          </CharString>
          <CharString index="80">
            10 -8 rlineto
            2 11 11 1 10 hhcurveto
            27 14 -12 -23 -24 -17 -12 -34 -17 -22 3 6 -27 hvcurveto
            -16 -38 rlineto
            -11 31 29 -6 28 hhcurveto
            35 101 callgsubr
            return
          </CharString>
          <CharString index="81">
            83 7 42 46 83 vvcurveto
            53 -22 27 -45 -36 -26 -21 -35 -38 22 -20 43 -2 vhcurveto
            return
          </CharString>
          <CharString index="82">
            690 rmoveto
            -323 -33 96 -685 hlineto
            -40 -2 -24 -3 -8 vhcurveto
            -3 -12 -6 -6 -7 -1 -6 -1 -9 3 -10 6 -18 11 -16 5 -11 -1 rrcurveto
            -29 -7 -14 -19 -29 vvcurveto
            -35 23 -30 37 1 vhcurveto
            58 5 47 24 33 40 rrcurveto
            44 59 23 81 101 vvcurveto
            562 96 vlineto
            return
          </CharString>
          <CharString index="83">
            -45 -50 -22 -61 -71 vvcurveto
            -60 21 -53 42 -46 vhcurveto
            -45 return
          </CharString>
          <CharString index="84">
            157 -3 2 callgsubr
            return
          </CharString>
          <CharString index="85">
            82 22 callsubr
            return
          </CharString>
          <CharString index="86">
            34 -1 30 11 27 40 callsubr
            13 28 33 vvcurveto
            return
          </CharString>
          <CharString index="87">
            hhcurveto
            44 41 -28 -92 hvcurveto
            -153 0 -24 -32 vvcurveto
            -16 -13 -7 -12 vhcurveto
            -45 -33 272 33 -55 hlineto
            -12 -10 8 15 hvcurveto
            -2 227 rlineto
            73 -12 48 -25 27 vhcurveto
            -22 24 -37 12 -51 4 -45 3 -38 -12 -33 -24 -23 -16 -14 -17 -5 -16 -1 -2 rcurveline
            return
          </CharString>
          <CharString index="88">
            689 690 rmoveto
            -649 hlineto
            -2 -202 rlineto
            42 hlineto
            4 52 16 40 28 28 21 22 45 14 69 7 33 3 rcurveline
            -623 123 callsubr
            vlineto
            33 -3 69 -7 46 -14 22 -22 rlinecurve
            27 -28 15 -40 4 -52 rrcurveto
            42 hlineto
            return
          </CharString>
          <CharString index="89">
            42 vlineto
            14 7 -8 -16 3 hvcurveto
            -262 vlineto
            -7 -16 -9 -13 -14 -14 rrcurveto
            return
          </CharString>
          <CharString index="90">
            vvcurveto
            -18 5 98 callsubr
            26 hhcurveto
            25 26 7 13 27 hvcurveto
            27 13 21 14 13 15 -15 20 rcurveline
            -14 -23 -23 -7 -23 hhcurveto
            -37 -18 12 23 return
          </CharString>
          <CharString index="91">
            rmoveto
            23 -20 22 -25 -28 -22 -21 -28 3 vhcurveto
            -30 1 15 -15 31 hhcurveto
            30 15 16 33 hvcurveto
            endchar
          </CharString>
          <CharString index="92">
            -163 -15 70 174 48 139 55 return
          </CharString>
          <CharString index="93">
            rmoveto
            -46 329 -52 hlineto
            -85 -153 rlineto
            20 hlineto
            48 81 rlineto
            -257 -47 -16 162 vlineto
            return
          </CharString>
          <CharString index="94">
            -81 -189 rmoveto
            48 -37 24 -51 -41 -20 -15 -30 return
          </CharString>
          <CharString index="95">
            283 rlineto
            -145 hlineto
            -49 -146 rlineto
            107 return
          </CharString>
          <CharString index="96">
            -20 hstem
            44 134 228 138 vstem
            544 248 -6 callgsubr
            return
          </CharString>
          <CharString index="97">
            29 24 23 31 31 -24 24 -29 -32 -25 -24 -31 -31 25 -23 32 hvcurveto
            endchar
          </CharString>
          <CharString index="98">
            240 -7 callsubr
            return
          </CharString>
          <CharString index="99">
            -72 182 rmoveto
            -29 -15 -23 -31 -19 vhcurveto
            -31 17 -17 10 -1 1 rrcurveto
            -17 11 -8 16 19 vvcurveto
            36 29 24 35 37 19 -21 -42 vhcurveto
            return
          </CharString>
          <CharString index="100">
            rmoveto
            -3 -64 -22 -50 -40 -37 -13 -13 -20 -11 -27 4 callsubr
            -19 hhcurveto
            -181 -2 rlineto
            return
          </CharString>
          <CharString index="101">
            21 11 -11 -23 1 hvcurveto
            -425 vlineto
            -56 -5 -44 -9 -32 vhcurveto
            -14 -47 -18 -17 -45 -13 rrcurveto
            -27 vlineto
            63 2 51 28 42 55 23 32 16 40 7 47 rrcurveto
            6 37 4 55 74 vvcurveto
            endchar
          </CharString>
          <CharString index="102">
            rmoveto
            69 43 -49 -61 -94 -57 -60 -76 -57 -45 44 68 90 47 62 76 hvcurveto
            6 61 rmoveto
            -123 -85 -88 -123 -107 85 -68 94 122 92 89 132 90 -63 75 -122 hvcurveto
            return
          </CharString>
          <CharString index="103">
            rmoveto
            -40 -65 -68 -20 -72 hhcurveto
            -33 -29 5 10 -26 hvcurveto
            return
          </CharString>
          <CharString index="104">
            rmoveto
            -54 hlineto
            -13 42 callgsubr
            404 return
          </CharString>
          <CharString index="105">
            -77 callgsubr
            endchar
          </CharString>
          <CharString index="106">
            228 callgsubr
            -42 31 -49 -19 51 callsubr
            -17 vvcurveto
            -27 14 -14 29 vhcurveto
            9 21 10 7 hhcurveto
            return
          </CharString>
          <CharString index="107">
            90 0 39 292 39 280 40 return
          </CharString>
          <CharString index="108">
            rmoveto
            23 -11 12 -23 -17 -12 -6 -13 -7 vhcurveto
            -97 -182 20 -4 134 136 rlineto
            9 9 4 11 14 vvcurveto
            endchar
          </CharString>
          <CharString index="109">
            39 callgsubr
            26 40 callsubr
            13 28 33 vvcurveto
            return
          </CharString>
          <CharString index="110">
            -39 -23 -19 -35 -45 vvcurveto
            -49 22 -32 45 -15 vhcurveto
            return
          </CharString>
          <CharString index="111">
            -10 rrcurveto
            -10 -26 -22 -5 return
          </CharString>
          <CharString index="112">
            rmoveto
            55 -45 45 -55 -55 -45 -45 -55 -55 45 -45 55 55 45 45 55 vhcurveto
            -50 hmoveto
            -28 -23 -22 -27 -28 -22 22 28 28 22 22 28 27 23 -22 -28 vhcurveto
            endchar
          </CharString>
          <CharString index="113">
            -20 50 69 -49 65 15 -20 hstemhm
            96 58 -58 149 return
          </CharString>
          <CharString index="114">
            -6 hlineto
            -6 111 -33 81 -59 50 rrcurveto
            return
          </CharString>
          <CharString index="115">
            rmoveto
            -27 hlineto
            -63 -12 -38 -32 -65 hhcurveto
            -70 -41 32 63 -12 hvcurveto
            -27 hlineto
            -2 -4 rlineto
            -92 58 -63 93 43 35 15 31 27 vhcurveto
            27 29 13 36 44 vvcurveto
            endchar
          </CharString>
          <CharString index="116">
            241 628 rmoveto
            44 -31 32 -44 -41 -34 -32 -44 -39 35 -34 40 41 34 34 39 vhcurveto
            66 -596 -3 callsubr
            vlineto
            return
          </CharString>
          <CharString index="117">
            -96 -240 152 -134 -21 592 116 -71 71 return
          </CharString>
          <CharString index="118">
            -219 -21 589 116 -71 71 return
          </CharString>
          <CharString index="119">
            99 callgsubr
            -24 hhcurveto
            return
          </CharString>
          <CharString index="120">
            -19 -26 21 16 hvcurveto
            11 13 13 11 vvcurveto
            8 -4 6 -9 5 vhcurveto
            return
          </CharString>
          <CharString index="121">
            139 callsubr
            136 121 return
          </CharString>
          <CharString index="122">
            -195 62 133 -20 hstem
            58 75 vstem
            256 -108 rmoveto
            -17 -23 -26 -8 -27 hhcurveto
            -31 -16 13 27 31 15 31 31 31 hvcurveto
            -36 hlineto
            -22 -15 -19 -20 -17 -25 rrcurveto
            -18 -27 -9 -25 -22 vvcurveto
            -15 4 -12 7 -9 vhcurveto
            -17 14 20 -8 25 hhcurveto
            49 49 22 43 49 hvcurveto
            endchar
          </CharString>
          <CharString index="123">
            823 459 rmoveto
            -199 -33 49 hlineto
            12 5 -5 -9 -3 -3 -9 -4 -12 hvcurveto
            -76 -233 rlineto
            return
          </CharString>
          <CharString index="124">
            8 9 16 vhcurveto
            7 20 return
          </CharString>
          <CharString index="125">
            -1 -25 -2 -67 -4 -48 -7 -30 rlinecurve
            -7 -30 -11 -22 -15 -15 rrcurveto
            -47 -24 -15 -15 -20 vvcurveto
            -23 11 -12 23 14 13 4 8 11 vhcurveto
            19 15 13 15 8 15 41 -2 57 -9 72 -17 rrcurveto
            -14 55 42 -7 29 hhcurveto
            21 20 3 5 19 hvcurveto
            49 14 25 50 87 vvcurveto
            endchar
          </CharString>
          <CharString index="126">
            -24 -39 -35 -12 -33 hhcurveto
            -52 -40 18 34 -28 hvcurveto
            -27 31 -14 41 50 vvcurveto
            196 98 0 -2 hvcurveto
            -5 82 -14 57 -22 35 -31 46 -53 23 -74 1 rrcurveto
            -54 -47 -15 -32 -37 hvcurveto
            210 -147 rmoveto
            -79 -1 -57 0 -35 1 rrcurveto
            93 29 46 57 56 29 -46 -93 vhcurveto
            return
          </CharString>
          <CharString index="127">
            67 callgsubr
            105 149 -149 230 return
          </CharString>
          <CharString index="128">
            60 -60 141 -141 220 return
          </CharString>
          <CharString index="129">
            -119 rlineto
            48 hlineto
            return
          </CharString>
          <CharString index="130">
            -36 callsubr
            hintmask 11110000
            113 callgsubr
            return
          </CharString>
          <CharString index="131">
            -10 -11 callgsubr
            return
          </CharString>
          <CharString index="132">
            390 3 rmoveto
            198 33 -54 hlineto
            -13 -7 7 15 -3 hvcurveto
            633 112 callsubr
            21 12 -12 -22 1 hvcurveto
            -178 vlineto
            -20 7 rlineto
            11 -28 -26 7 -26 hhcurveto
            -69 -57 -25 -51 -45 hvcurveto
            -45 -50 -24 -63 -1 -75 -1 -59 15 -48 31 -39 rrcurveto
            return
          </CharString>
          <CharString index="133">
            -98 callsubr
            endchar
          </CharString>
          <CharString index="134">
            -15 30 callsubr
            return
          </CharString>
          <CharString index="135">
            -614 -31 71 callsubr
            return
          </CharString>
          <CharString index="136">
            -5 -8 -11 -16 165 callsubr
            return
          </CharString>
          <CharString index="137">
            87 -72 32 395 31 return
          </CharString>
          <CharString index="138">
            0 31 612 47 -31 31 hstemhm
            133 137 241 137 hintmask 10111000
            741 31 rmoveto
            -93 628 93 31 -702 -31 71 callsubr
            324 31 -93 hlineto
            hintmask 11011000
            612 241 -612 -93 -31 323 vlineto
            endchar
          </CharString>
          <CharString index="139">
            -91 callsubr
            endchar
          </CharString>
          <CharString index="140">
            rmoveto
            -308 -66 308 hlineto
            endchar
          </CharString>
          <CharString index="141">
            13 7 -8 55 callsubr
            -31 rlineto
            return
          </CharString>
          <CharString index="142">
            -72 callgsubr
            endchar
          </CharString>
          <CharString index="143">
            31 callgsubr
            endchar
          </CharString>
          <CharString index="144">
            261 1 rlineto
            -206 514 rmoveto
            -94 1 -64 -63 -88 hhcurveto
            -87 302 108 hlineto
            84 42 -49 -96 4 hvcurveto
            return
          </CharString>
          <CharString index="145">
            hlineto
            -67 12 -44 25 -27 vhcurveto
            19 -15 27 -7 39 1 47 1 38 26 29 46 return
          </CharString>
          <CharString index="146">
            rmoveto
            27 -13 -17 13 -20 hhcurveto
            return
          </CharString>
          <CharString index="147">
            21 rrcurveto
            27 21 return
          </CharString>
          <CharString index="148">
            rmoveto
            98 84 35 69 69 hvcurveto
            70 70 34 84 98 vvcurveto
            98 -34 84 -70 70 vhcurveto
            69 -69 -84 35 -98 hhcurveto
            -99 -84 -35 -69 -69 hvcurveto
            -70 -70 -34 -84 -98 vvcurveto
            -98 34 -84 70 -70 vhcurveto
            -69 69 84 -35 99 hhcurveto
            return
          </CharString>
          <CharString index="149">
            -16 39 650 33 return
          </CharString>
          <CharString index="150">
            rmoveto
            13 -8 -13 7 -17 hhcurveto
            -27 -13 -12 -24 -13 4 -10 9 -9 hvcurveto
            140 -136 rlineto
            25 hlineto
            endchar
          </CharString>
          <CharString index="151">
            225 -20 20 38 98 hstemhm
            35 68 112 62 -62 80 hintmask 10111000
            295 return
          </CharString>
          <CharString index="152">
            -9 36 18 -4 26 hhcurveto
            48 41 12 22 34 hvcurveto
            46 28 22 43 53 vvcurveto
            return
          </CharString>
          <CharString index="153">
            11 -8 6 -10 -13 vvcurveto
            -19 -14 -13 -27 -5 vhcurveto
            return
          </CharString>
          <CharString index="154">
            -67 203 80 callsubr
            return
          </CharString>
          <CharString index="155">
            313 76 rmoveto
            -8 -18 -15 -3 -13 hhcurveto
            -40 -20 25 51 hvcurveto
            223 104 64 vlineto
            -104 1 rlineto
            106 vlineto
            return
          </CharString>
          <CharString index="156">
            26 159 120 -37 64 return
          </CharString>
          <CharString index="157">
            8 6 13 19 vvcurveto
            return
          </CharString>
          <CharString index="158">
            -16 69 callgsubr
            return
          </CharString>
          <CharString index="159">
            16 -33 -26 8 -18 hhcurveto
            return
          </CharString>
          <CharString index="160">
            -102 70 callsubr
            return
          </CharString>
          <CharString index="161">
            -48 -51 -34 -51 -69 -38 57 113 -7 vhcurveto
            105 -6 35 52 77 hhcurveto
            44 37 -21 -42 29 hvcurveto
            return
          </CharString>
          <CharString index="162">
            -15 -27 -22 128 callgsubr
            -5 return
          </CharString>
          <CharString index="163">
            694 rmoveto
            99 callgsubr
            return
          </CharString>
          <CharString index="164">
            -7 8 15 -3 hvcurveto
            return
          </CharString>
          <CharString index="165">
            -21 361 -20 hstemhm
            53 55 117 53 -40 57 hintmask 11101000
            295 return
          </CharString>
          <CharString index="166">
            -15 callgsubr
            88 31 return
          </CharString>
          <CharString index="167">
            -5 -28 -10 -37 vhcurveto
            return
          </CharString>
          <CharString index="168">
            47 26 64 80 vvcurveto
            endchar
          </CharString>
          <CharString index="169">
            -18 59 hhcurveto
            81 66 23 47 51 hvcurveto
            51 47 26 return
          </CharString>
          <CharString index="170">
            59 callsubr
            198 37 return
          </CharString>
          <CharString index="171">
            59 callsubr
            315 35 return
          </CharString>
          <CharString index="172">
            -164 -18 116 85 106 74 102 return
          </CharString>
          <CharString index="173">
            -11 callgsubr
            -3 return
          </CharString>
          <CharString index="174">
            147 372 148 return
          </CharString>
          <CharString index="175">
            104 -104 138 150 126 return
          </CharString>
          <CharString index="176">
            -94 -31 325 return
          </CharString>
          <CharString index="177">
            -15 127 callgsubr
            return
          </CharString>
          <CharString index="178">
            94 -628 -94 -31 return
          </CharString>
          <CharString index="179">
            98 -21 21 255 -20 hstemhm
            155 69 hintmask 01110000
            271 return
          </CharString>
          <CharString index="180">
            9 callgsubr
            endchar
          </CharString>
          <CharString index="181">
            137 260 138 return
          </CharString>
          <CharString index="182">
            12 240 rlineto
            return
          </CharString>
          <CharString index="183">
            rmoveto
            36 -35 18 -36 -26 -22 -7 -13 -19 vhcurveto
            -19 -16 -9 -21 -25 vvcurveto
            -34 14 -28 28 -21 vhcurveto
            -20 callgsubr
            -3 31 rlineto
            return
          </CharString>
          <CharString index="184">
            rmoveto
            27 -13 -17 13 -21 hhcurveto
            -7 -10 -2 -5 -13 hvcurveto
            -16 29 callsubr
            10 -10 vhcurveto
            120 -120 rlineto
            45 hlineto
            endchar
          </CharString>
          <CharString index="185">
            23 20 15 24 hvcurveto
            endchar
          </CharString>
          <CharString index="186">
            11 -28 -22 5 -15 hhcurveto
            -27 -20 -13 -26 -15 hvcurveto
            -12 -21 -6 -25 -1 -29 rrcurveto
            26 hlineto
            26 8 16 13 25 hhcurveto
            13 22 -6 -11 29 hvcurveto
            return
          </CharString>
          <CharString index="187">
            32 -47 vlineto
            -21 -12 12 23 -2 hvcurveto
            return
          </CharString>
          <CharString index="188">
            -24 -15 -12 -18 -23 vvcurveto
            return
          </CharString>
          <CharString index="189">
            12 callsubr
            -28 -31 238 callgsubr
            -11 9 -12 -31 callsubr
            11 callgsubr
            vhcurveto
            return
          </CharString>
          <CharString index="190">
            5 -35 -27 3 -19 hhcurveto
            -71 -32 -28 -73 hvcurveto
            30 hlineto
            1 12 6 9 13 5 rrcurveto
            6 10 11 3 11 hhcurveto
            19 29 -4 -7 37 hvcurveto
            return
          </CharString>
          <CharString index="191">
            -80 callsubr
            97 112 -97 rlineto
            57 hlineto
            endchar
          </CharString>
          <CharString index="192">
            35 -28 28 -36 -35 -28 -27 -36 -36 27 -28 36 36 28 28 36 vhcurveto
            return
          </CharString>
          <CharString index="193">
            115 -15 37 213 41 392 34 return
          </CharString>
          <CharString index="194">
            27 13 10 20 hvcurveto
            endchar
          </CharString>
          <CharString index="195">
            9 20 10 8 hhcurveto
            return
          </CharString>
          <CharString index="196">
            7 -18 15 23 vvcurveto
            return
          </CharString>
          <CharString index="197">
            630 rmoveto
            44 -34 32 -41 -43 -31 -32 -44 -39 35 -33 39 40 35 33 39 vhcurveto
            1 -233 rmoveto
            62 -200 -32 47 vlineto
            return
          </CharString>
          <CharString index="198">
            17 9 -9 -17 -25 -17 -16 -33 -7 hvcurveto
            -1 -25 rlineto
            4 hlineto
            27 -1 25 9 21 18 rrcurveto
            22 19 11 22 27 vvcurveto
            endchar
          </CharString>
          <CharString index="199">
            -40 -30 -33 -37 -39 30 -32 40 39 33 32 39 return
          </CharString>
          <CharString index="200">
            hstemhm
            0 61 -61 165 return
          </CharString>
          <CharString index="201">
            -43 hlineto
            -13 -10 8 15 hvcurveto
            75 vlineto
            132 0 56 1 -4 vhcurveto
            return
          </CharString>
          <CharString index="202">
            -195 -100 callgsubr
            return
          </CharString>
          <CharString index="203">
            -27 -21 31 61 251 61 -48 61 181 62 7 61 30 -20 hstemhm
            44 78 235 80 120 79 235 79 return
          </CharString>
          <CharString index="204">
            -31 hlineto
            38 22 -3 -6 7 hvcurveto
            return
          </CharString>
          <CharString index="205">
            -15 11 -12 vhcurveto
            -16 14 20 -8 return
          </CharString>
          <CharString index="206">
            120 40 callgsubr
            hstemhm
            147 136 225 145 -124 155 hintmask 11101000
            684 174 rmoveto
            return
          </CharString>
          <CharString index="207">
            -119 rlineto
            48 174 callgsubr
            return
          </CharString>
          <CharString index="208">
            197 callgsubr
            383 43 84 132 return
          </CharString>
          <CharString index="209">
            201 21 -21 426 33 10 -20 return
          </CharString>
          <CharString index="210">
            194 -95 95 8 -20 hstemhm
            return
          </CharString>
          <CharString index="211">
            14 -1 7 -5 -10 vvcurveto
            return
          </CharString>
          <CharString index="212">
            -74 -15 31 425 33 return
          </CharString>
          <CharString index="213">
            0 162 callsubr
            return
          </CharString>
          <CharString index="214">
            130 -130 206 hstemhm
            -56 130 -5 21 callsubr
            -36 128 hintmask 11010001
            381 return
          </CharString>
          <CharString index="215">
            9 callgsubr
            -243 -509 -62 callgsubr
            -80 -81 vlineto
            return
          </CharString>
          <CharString index="216">
            8 15 -2 hvcurveto
            return
          </CharString>
          <CharString index="217">
            116 callsubr
            -29 -19 -28 232 callgsubr
            47 hlineto
            return
          </CharString>
          <CharString index="218">
            94 -36 callgsubr
            -31 324 31 -94 return
          </CharString>
          <CharString index="219">
            -202 -32 47 vlineto
            return
          </CharString>
          <CharString index="220">
            0 162 callgsubr
            return
          </CharString>
          <CharString index="221">
            605 rmoveto
            33 -30 31 -35 -35 -29 -29 -35 -35 31 -30 33 35 30 30 35 vhcurveto
            -214 80 rmoveto
            return
          </CharString>
          <CharString index="222">
            hstemhm
            182 49 callsubr
            return
          </CharString>
          <CharString index="223">
            51 callgsubr
            -28 return
          </CharString>
          <CharString index="224">
            -73 hlineto
            -83 -37 -47 -76 -11 vhcurveto
            -30 vlineto
            return
          </CharString>
          <CharString index="225">
            37 132 32 return
          </CharString>
          <CharString index="226">
            rmoveto
            -113 113 -38 -113 -113 -36 113 -114 38 114 113 hlineto
            endchar
          </CharString>
          <CharString index="227">
            -21 361 -20 hstem
            34 68 125 69 vstem
            296 return
          </CharString>
          <CharString index="228">
            -4 -9 -13 vhcurveto
            -15 -10 -8 -14 return
          </CharString>
          <CharString index="229">
            -13 174 callsubr
            return
          </CharString>
          <CharString index="230">
            -93 -31 325 31 -95 623 return
          </CharString>
          <CharString index="231">
            11 47 5 36 25 vvcurveto
            71 -25 return
          </CharString>
          <CharString index="232">
            210 callgsubr
            vhcurveto
            return
          </CharString>
          <CharString index="233">
            vlineto
            -15 -3 -7 -8 return
          </CharString>
          <CharString index="234">
            -28 6 -19 hhcurveto
            return
          </CharString>
          <CharString index="235">
            -58 88 callgsubr
            275 -20 hstemhm
            54 122 -93 126 204 128 hintmask 11110100
            return
          </CharString>
          <CharString index="236">
            104 -104 168 return
          </CharString>
          <CharString index="237">
            31 -51 -19 -17 121 callsubr
            return
          </CharString>
          <CharString index="238">
            194 -95 95 -64 31 41 181 callsubr
            return
          </CharString>
          <CharString index="239">
            39 41 216 137 216 41 return
          </CharString>
          <CharString index="240">
            37 279 -37 hlineto
            return
          </CharString>
          <CharString index="241">
            19 -16 24 vhcurveto
            return
          </CharString>
          <CharString index="242">
            125 138 return
          </CharString>
          <CharString index="243">
            -22 callsubr
            -184 111 rmoveto
            51 -42 31 -49 -39 -33 -19 -36 vhcurveto
            return
          </CharString>
          <CharString index="244">
            -25 134 callsubr
            12 18 8 7 hhcurveto
            160 callgsubr
            return
          </CharString>
          <CharString index="245">
            5 12 3 11 11 vvcurveto
            35 -24 18 -49 -51 -26 -18 -35 -11 3 -11 6 -12 vhcurveto
            return
          </CharString>
          <CharString index="246">
            hstemhm
            32 123 return
          </CharString>
          <CharString index="247">
            -13 -27 -24 -6 -22 hhcurveto
            -2 32 2 25 6 18 1 3 9 20 19 37 rrcurveto
            return
          </CharString>
          <CharString index="248">
            -20 115 callsubr
            return
          </CharString>
          <CharString index="249">
            rmoveto
            23 103 callgsubr
            return
          </CharString>
          <CharString index="250">
            690 rmoveto
            -230 -31 hlineto
            return
          </CharString>
          <CharString index="251">
            hstemhm
            136 37 413 36 return
          </CharString>
          <CharString index="252">
            0 129 callsubr
            return
          </CharString>
          <CharString index="253">
            145 137 return
          </CharString>
          <CharString index="254">
            -11 30 23 -6 16 hhcurveto
            27 22 13 27 16 hvcurveto
            13 23 7 25 29 vvcurveto
            return
          </CharString>
          <CharString index="255">
            31 rlineto
            -49 20 callgsubr
            return
          </CharString>
          <CharString index="256">
            hstemhm
            33 123 245 126 return
          </CharString>
          <CharString index="257">
            40 callgsubr
            hstem
            return
          </CharString>
          <CharString index="258">
            94 -73 122 -104 55 return
          </CharString>
          <CharString index="259">
            39 -31 29 -37 -36 -31 -29 -39 -36 31 -30 36 37 31 30 36 vhcurveto
            return
          </CharString>
          <CharString index="260">
            831 rmoveto
            -30 hlineto
            -21 -3 -15 -10 -28 hhcurveto
            -17 -26 3 5 -35 hvcurveto
            return
          </CharString>
          <CharString index="261">
            33 26 26 33 32 -26 25 -33 -33 -24 -24 -33 -33 25 -26 32 hvcurveto
            return
          </CharString>
          <CharString index="262">
            36 -31 31 -37 -36 -30 -31 -36 -37 30 -29 36 37 31 29 37 vhcurveto
            return
          </CharString>
          <CharString index="263">
            rmoveto
            24 168 callgsubr
            return
          </CharString>
          <CharString index="264">
            37 -30 30 -36 -39 -29 -30 -37 -36 29 -31 39 36 30 31 36 vhcurveto
            return
          </CharString>
          <CharString index="265">
            32 0 callgsubr
            return
          </CharString>
          <CharString index="266">
            rmoveto
            -264 -37 264 hlineto
            -44 vmoveto
            -264 -35 264 hlineto
            endchar
          </CharString>
          <CharString index="267">
            -64 -236 247 -30 30 425 32 return
          </CharString>
          <CharString index="268">
            133 82 133 return
          </CharString>
          <CharString index="269">
            31 198 37 return
          </CharString>
          <CharString index="270">
            28 33 vvcurveto
            54 return
          </CharString>
          <CharString index="271">
            27 -13 -17 13 -21 hhcurveto
            -38 -19 -15 -31 -12 3 -9 5 -5 hvcurveto
            return
          </CharString>
          <CharString index="272">
            vvcurveto
            -14 5 -12 return
          </CharString>
          <CharString index="273">
            -4 hvcurveto
            35 -48 return
          </CharString>
          <CharString index="274">
            -23 vvcurveto
            -27 11 return
          </CharString>
          <CharString index="275">
            -488 -4 callsubr
            return
          </CharString>
          <CharString index="276">
            653 rmoveto
            -29 -7 -17 -15 -25 hhcurveto
            -18 -27 6 11 -37 hvcurveto
            return
          </CharString>
          <CharString index="277">
            104 callgsubr
            40 hlineto
            return
          </CharString>
          <CharString index="278">
            339 rmoveto
            83 -17 71 -33 60 vhcurveto
            return
          </CharString>
          <CharString index="279">
            -21 27 223 callgsubr
            return
          </CharString>
          <CharString index="280">
            -20 hstemhm
            146 callgsubr
            return
          </CharString>
          <CharString index="281">
            -27 -13 vhcurveto
            -75 -155 rlineto
            return
          </CharString>
          <CharString index="282">
            74 callsubr
            vstem
            return
          </CharString>
          <CharString index="283">
            rmoveto
            47 -31 33 -62 21 vhcurveto
            return
          </CharString>
          <CharString index="284">
            22 -3 -6 7 hvcurveto
            19 return
          </CharString>
          <CharString index="285">
            -15 -3 -7 -8 -13 hhcurveto
            return
          </CharString>
          <CharString index="286">
            -12 -16 38 649 33 return
          </CharString>
          <CharString index="287">
            227 callsubr
            136 return
          </CharString>
          <CharString index="288">
            -20 107 callgsubr
            return
          </CharString>
          <CharString index="289">
            13 7 -8 -15 return
          </CharString>
          <CharString index="290">
            3 -5 2 -5 -7 vvcurveto
            -37 -35 -42 -70 -46 vhcurveto
            40 -15 return
          </CharString>
          <CharString index="291">
            81 -55 callgsubr
            return
          </CharString>
          <CharString index="292">
            5 -86 rcurveline
            39 hlineto
            9 81 7 51 6 22 -6 10 rcurveline
            return
          </CharString>
          <CharString index="293">
            -32 279 hlineto
            return
          </CharString>
          <CharString index="294">
            694 rmoveto
            27 return
          </CharString>
          <CharString index="295">
            vvcurveto
            105 11 78 22 51 vhcurveto
            27 63 45 32 65 3 return
          </CharString>
          <CharString index="296">
            179 callgsubr
            217 callsubr
            return
          </CharString>
          <CharString index="297">
            -332 -58 callgsubr
            return
          </CharString>
          <CharString index="298">
            -48 11 -24 17 23 vvcurveto
            18 8 9 15 vhcurveto
            8 20 return
          </CharString>
          <CharString index="299">
            705 rmoveto
            -75 -705 75 hlineto
            return
          </CharString>
          <CharString index="300">
            208 callgsubr
            7 8 return
          </CharString>
          <CharString index="301">
            -3 7 7 -1 7 hhcurveto
            37 31 return
          </CharString>
          <CharString index="302">
            24 12 19 13 vvcurveto
            return
          </CharString>
          <CharString index="303">
            4 -12 8 -11 hvcurveto
            return
          </CharString>
          <CharString index="304">
            123 -94 126 return
          </CharString>
          <CharString index="305">
            153 -16 59 return
          </CharString>
          <CharString index="306">
            30 callsubr
            1 -20 hstemhm
            95 122 return
          </CharString>
          <CharString index="307">
            -7 -23 -5 -28 -5 -64 -1 rcurveline
            -77 123 hlineto
            return
          </CharString>
          <CharString index="308">
            145 -105 50 222 -20 hstemhm
            221 150 return
          </CharString>
          <CharString index="309">
            -128 -21 149 123 146 122 hstemhm
            return
          </CharString>
          <CharString index="310">
            17 42 59 34 48 27 39 -38 8 rcurveline
            -79 -75 return
          </CharString>
          <CharString index="311">
            -52 -42 -31 -51 180 callgsubr
            -20 27 return
          </CharString>
          <CharString index="312">
            3 -6 -6 1 -6 hhcurveto
            return
          </CharString>
          <CharString index="313">
            -124 rcurveline
            18 -12 rlineto
            return
          </CharString>
          <CharString index="314">
            0 31 457 202 return
          </CharString>
          <CharString index="315">
            69 -50 22 134 73 return
          </CharString>
          <CharString index="316">
            193 -85 85 return
          </CharString>
          <CharString index="317">
            24 -19 20 -25 return
          </CharString>
          <CharString index="318">
            64 callgsubr
            hintmask 10011110
            return
          </CharString>
          <CharString index="319">
            116 callsubr
            -30 return
          </CharString>
          <CharString index="320">
            133 -125 rlineto
            47 hlineto
            -192 77 rmoveto
            return
          </CharString>
          <CharString index="321">
            0 37 -37 53 275 35 268 50 hstem
            return
          </CharString>
          <CharString index="322">
            75 31 -329 -31 71 hlineto
            242 -333 return
          </CharString>
          <CharString index="323">
            219 callsubr
            hstemhm
            28 202 return
          </CharString>
          <CharString index="324">
            -19 -16 -10 -21 -25 vvcurveto
            -34 return
          </CharString>
          <CharString index="325">
            rmoveto
            -158 -49 158 hlineto
            return
          </CharString>
          <CharString index="326">
            32 395 32 96 149 return
          </CharString>
          <CharString index="327">
            rlineto
            13 -28 callgsubr
            return
          </CharString>
          <CharString index="328">
            rmoveto
            35 -29 30 -36 -35 -28 return
          </CharString>
          <CharString index="329">
            hstemhm
            59 122 -93 126 return
          </CharString>
          <CharString index="330">
            64 107 -20 hstemhm
            85 122 return
          </CharString>
          <CharString index="331">
            163 callgsubr
            hstemhm
            return
          </CharString>
          <CharString index="332">
            3 7 -7 hvcurveto
            -17 return
          </CharString>
          <CharString index="333">
            20 -47 41 -37 vhcurveto
            return
          </CharString>
          <CharString index="334">
            136 203 return
          </CharString>
          <CharString index="335">
            137 204 return
          </CharString>
          <CharString index="336">
            -22 -50 -11 -38 -7 -26 -2 rlinecurve
            -35 vlineto
            return
          </CharString>
          <CharString index="337">
            -21 105 76 hstem
            12 108 vstem
            120 return
          </CharString>
          <CharString index="338">
            -20 hstem
            146 callgsubr
            127 vstem
            return
          </CharString>
          <CharString index="339">
            rmoveto
            20 7 10 14 21 vvcurveto
            13 -6 10 return
          </CharString>
          <CharString index="340">
            151 callgsubr
            hstemhm
            33 123 return
          </CharString>
          <CharString index="341">
            -2 5 rlineto
            -39 hlineto
            -450 -700 rlineto
            return
          </CharString>
          <CharString index="342">
            23 rrcurveto
            23 28 12 34 39 vvcurveto
            endchar
          </CharString>
          <CharString index="343">
            -15 -27 -23 -18 return
          </CharString>
          <CharString index="344">
            -21 100 116 return
          </CharString>
        <CharString name=".notdef">
          -141 0 63 773 63 hstem
          63 62 250 63 vstem
          438 hmoveto
          899 -375 -899 vlineto
          62 836 rmoveto
          250 -773 -250 hlineto
          endchar
        </CharString>
        <CharString name="A">
          -23 callsubr
          hstem
          -105 callsubr
          endchar
        </CharString>
        <CharString name="AE">
          203 callgsubr
          hstem
          554 228 callsubr
          38 130 33 vstem
          1063 -42 callsubr
          endchar
        </CharString>
        <CharString name="AEacute">
          203 callgsubr
          242 -20 hstem
          559 228 callsubr
          38 130 33 vstem
          1068 -42 callsubr
          300 622 rmoveto
          210 callsubr
          -23 -22 -13 -25 -21 vhcurveto
          -128 -147 rlineto
          54 hlineto
          165 101 220 callsubr
          endchar
        </CharString>
        <CharString name="Aacute">
          -23 callsubr
          241 -20 hstem
          -105 callsubr
          166 621 rmoveto
          210 callsubr
          -23 -22 -13 -25 -21 vhcurveto
          -128 -147 rlineto
          54 hlineto
          165 101 220 callsubr
          endchar
        </CharString>
        <CharString name="Abreve">
          -23 callsubr
          71 64 95 -20 hstem
          -105 callsubr
          87 654 8 callsubr
        </CharString>
        <CharString name="Acircumflex">
          -23 callsubr
          229 -20 hstem
          -105 callsubr
          -14 653 -96 callsubr
          endchar
        </CharString>
        <CharString name="Acute">
          772 -21 174 -20 hstem
          270 921 rmoveto
          -4 4 -92 -12 -29 -38 -16 -19 -1 -1 rlinecurve
          -70 -85 -2 -6 13 -13 7 3 98 76 102 76 rlineto
          endchar
        </CharString>
        <CharString name="Acutesmall">
          -130 486 -21 205 -20 hstem
          408 635 1 callsubr
        </CharString>
        <CharString name="Adieresis">
          -23 callsubr
          52 134 hstem
          242 161 callsubr
          vstem
          -105 callsubr
          126 543 -79 callgsubr
        </CharString>
        <CharString name="Agrave">
          -23 callsubr
          252 -20 hstem
          -105 callsubr
          -101 636 39 callsubr
          -8 -10 -2 -5 -13 hvcurveto
          -15 29 callsubr
          11 -10 vhcurveto
          118 -120 rlineto
          47 hlineto
          endchar
        </CharString>
        <CharString name="Alpha">
          158 106 callsubr
          444 -20 hstem
          776 -105 callgsubr
          endchar
        </CharString>
        <CharString name="Alphatonos">
          -23 callsubr
          hstem
          -105 callsubr
          -223 400 rmoveto
          -60 callsubr
        </CharString>
        <CharString name="Amacron">
          -23 callsubr
          57 66 hstem
          -105 callsubr
          100 547 33 callsubr
        </CharString>
        <CharString name="Aogonek">
          157 -195 61 131 2 callgsubr
          hstem
          526 78 vstem
          251 264 rmoveto
          113 294 100 -294 rlineto
          311 -267 rmoveto
          32 -76 vlineto
          -86 callgsubr
          -20 -53 -18 -32 -17 -11 rlinecurve
          -13 -8 -25 -4 -35 1 rrcurveto
          -32 218 32 vlineto
          -39 -21 3 6 -4 hvcurveto
          -3 7 -2 7 9 vvcurveto
          18 6 25 13 32 vhcurveto
          36 90 rlineto
          244 hlineto
          67 -197 rlineto
          -80 -32 136 hlineto
          -51 -39 -25 -41 -43 vvcurveto
          -18 6 -15 12 -12 vhcurveto
          -16 13 20 -8 27 hhcurveto
          25 25 7 13 27 hvcurveto
          27 13 20 14 13 15 -14 20 rcurveline
          -14 -22 -23 -7 -23 hhcurveto
          -37 -18 12 23 23 15 32 31 41 hvcurveto
          endchar
        </CharString>
        <CharString name="Aring">
          160 106 callsubr
          475 50 100 50 hstem
          311 50 100 50 vstem
          511 -24 callgsubr
          endchar
        </CharString>
        <CharString name="Aringacute">
          152 106 callsubr
          475 50 100 50 210 -20 hstem
          503 -24 callgsubr
          152 842 rmoveto
          23 -19 20 -25 -23 -22 -12 -25 -21 vhcurveto
          -128 -148 rlineto
          54 hlineto
          165 102 220 callsubr
          endchar
        </CharString>
        <CharString name="Atilde">
          -23 callsubr
          61 78 -29 77 hstemhm
          hintmask 11101000
          -105 callsubr
          91 611 8 callgsubr
          hintmask 11110000
          -35 callsubr
          hintmask 11101000
          52 callsubr
          hintmask 11110000
          -47 callgsubr
          hintmask 11101000
          -34 callgsubr
          hintmask 11110000
          53 callgsubr
          hintmask 11101000
          24 callgsubr
        </CharString>
        <CharString name="B">
          99 callsubr
          1 59 -23 47 -45 33 -35 27 -40 13 -45 1 rrcurveto
          hintmask 11110000
          88 15 68 62 88 vvcurveto
          105 -76 66 -128 vhcurveto
          -397 -31 95 -628 -95 -31 395 hlineto
          hintmask 11101000
          157 79 58 116 1 hvcurveto
          hintmask 11110000
          -176 346 rmoveto
          -53 -17 -41 -34 -28 vhcurveto
          -22 -26 -29 -11 -33 hhcurveto
          -86 294 100 hlineto
          33 29 -11 -23 23 hvcurveto
          27 -26 13 -35 -44 vvcurveto
          hintmask 11101000
          21 -344 rmoveto
          1 -54 -22 -40 -43 -26 rrcurveto
          -17 -28 -29 -8 -30 hhcurveto
          -95 305 87 hlineto
          39 34 -10 -21 29 hvcurveto
          37 -27 19 -43 1 -59 rrcurveto
          endchar
        </CharString>
        <CharString name="Beta">
          99 callsubr
          53 -18 42 -37 33 vhcurveto
          -36 33 -44 17 -52 2 44 7 37 19 30 29 rrcurveto
          hintmask 11110000
          30 30 15 37 43 vvcurveto
          57 -20 43 -41 30 vhcurveto
          27 -37 -47 14 -59 hhcurveto
          -397 -31 95 -628 -95 -31 395 hlineto
          hintmask 11101000
          158 79 58 116 hvcurveto
          hintmask 11110000
          -176 346 rmoveto
          -43 -12 -36 -24 -30 vhcurveto
          -31 -27 -34 -15 -42 hhcurveto
          -86 294 100 hlineto
          76 49 -60 -79 hvcurveto
          hintmask 11101000
          21 -344 rmoveto
          -42 -15 -35 -29 -27 vhcurveto
          -27 -29 -35 -14 -43 hhcurveto
          -95 305 87 hlineto
          97 62 -63 -97 hvcurveto
          endchar
        </CharString>
        <CharString name="Breve">
          759 64 95 -20 hstem
          313 918 8 callsubr
        </CharString>
        <CharString name="Brevesmall">
          530 60 91 -20 hstem
          301 681 rmoveto
          -25 hlineto
          -61 -11 -35 -30 -60 hhcurveto
          -66 -38 30 61 -10 hvcurveto
          -25 hlineto
          -2 -2 rlineto
          -91 53 -58 88 81 53 65 84 vhcurveto
          endchar
        </CharString>
        <CharString name="C">
          179 callsubr
          hstem
          31 150 369 38 vstem
          -88 callgsubr
          endchar
        </CharString>
        <CharString name="CR">
          -243 endchar
        </CharString>
        <CharString name="Cacute">
          179 callsubr
          223 -20 hstem
          31 150 369 38 vstem
          -88 callgsubr
          -94 756 rmoveto
          210 callsubr
          -23 -22 -13 -25 -21 vhcurveto
          -128 -147 rlineto
          54 hlineto
          165 101 220 callsubr
          endchar
        </CharString>
        <CharString name="Caron">
          772 -21 179 -20 hstem
          335 930 rmoveto
          -32 hlineto
          -134 -124 -135 124 rlineto
          -31 hlineto
          -3 -5 140 -174 rlineto
          61 hlineto
          137 174 rlineto
          endchar
        </CharString>
        <CharString name="Caronsmall">
          547 -21 159 -20 hstem
          326 685 rmoveto
          -33 hlineto
          -127 -110 -126 110 rlineto
          -31 hlineto
          -3 -4 127 -155 rlineto
          67 hlineto
          128 155 rlineto
          endchar
        </CharString>
        <CharString name="Ccaron">
          179 callsubr
          0 215 hstemhm
          31 150 369 38 hintmask 10111000
          547 919 rmoveto
          -57 hlineto
          -110 -111 -115 111 rlineto
          -55 hlineto
          121 -175 rlineto
          93 hlineto
          193 -617 rmoveto
          -24 -43 -32 -34 -43 -26 -49 -28 -56 -14 -63 2 -86 4 -75 37 -64 69 rrcurveto
          -63 70 -31 83 97 vvcurveto
          1 106 33 88 63 67 59 63 75 32 88 4 112 4 79 -21 47 -49 rrcurveto
          -161 -38 vlineto
          -4 55 -17 43 -31 35 rrcurveto
          hintmask 11011000
          -36 42 -50 20 -62 -1 -63 -3 -45 -32 -27 -62 rrcurveto
          -23 -52 -11 -78 -103 vvcurveto
          -99 13 -73 24 -49 vhcurveto
          27 -54 44 -31 64 -11 rrcurveto
          -1 9 10 -1 12 hhcurveto
          46 45 15 31 45 hvcurveto
          41 27 26 30 14 32 rrcurveto
          endchar
        </CharString>
        <CharString name="Ccedilla">
          -12 -216 46 71 43 40 38 649 33 hstem
          31 150 180 94 95 38 vstem
          -88 callgsubr
          -162 -258 rmoveto
          116 callgsubr
          28 63 rlineto
          -41 hlineto
          -42 -95 -27 callsubr
          endchar
        </CharString>
        <CharString name="Ccircumflex">
          179 callsubr
          -33 246 hstemhm
          31 150 369 38 hintmask 11011000
          -88 callgsubr
          hintmask 10111000
          -201 790 -96 callsubr
          endchar
        </CharString>
        <CharString name="Cdotaccent">
          179 callsubr
          37 109 hstem
          31 150 131 110 128 38 vstem
          -88 callgsubr
          -248 614 rmoveto
          -10 callsubr
        </CharString>
        <CharString name="Cedilla">
          -258 -173 -21 185 -20 hstemhm
          206 45 vstemhm
          251 -114 rmoveto
          24 -14 22 -27 19 vhcurveto
          -11 7 -3 7 5 7 13 17 rcurveline
          -35 2 -30 -54 rlineto
          -6 vlineto
          38 -15 19 -20 -25 vvcurveto
          -20 -19 -16 -12 -4 -8 4 9 -11 vhcurveto
          9 -11 -8 4 -7 hhcurveto
          hintmask 11100000
          -15 -7 -8 -16 -21 17 -10 35 51 44 35 45 hvcurveto
          endchar
        </CharString>
        <CharString name="Cedillasmall">
          -225 46 71 43 57 -20 hstem
          206 94 vstem
          300 -140 rmoveto
          116 callgsubr
          28 63 rlineto
          -41 hlineto
          -42 -95 -27 callsubr
          endchar
        </CharString>
        <CharString name="Chi">
          147 callgsubr
          27 35 26 35 27 34 rlinecurve
          37 47 34 36 30 23 rrcurveto
          33 42 41 16 40 hhcurveto
          31 -234 -31 vlineto
          46 1 23 -10 -19 vvcurveto
          -13 -26 -36 -53 -59 vhcurveto
          -29 -30 -28 -30 -27 -30 -161 226 rcurveline
          215 callsubr
          -28 -35 -28 -36 -27 -35 rlinecurve
          -44 -55 -40 -42 -35 -30 rrcurveto
          -41 -49 -44 -21 -40 hhcurveto
          -31 240 31 vlineto
          -45 -1 -22 9 20 vvcurveto
          19 28 42 57 65 vhcurveto
          33 37 34 36 35 36 205 callgsubr
        </CharString>
        <CharString name="Circumflex">
          772 -21 179 -20 hstem
          191 930 rmoveto
          -46 hlineto
          -141 -174 4 -5 rlineto
          30 hlineto
          128 115 129 -115 rlineto
          31 hlineto
          3 5 rlineto
          endchar
        </CharString>
        <CharString name="Circumflexsmall">
          547 -21 159 -20 hstem
          199 685 rmoveto
          -63 hlineto
          -128 -155 2 -4 rlineto
          33 hlineto
          125 110 125 -110 rlineto
          31 hlineto
          1 4 rlineto
          endchar
        </CharString>
        <CharString name="Commaaccent">
          -641 -283 237 callsubr
          hstemhm
          -68 129 -43 43 hintmask 11100000
          -64 -304 rmoveto
          -26 callsubr
          hintmask 11010000
          104 callsubr
          hintmask 11100000
          -33 -29 -22 -57 -9 vhcurveto
          4 -20 rlineto
          endchar
        </CharString>
        <CharString name="Commaaccentsmall">
          -275 -187 -21 87 80 hstemhm
          -48 93 vstemhm
          45 -104 rmoveto
          17 -3 14 -7 12 vhcurveto
          13 -9 -12 7 -15 hhcurveto
          -25 -22 -17 -23 -23 19 -17 21 hvcurveto
          5 8 8 5 hhcurveto
          hintmask 11100000
          3 1 -4 -8 -31 -27 -28 -28 -9 hvcurveto
          -15 vlineto
          49 9 37 48 47 vvcurveto
          endchar
        </CharString>
        <CharString name="D">
          217 0 37 -37 53 578 50 hstem
          129 141 375 150 vstem
          795 369 rmoveto
          208 -113 104 -225 -31 -46 -1 -1 -60 vhcurveto
          -1 -60 -40 0 -20 hhcurveto
          -156 3 rlineto
          -37 vlineto
          38 -3 22 -1 13 -6 5 -10 rlinecurve
          5 -9 2 -27 -45 vvcurveto
          1 -414 rlineto
          -43 -2 -25 -3 -7 vhcurveto
          -5 -10 -14 -5 -23 -1 -38 -2 rcurveline
          -37 vlineto
          1 33 62 0 90 hhcurveto
          -7 50 -1 -2 106 hvcurveto
          113 -2 97 31 79 65 rrcurveto
          85 69 42 93 116 vvcurveto
          -150 -19 rmoveto
          -201 -92 -96 -196 -39 -29 2 3 -19 vhcurveto
          570 vlineto
          2 19 20 1 23 hhcurveto
          112 80 -22 -44 48 hvcurveto
          49 -43 24 -72 -100 vvcurveto
          endchar
        </CharString>
        <CharString name="Dcaron">
          217 -3 40 -16 -21 631 50 0 239 hstemhm
          129 141 375 150 hintmask 10101100
          795 369 rmoveto
          -116 -42 -93 -85 -69 vhcurveto
          -79 -65 -97 -31 -113 2 rrcurveto
          hintmask 01101100
          2 -106 -50 1 7 hhcurveto
          -90 -62 0 -1 -33 hvcurveto
          37 vlineto
          38 2 23 1 14 5 5 10 rlinecurve
          3 7 2 25 43 vvcurveto
          -1 414 rlineto
          45 -2 27 -5 9 vhcurveto
          -5 10 -13 6 -22 1 -38 3 rcurveline
          37 vlineto
          156 -3 rlineto
          20 40 0 1 60 hvcurveto
          1 60 46 1 31 hhcurveto
          225 113 -104 -208 hvcurveto
          -150 -19 rmoveto
          100 -24 72 -49 43 vhcurveto
          44 -48 -80 22 -112 hhcurveto
          -23 -20 -1 -2 -19 hvcurveto
          -570 vlineto
          -3 19 29 -2 39 hhcurveto
          196 92 96 201 hvcurveto
          hintmask 10011100
          -112 570 -68 callgsubr
        </CharString>
        <CharString name="Delta">
          70 callgsubr
        </CharString>
        <CharString name="Dieresis">
          784 109 hstem
          -9 110 132 108 vstem
          288 784 rmoveto
          62 callgsubr
        </CharString>
        <CharString name="Dieresissmall">
          -195 538 135 hstem
          -5 135 80 135 vstem
          345 605 -62 callsubr
          endchar
        </CharString>
        <CharString name="Dmacron">
          217 214 callsubr
          130 140 375 150 vstem
          45 -33 callgsubr
        </CharString>
        <CharString name="Dotaccent">
          784 109 hstem
          111 110 vstem
          168 784 rmoveto
          -10 callsubr
        </CharString>
        <CharString name="Dotaccentsmall">
          553 106 hstem
          114 106 vstem
          166 553 rmoveto
          31 23 24 29 31 -23 22 -31 -28 -24 -24 -29 -29 24 -24 28 hvcurveto
          endchar
        </CharString>
        <CharString name="E">
          0 callsubr
          hstem
          145 228 callsubr
          118 callsubr
          vstem
          655 -9 callsubr
          293 118 vlineto
          48 38 -43 -79 hvcurveto
          133 callsubr
          -41 -8 -31 -16 -21 vhcurveto
          -17 -13 -20 -8 -29 hhcurveto
          211 callgsubr
          hlineto
          160 -3 128 -1 43 -54 12 -107 rlinecurve
          132 callgsubr
          -5 callgsubr
          endchar
        </CharString>
        <CharString name="Eacute">
          0 callsubr
          238 -20 hstem
          145 228 callsubr
          118 callsubr
          vstem
          478 884 rmoveto
          23 -20 21 -23 -23 -23 -13 -25 -21 vhcurveto
          -128 -147 rlineto
          55 hlineto
          165 101 rlineto
          12 -28 callgsubr
          177 -644 -7 callsubr
          293 118 vlineto
          48 38 -43 -79 hvcurveto
          133 callsubr
          -41 -8 -31 -16 -21 vhcurveto
          -17 -13 -20 -8 -29 hhcurveto
          211 callgsubr
          hlineto
          160 -3 128 -1 43 -54 12 -107 rlinecurve
          132 callgsubr
          -5 callgsubr
          endchar
        </CharString>
        <CharString name="Ebreve">
          0 callsubr
          56 60 85 -20 hstem
          145 228 callsubr
          118 callsubr
          vstem
          655 -9 callsubr
          293 118 vlineto
          48 38 -43 -79 hvcurveto
          133 callsubr
          -41 -8 -31 -16 -21 vhcurveto
          -17 -13 -20 -8 -29 hhcurveto
          211 callgsubr
          hlineto
          160 -3 128 -1 43 -54 12 -107 rlinecurve
          132 callgsubr
          -5 callgsubr
          -185 644 -100 callsubr
          endchar
        </CharString>
        <CharString name="Ecaron">
          0 callsubr
          0 230 hstemhm
          145 228 callsubr
          118 callsubr
          hintmask 11101110
          693 240 rmoveto
          -12 -240 rlineto
          -630 31 94 628 -94 31 614 hlineto
          2 -202 rlineto
          -42 hlineto
          -12 107 -43 54 -128 1 -160 3 rcurveline
          -283 118 vlineto
          29 20 8 17 13 hvcurveto
          16 21 8 31 41 vvcurveto
          37 -279 -37 hlineto
          79 -38 43 -48 vhcurveto
          -118 -293 hlineto
          181 2 rlineto
          19 22 5 10 26 hvcurveto
          27 10 20 11 13 13 40 37 22 50 3 64 rrcurveto
          hintmask 11011110
          -133 680 rmoveto
          -57 hlineto
          -110 -111 -115 111 rlineto
          -55 hlineto
          121 -175 rlineto
          92 hlineto
          endchar
        </CharString>
        <CharString name="Ecircumflex">
          0 callsubr
          227 -20 hstem
          145 228 callsubr
          118 callsubr
          vstem
          655 -9 callsubr
          293 118 vlineto
          48 38 -43 -79 hvcurveto
          133 callsubr
          -41 -8 -31 -16 -21 vhcurveto
          -17 -13 -20 -8 -29 hhcurveto
          211 callgsubr
          hlineto
          160 -3 128 -1 43 -54 12 -107 rlinecurve
          132 callgsubr
          -5 callgsubr
          -261 677 -96 callsubr
          endchar
        </CharString>
        <CharString name="Edieresis">
          0 callsubr
          54 134 hstemhm
          146 callsubr
          -80 161 callsubr
          -64 118 callsubr
          hintmask 1111100110000000
          655 -9 callsubr
          293 118 vlineto
          48 38 -43 -79 hvcurveto
          133 callsubr
          -41 -8 -31 -16 -21 vhcurveto
          -17 -13 -20 -8 -29 hhcurveto
          211 callgsubr
          hlineto
          160 -3 128 -1 43 -54 12 -107 rlinecurve
          132 callgsubr
          -5 callgsubr
          hintmask 1111011010000000
          -143 571 -79 callgsubr
        </CharString>
        <CharString name="Edotaccent">
          0 callsubr
          55 109 hstem
          146 callsubr
          20 110 74 118 callsubr
          vstem
          655 -9 callsubr
          293 118 vlineto
          48 38 -43 -79 hvcurveto
          133 callsubr
          -41 -8 -31 -16 -21 vhcurveto
          -17 -13 -20 -8 -29 hhcurveto
          211 callgsubr
          hlineto
          160 -3 128 -1 43 -54 12 -107 rlinecurve
          132 callgsubr
          -5 callgsubr
          -334 505 rmoveto
          -10 callsubr
        </CharString>
        <CharString name="Egrave">
          78 0 39 292 39 280 40 250 -20 hstem
          133 228 callsubr
          118 callsubr
          vstem
          643 -9 callsubr
          293 118 vlineto
          48 38 -43 -79 hvcurveto
          133 callsubr
          -41 -8 -31 -16 -21 vhcurveto
          -17 -13 -20 -8 -29 hhcurveto
          211 callgsubr
          hlineto
          160 -3 128 -1 43 -54 12 -107 rlinecurve
          132 callgsubr
          -5 callgsubr
          -385 660 77 callsubr
        </CharString>
        <CharString name="Emacron">
          0 callsubr
          53 66 hstem
          145 228 callsubr
          118 callsubr
          vstem
          655 -9 callsubr
          293 118 vlineto
          48 38 -43 -79 hvcurveto
          133 callsubr
          -41 -8 -31 -16 -21 vhcurveto
          -17 -13 -20 -8 -29 hhcurveto
          211 callgsubr
          hlineto
          160 -3 128 -1 43 -54 12 -107 rlinecurve
          132 callgsubr
          -5 callgsubr
          -172 569 33 callsubr
        </CharString>
        <CharString name="Eng">
          97 -216 78 138 31 628 31 hstemhm
          133 37 256 193 -36 36 hintmask 11110100
          713 -74 callsubr
          414 -648 rlineto
          -55 -6 -35 -11 -15 vhcurveto
          -15 -11 -16 -8 -19 hhcurveto
          -8 -10 2 3 -13 hvcurveto
          -15 3 -8 3 -1 1 rrcurveto
          hintmask 11111000
          -21 3 -19 -22 -24 vvcurveto
          -11 5 -9 10 -7 vhcurveto
          -13 21 22 -7 22 hhcurveto
          33 30 14 29 25 hvcurveto
          18 22 8 59 -1 97 rrcurveto
          568 vlineto
          34 9 25 17 17 vhcurveto
          7 7 22 3 39 hhcurveto
          endchar
        </CharString>
        <CharString name="Engalt">
          87 -264 41 223 31 589 93 hstemhm
          23 195 -124 124 303 127 hintmask 11110100
          648 510 rmoveto
          67 -24 52 -49 37 vhcurveto
          31 -41 -50 16 -60 hhcurveto
          -54 -42 -12 -23 -30 hvcurveto
          -80 -63 rlineto
          75 vlineto
          -7 6 -72 -22 -51 -11 -38 -7 -27 -3 rlinecurve
          -35 vlineto
          hintmask 11101100
          219 callgsubr
          -597 -76 -31 277 31 -77 512 vlineto
          44 79 33 68 44 36 -10 -20 28 vhcurveto
          32 -24 16 -35 -46 vvcurveto
          -523 vlineto
          -67 -2 -41 -4 -15 vhcurveto
          -41 -11 -30 -21 -48 hhcurveto
          -2 -4 -1 -2 -1 vvcurveto
          1 -2 3 -11 6 -21 4 -1 12 0 20 1 44 2 40 25 36 47 24 33 17 58 10 81 4 35 3 38 1 41 rrcurveto
          endchar
        </CharString>
        <CharString name="Eogonek">
          90 -195 61 134 39 292 39 280 40 hstemhm
          146 callsubr
          -11 76 139 118 callsubr
          hintmask 11111011
          681 hmoveto
          75 callsubr
          -38 hlineto
          -3 -64 -22 -50 -40 -37 -13 -13 -20 -11 -27 4 callsubr
          -19 hhcurveto
          -181 -2 rlineto
          293 118 vlineto
          48 38 -43 -79 hvcurveto
          133 callsubr
          -41 -8 -31 -16 -21 vhcurveto
          -17 -13 -20 -8 -29 hhcurveto
          211 callgsubr
          hlineto
          160 -3 128 -1 43 -54 12 -107 rlinecurve
          132 callgsubr
          94 -628 -94 -31 299 hlineto
          224 callgsubr
          hintmask 11110111
          -17 -25 -8 -24 -21 -17 callsubr
          24 16 33 33 42 hvcurveto
          endchar
        </CharString>
        <CharString name="Epsilon">
          101 133 callgsubr
          283 37 hstem
          140 228 callsubr
          118 callsubr
          vstem
          650 -95 callgsubr
          -5 callgsubr
          endchar
        </CharString>
        <CharString name="Epsilontonos">
          378 133 callgsubr
          283 37 19 -20 hstemhm
          239 84 94 137 0 204 37 132 hintmask 11101011
          927 -95 callgsubr
          hlineto
          hintmask 11011101
          -5 callgsubr
          -726 425 rmoveto
          -60 callsubr
        </CharString>
        <CharString name="Eta">
          167 122 callgsubr
          hstem
          138 175 callsubr
          766 -97 callgsubr
          endchar
        </CharString>
        <CharString name="Etatonos">
          435 122 callgsubr
          18 -20 hstemhm
          239 74 93 137 94 72 94 138 hintmask 11101111
          1034 -97 callgsubr
          -795 664 rmoveto
          hintmask 11011111
          -60 callsubr
        </CharString>
        <CharString name="Eth">
          165 214 callsubr
          121 140 375 150 vstem
          36 -33 callgsubr
        </CharString>
        <CharString name="F">
          -2 callgsubr
        </CharString>
        <CharString name="G">
          86 callsubr
          hstem
          57 151 324 134 vstem
          -93 callsubr
          endchar
        </CharString>
        <CharString name="Gamma">
          39 150 callsubr
          146 137 335 41 vstem
          658 690 rmoveto
          -605 -31 93 -628 123 callsubr
          hlineto
          50 50 0 -1 50 hvcurveto
          55 -3 42 -13 29 -21 37 -25 19 -43 3 -60 rrcurveto
          43 hlineto
          endchar
        </CharString>
        <CharString name="Gbreve">
          86 callsubr
          44 60 85 -20 hstem
          57 151 324 134 vstem
          -93 callsubr
          -176 646 -100 callsubr
          endchar
        </CharString>
        <CharString name="Gcircumflex">
          86 callsubr
          -34 241 hstemhm
          57 151 324 134 hintmask 11101100
          -93 callsubr
          hintmask 11011100
          -261 671 -96 callsubr
          endchar
        </CharString>
        <CharString name="Gcommaaccent">
          115 -287 237 callsubr
          77 37 213 41 392 34 hstemhm
          57 151 124 129 -43 43 71 134 hintmask 1111111010000000
          -93 callsubr
          -371 -546 rmoveto
          -26 callsubr
          hintmask 1111110110000000
          104 callsubr
          hintmask 1111111010000000
          85 callgsubr
        </CharString>
        <CharString name="Gdotaccent">
          86 callsubr
          43 109 hstem
          57 151 131 110 83 134 vstem
          -93 callsubr
          -311 507 rmoveto
          -10 callsubr
        </CharString>
        <CharString name="Grave">
          772 -21 174 -20 hstem
          275 770 rmoveto
          -39 47 -23 28 -7 9 -47 59 rcurveline
          -91 12 -5 -4 -7 -15 103 -76 97 -76 8 -3 12 13 rlineto
          endchar
        </CharString>
        <CharString name="Gravesmall">
          -130 486 -21 204 -20 hstem
          198 649 43 callsubr
        </CharString>
        <CharString name="H">
          134 122 callgsubr
          hstem
          137 175 callsubr
          765 -97 callgsubr
          endchar
        </CharString>
        <CharString name="H18533">
          -247 67 -21 284 -20 hstem
          194 330 rmoveto
          -39 -34 -14 -27 -28 hvcurveto
          -28 -27 -14 -34 -39 vvcurveto
          -40 14 -34 27 -28 vhcurveto
          -27 28 34 -14 40 hhcurveto
          39 34 14 27 27 hvcurveto
          27 28 14 34 40 vvcurveto
          38 -14 33 -27 28 vhcurveto
          28 -27 -34 14 -39 hhcurveto
          endchar
        </CharString>
        <CharString name="H18543">
          -317 91 187 hstem
          65 186 vstem
          65 278 rmoveto
          -187 186 187 vlineto
          endchar
        </CharString>
        <CharString name="H18551">
          -317 94 30 125 31 hstem
          68 31 125 30 vstem
          68 280 rmoveto
          -186 186 186 vlineto
          -30 -156 rmoveto
          -125 125 125 hlineto
          endchar
        </CharString>
        <CharString name="H22073">
          -198 -5 31 319 30 hstem
          29 30 319 31 vstem
          29 -5 rmoveto
          380 380 -380 hlineto
          349 -30 rmoveto
          -319 -319 319 vlineto
          endchar
        </CharString>
        <CharString name="Hbar">
          167 113 callsubr
          113 37 128 31 hstem
          138 175 callsubr
          535 494 rmoveto
          -113 -260 113 vlineto
          491 -463 rmoveto
          -93 463 76 37 -76 128 93 31 -325 -31 94 -128 -260 128 94 -46 callsubr
          -128 -78 -37 78 -463 90 callgsubr
          31 -94 315 260 -315 69 callsubr
          hlineto
          endchar
        </CharString>
        <CharString name="Hcircumflex">
          134 122 callgsubr
          224 -20 hstem
          137 175 callsubr
          765 -97 callgsubr
          -314 914 -96 callsubr
          endchar
        </CharString>
        <CharString name="Hungarumlaut">
          32 764 -21 hstem
          188 809 232 callsubr
          -13 6 vhcurveto
          -16 7 -14 0 -11 -8 -166 206 callsubr
          366 66 232 callsubr
          -12 6 vhcurveto
          -16 7 -14 0 -12 -8 -165 206 callsubr
          endchar
        </CharString>
        <CharString name="Hungarumlautsmall">
          -217 530 -21 hstem
          196 576 231 callgsubr
          -12 6 vhcurveto
          -16 7 -14 -1 -12 -9 -165 206 callsubr
          366 67 231 callgsubr
          -13 6 vhcurveto
          -15 7 -14 -1 -12 -9 -165 206 callsubr
          endchar
        </CharString>
        <CharString name="I">
          -223 150 callsubr
          142 139 vstem
          373 -84 callgsubr
          endchar
        </CharString>
        <CharString name="IJ">
          -223 -215 246 628 31 hstemhm
          142 139 233 131 vstemhm
          373 31 rmoveto
          -92 628 -53 callsubr
          hlineto
          hintmask 11110000
          -31 324 vlineto
          368 -25 callsubr
          endchar
        </CharString>
        <CharString name="Iacute">
          -223 40 callgsubr
          245 -20 hstem
          142 139 vstem
          373 -84 callgsubr
          38 891 rmoveto
          210 callsubr
          -23 -22 -13 -25 -21 vhcurveto
          -128 -147 rlineto
          54 hlineto
          165 101 220 callsubr
          endchar
        </CharString>
        <CharString name="Ibreve">
          -223 40 callgsubr
          58 60 85 -20 hstem
          142 139 vstem
          373 -84 callgsubr
          -31 886 -100 callsubr
          endchar
        </CharString>
        <CharString name="Icircumflex">
          -223 40 callgsubr
          230 -20 hstem
          142 139 vstem
          373 -84 callgsubr
          -119 920 -96 callsubr
          endchar
        </CharString>
        <CharString name="Idieresis">
          -218 40 callgsubr
          54 134 hstemhm
          33 135 -29 139 -30 135 hintmask 11110100
          383 810 rmoveto
          152 callsubr
          -215 hmoveto
          152 callsubr
          202 -779 rmoveto
          hintmask 11101000
          -92 628 -53 callsubr
          -31 324 hlineto
          endchar
        </CharString>
        <CharString name="Idotaccent">
          -223 40 callgsubr
          54 109 hstemhm
          142 139 -123 110 hintmask 11110000
          373 -84 callgsubr
          -158 744 rmoveto
          hintmask 11101000
          -10 callsubr
        </CharString>
        <CharString name="Igrave">
          -223 40 callgsubr
          249 -20 hstem
          142 139 vstem
          373 -84 callgsubr
          -223 899 39 callsubr
          -8 -10 -2 -5 -13 hvcurveto
          -15 29 callsubr
          11 -10 vhcurveto
          118 -120 rlineto
          47 hlineto
          endchar
        </CharString>
        <CharString name="Imacron">
          -223 40 callgsubr
          56 66 hstem
          142 139 vstem
          373 -84 callgsubr
          -10 812 33 callsubr
        </CharString>
        <CharString name="Iogonek">
          -223 -195 61 134 31 628 31 hstemhm
          116 76 -50 139 hintmask 11101000
          373 hmoveto
          31 -92 628 -53 callsubr
          -31 145 vlineto
          -21 -16 -17 -19 -15 -21 rrcurveto
          hintmask 11110000
          -17 -25 -8 -24 -21 -17 callsubr
          24 16 33 33 42 hvcurveto
          endchar
        </CharString>
        <CharString name="Iota">
          -226 150 callsubr
          139 139 vstem
          370 -84 callgsubr
          endchar
        </CharString>
        <CharString name="Iotadieresis">
          -202 40 callgsubr
          50 134 hstemhm
          46 133 -28 139 -29 133 hintmask 11101000
          382 -84 callgsubr
          hintmask 11110100
          12 807 -79 callgsubr
        </CharString>
        <CharString name="Iotatonos">
          16 40 callgsubr
          19 -20 hstemhm
          239 49 93 139 hintmask 11011000
          612 -84 callgsubr
          -373 665 rmoveto
          hintmask 10111000
          -60 callsubr
        </CharString>
        <CharString name="Itilde">
          -223 40 callgsubr
          65 78 -29 77 hstemhm
          142 139 hintmask 11011000
          373 -84 callgsubr
          -24 881 8 callgsubr
          hintmask 11101000
          -35 callsubr
          hintmask 11011000
          52 callsubr
          hintmask 11101000
          -47 callgsubr
          hintmask 11011000
          -34 callgsubr
          hintmask 11101000
          53 callgsubr
          hintmask 11011000
          24 callgsubr
        </CharString>
        <CharString name="J">
          -295 657 33 hstem
          110 131 vstem
          337 -25 callsubr
          endchar
        </CharString>
        <CharString name="Jcircumflex">
          -295 657 33 222 -20 hstem
          110 131 vstem
          337 -25 callsubr
          -109 255 -96 callsubr
          endchar
        </CharString>
        <CharString name="K">
          181 150 callsubr
          124 137 94 167 vstem
          -16 callgsubr
          endchar
        </CharString>
        <CharString name="Kappa">
          180 0 31 629 30 181 callgsubr
          94 191 vstem
          808 31 rmoveto
          -43 -1 -25 1 -7 3 -13 5 -15 18 -17 31 -213 366 rcurveline
          37 43 36 42 36 41 rrcurveto
          53 53 44 27 37 hhcurveto
          26 -1 rlineto
          31 -256 -31 vlineto
          48 3 24 -11 -26 vvcurveto
          -17 -43 -56 -86 -93 vhcurveto
          -156 -165 rlineto
          365 111 callsubr
          200 vlineto
          103 115 28 -48 29 -48 29 -49 rlinecurve
          48 -81 24 -48 -13 vvcurveto
          -13 -9 -9 -19 -4 vhcurveto
          -1 -7 -14 -1 -23 hhcurveto
          -31 344 vlineto
          endchar
        </CharString>
        <CharString name="Kcommaaccent">
          181 -296 237 callsubr
          101 31 628 31 hstemhm
          124 137 81 129 -116 167 -94 43 hintmask 11111010
          -16 callgsubr
          -448 -317 rmoveto
          hintmask 11111100
          -26 callsubr
          hintmask 11111001
          104 callsubr
          hintmask 11111100
          85 callgsubr
        </CharString>
        <CharString name="L">
          88 0 39 620 31 181 callgsubr
          373 32 vstem
          -52 callsubr
          endchar
        </CharString>
        <CharString name="Lacute">
          88 0 39 620 31 235 -20 181 callgsubr
          373 32 vstem
          -52 callsubr
          -272 641 rmoveto
          210 callsubr
          -23 -22 -13 -25 -21 vhcurveto
          -128 -147 rlineto
          54 hlineto
          165 101 220 callsubr
          endchar
        </CharString>
        <CharString name="Lambda">
          150 0 31 679 -20 hstem
          771 31 rmoveto
          -77 -67 callgsubr
          -15 -42 -13 -26 -10 -11 rlinecurve
          -17 -19 -26 -10 -36 1 rrcurveto
          -11 -31 218 31 hlineto
          -30 -21 3 7 -12 hvcurveto
          -7 22 rlineto
          42 26 85 53 128 vhcurveto
          35 81 35 80 35 81 183 -529 rcurveline
          -80 -31 310 hlineto
          endchar
        </CharString>
        <CharString name="Lcaron">
          88 0 39 620 31 54 -20 hstemhm
          227 callgsubr
          238 145 -10 32 hintmask 11110100
          -52 callsubr
          hintmask 11111000
          -28 409 -57 callgsubr
        </CharString>
        <CharString name="Lcommaaccent">
          88 -296 237 callsubr
          101 39 620 31 hstemhm
          227 callgsubr
          18 129 -43 43 226 32 hintmask 11111101
          -52 callsubr
          -389 -557 rmoveto
          -26 callsubr
          hintmask 11111011
          104 callsubr
          hintmask 11111101
          85 callgsubr
        </CharString>
        <CharString name="Ldot">
          88 0 39 279 109 232 31 181 callgsubr
          156 110 107 32 vstem
          -52 callsubr
          -198 78 rmoveto
          -10 callsubr
        </CharString>
        <CharString name="Lslash">
          79 0 39 620 31 hstem
          133 137 373 32 vstem
          270 426 rmoveto
          233 95 31 -326 -31 94 -315 vlineto
          -118 -71 rlineto
          -1 3 -6 6 -11 vhcurveto
          7 -10 3 -4 3 vvcurveto
          99 60 rlineto
          -273 -94 -31 630 vlineto
          75 callsubr
          -38 hlineto
          -3 -64 -22 -50 -40 -37 -13 -13 -20 -11 -27 4 callsubr
          -19 hhcurveto
          -181 -2 rlineto
          347 vlineto
          161 98 -5 10 -5 10 -7 10 rlinecurve
          endchar
        </CharString>
        <CharString name="M">
          61 callgsubr
          56 hlineto
          19 10 -7 -14 1 hvcurveto
          -520 vlineto
          -35 -9 -26 -19 -17 vhcurveto
          -6 -7 -21 -3 -37 hhcurveto
          -31 223 31 vlineto
          -39 -22 3 7 -7 92 callgsubr
        </CharString>
        <CharString name="Macron">
          813 50 hstem
          325 863 rmoveto
          -316 -50 316 hlineto
          endchar
        </CharString>
        <CharString name="Macronsmall">
          574 44 hstem
          315 618 rmoveto
          -297 -44 297 hlineto
          endchar
        </CharString>
        <CharString name="Mu">
          61 callgsubr
          hlineto
          43 16 0 1 -9 hvcurveto
          24 -1 12 -8 -13 vvcurveto
          -520 vlineto
          -36 -7 -24 -15 -12 vhcurveto
          -10 -12 -24 -5 -35 hhcurveto
          -31 223 31 vlineto
          -20 -23 3 7 -25 92 callgsubr
        </CharString>
        <CharString name="N">
          123 callgsubr
          144 callsubr
          hintmask 10111000
          716 -74 callsubr
          hintmask 01111000
          30 callgsubr
          endchar
        </CharString>
        <CharString name="Nacute">
          123 callgsubr
          237 -20 144 callsubr
          hintmask 10111100
          716 -74 callsubr
          hintmask 01111100
          30 callgsubr
          -95 224 rmoveto
          210 callsubr
          -23 -22 -13 -25 -21 vhcurveto
          -128 -147 rlineto
          54 hlineto
          165 101 220 callsubr
          endchar
        </CharString>
        <CharString name="Ncaron">
          123 callgsubr
          0 224 144 callsubr
          hintmask 01101100
          716 659 rmoveto
          -39 -22 -3 -7 -7 hvcurveto
          -17 -17 -9 -25 -34 vvcurveto
          -589 -25 vlineto
          -424 654 rlineto
          -520 vlineto
          -35 8 -26 17 -16 vhcurveto
          hintmask 10101100
          -7 7 23 -3 39 hhcurveto
          -31 -225 31 vlineto
          37 22 3 6 7 hvcurveto
          19 17 9 26 35 vvcurveto
          520 vlineto
          14 -1 -10 7 -19 hhcurveto
          -55 31 258 hlineto
          277 -426 rlineto
          309 vlineto
          34 -10 26 -19 17 vhcurveto
          6 -7 -22 3 -37 hhcurveto
          31 225 vlineto
          hintmask 10011100
          -148 224 -68 callgsubr
        </CharString>
        <CharString name="Ncommaaccent">
          100 -297 237 callsubr
          102 31 -26 -21 675 31 hstemhm
          136 37 143 129 -43 43 141 36 hintmask 1110111010000000
          716 -74 callsubr
          hintmask 1101111010000000
          30 callgsubr
          -396 -977 rmoveto
          -26 callsubr
          hintmask 1110110110000000
          104 callsubr
          hintmask 1110111010000000
          85 callgsubr
        </CharString>
        <CharString name="Ntilde">
          123 callgsubr
          48 78 -29 77 144 callsubr
          hintmask 10110110
          716 -74 callsubr
          hintmask 01101110
          30 callgsubr
          -177 205 8 callgsubr
          hintmask 10110110
          -35 callsubr
          hintmask 10101110
          52 callsubr
          hintmask 10110110
          -47 callgsubr
          hintmask 10101110
          -34 callgsubr
          hintmask 10110110
          53 callgsubr
          hintmask 10101110
          24 callgsubr
        </CharString>
        <CharString name="Nu">
          123 callgsubr
          144 callsubr
          hintmask 10111000
          716 690 rmoveto
          -225 -31 hlineto
          71 24 -15 -71 hvcurveto
          -309 vlineto
          -277 426 rlineto
          -258 -31 hlineto
          41 16 0 1 -9 hvcurveto
          25 -1 12 -8 -13 vvcurveto
          -520 vlineto
          -72 -22 -15 -72 vhcurveto
          -31 225 31 vlineto
          -37 -24 5 9 -12 hvcurveto
          -14 11 -7 24 38 vvcurveto
          520 vlineto
          hintmask 01111000
          424 -654 rlineto
          25 589 hlineto
          37 7 23 13 10 vhcurveto
          11 13 25 5 36 hhcurveto
          endchar
        </CharString>
        <CharString name="Numero">
          469 -1 46 -42 -21 39 -21 150 24 269 25 222 -20 21 -20 hstemhm
          111 43 484 42 63 63 189 65 hintmask 1001110111100000
          736 -1 rmoveto
          119 1 109 0 100 -1 -1 15 0 15 1 16 -102 -1 -109 0 -117 1 rrcurveto
          19 619 rmoveto
          9 1 5 4 7 vvcurveto
          9 -5 5 -10 vhcurveto
          -3 -32 -32 -1 -31 hhcurveto
          -27 -40 1 3 -53 hvcurveto
          -11 -5 -5 -9 -8 5 -4 11 hvcurveto
          21 -3 19 -5 17 -7 rrcurveto
          25 -10 12 -13 -17 vvcurveto
          10 -464 -255 311 -148 181 -41 52 rlinecurve
          -69 hlineto
          hintmask 1001101111100000
          -27 -27 1 1 -27 hvcurveto
          -10 -5 -4 -9 -9 5 -4 10 hvcurveto
          44 -7 22 -18 -29 vvcurveto
          -7 -532 rlineto
          -15 -12 -14 -25 -11 vhcurveto
          -11 -5 -12 -5 -14 -4 rrcurveto
          -10 -5 -5 -9 -7 5 -4 10 -1 hvcurveto
          3 37 33 2 27 hhcurveto
          hintmask 0011110111100000
          32 38 -1 -3 45 hvcurveto
          9 5 4 7 9 -5 5 -10 -13 -16 3 7 -18 hvcurveto
          -26 11 -13 14 18 vvcurveto
          -10 521 83 -103 83 -104 83 -104 rlinecurve
          hintmask 0101110111100000
          149 -186 84 -102 20 -18 25 23 rcurveline
          8 606 rlineto
          13 12 13 23 13 vhcurveto
          10 5 12 5 14 4 rrcurveto
          305 -355 rmoveto
          43 -16 38 -31 31 vhcurveto
          31 -31 -38 16 -43 hhcurveto
          -44 -37 -16 -31 -31 hvcurveto
          -31 -31 -15 -38 -43 vvcurveto
          -46 15 -38 30 -30 vhcurveto
          -30 30 38 -15 45 hhcurveto
          45 37 15 30 31 hvcurveto
          31 30 15 38 46 vvcurveto
          -65 -1 rmoveto
          -83 -35 -51 -60 -60 -34 57 77 37 9 32 18 26 vhcurveto
          27 18 22 13 27 hhcurveto
          59 36 -59 -76 hvcurveto
          endchar
        </CharString>
        <CharString name="O">
          106 42 callsubr
          hstem
          66 callgsubr
          vstem
          692 339 rmoveto
          111 -29 88 -59 67 vhcurveto
          67 -58 -77 34 -95 -107 callsubr
          endchar
        </CharString>
        <CharString name="OE">
          434 -16 39 -23 39 -19 -21 332 39 281 39 -17 40 hstemhm
          50 151 297 136 204 37 131 33 hintmask 1001101111000000
          1006 240 rmoveto
          -3 -64 -21 -50 -39 -37 -15 -13 -20 -11 -26 4 callsubr
          -19 hhcurveto
          -181 -2 rlineto
          293 117 vlineto
          51 36 -43 -79 hvcurveto
          133 callsubr
          -41 -8 -31 -16 -21 vhcurveto
          -17 -13 -21 -8 -29 hhcurveto
          -117 283 hlineto
          160 -3 64 -1 45 -14 26 -27 rlinecurve
          26 -27 16 -40 7 -53 rrcurveto
          41 hlineto
          -1 202 rlineto
          -435 hlineto
          -18 -32 4 8 -46 hvcurveto
          hintmask 1001011111000000
          -46 8 -35 4 -25 -1 -95 -5 -79 -34 -61 -65 -63 -67 -32 -87 -1 -107 -1 -99 33 -87 65 -73 66 -73 77 -35 88 3 12 1 33 2 55 5 rrcurveto
          hintmask 0011101111000000
          5 51 37 2 22 hhcurveto
          hintmask 0101101111000000
          445 1 75 callsubr
          -547 -145 rmoveto
          hintmask 1001011111000000
          -48 -29 -40 -24 -51 hhcurveto
          -70 -48 30 61 -27 hvcurveto
          -21 48 -11 78 108 vvcurveto
          105 12 79 23 52 vhcurveto
          29 63 49 29 69 -3 32 -1 29 -13 25 -25 11 -10 9 -12 9 -14 rrcurveto
          endchar
        </CharString>
        <CharString name="Oacute">
          106 42 callsubr
          224 -20 hstem
          66 callgsubr
          vstem
          692 339 rmoveto
          111 -29 88 -59 67 vhcurveto
          67 -58 -77 34 -95 -107 callsubr
          39 550 rmoveto
          210 callsubr
          -23 -22 -13 -25 -21 vhcurveto
          -128 -147 rlineto
          54 hlineto
          165 101 220 callsubr
          endchar
        </CharString>
        <CharString name="Obreve">
          106 42 callsubr
          40 60 85 -20 hstem
          66 callgsubr
          vstem
          692 339 rmoveto
          111 -29 88 -59 67 vhcurveto
          67 -58 -77 34 -95 -107 callsubr
          -35 548 -100 callsubr
          endchar
        </CharString>
        <CharString name="Ocircumflex">
          106 42 callsubr
          -33 244 hstemhm
          53 192 callgsubr
          692 339 rmoveto
          111 -29 88 -59 67 vhcurveto
          67 -58 -77 34 -95 -107 callsubr
          hintmask 10111000
          -118 581 -96 callsubr
          endchar
        </CharString>
        <CharString name="Odieresis">
          105 42 callsubr
          43 134 hstemhm
          52 151 -10 134 81 134 -3 152 hintmask 11101100
          542 816 rmoveto
          157 callsubr
          -215 hmoveto
          157 callsubr
          hintmask 11110010
          364 -477 rmoveto
          111 -29 88 -59 67 vhcurveto
          67 -58 -77 34 -95 hhcurveto
          -88 -75 -32 -65 -61 hvcurveto
          -64 -69 -32 -88 -1 -107 rrcurveto
          -98 32 -85 63 -71 vhcurveto
          -71 64 75 -36 87 hhcurveto
          87 75 34 69 62 hvcurveto
          63 69 31 84 99 vvcurveto
          -152 -3 rmoveto
          -101 -11 -75 -21 -49 vhcurveto
          -59 -26 -44 -29 -61 hhcurveto
          -66 -46 29 58 -27 hvcurveto
          -23 49 -11 77 105 vvcurveto
          105 11 79 23 53 vhcurveto
          63 27 46 32 63 hhcurveto
          65 46 -33 -66 25 hvcurveto
          20 -51 10 -79 -108 vvcurveto
          endchar
        </CharString>
        <CharString name="Ogonek">
          15 callsubr
        </CharString>
        <CharString name="Ogoneksmall">
          15 callsubr
        </CharString>
        <CharString name="Ograve">
          106 42 callsubr
          233 -20 hstem
          66 callgsubr
          vstem
          692 339 rmoveto
          111 -29 88 -59 67 vhcurveto
          67 -58 -77 34 -95 -107 callsubr
          -219 563 39 callsubr
          -8 -10 -2 -5 -13 hvcurveto
          -15 29 callsubr
          11 -10 vhcurveto
          118 -120 rlineto
          47 hlineto
          endchar
        </CharString>
        <CharString name="Ohm">
          106 42 callsubr
          39 109 hstemhm
          53 151 -13 110 132 108 -1 152 hintmask 11110010
          692 339 rmoveto
          111 -29 88 -59 67 vhcurveto
          67 -58 -77 34 -95 -107 callsubr
          -52 409 rmoveto
          hintmask 11101100
          62 callgsubr
        </CharString>
        <CharString name="Ohorn">
          88 42 callsubr
          38 -20 hstemhm
          44 12 callgsubr
          -77 133 -55 55 hintmask 11111010
          683 171 callsubr
          hintmask 11110100
          -32 callsubr
          hintmask 11111010
          25 -13 30 -14 -24 vvcurveto
          -22 -23 -15 -45 -8 vhcurveto
          85 -58 -84 43 -109 -107 callsubr
          endchar
        </CharString>
        <CharString name="Ohungarumlaut">
          106 42 callsubr
          36 210 2 -20 81 callgsubr
          hintmask 11101100
          692 339 rmoveto
          111 -29 88 -59 67 vhcurveto
          67 -58 -77 34 -95 -107 callsubr
          117 572 -70 callsubr
        </CharString>
        <CharString name="Omacron">
          106 42 callsubr
          40 66 hstem
          66 callgsubr
          vstem
          692 339 rmoveto
          111 -29 88 -59 67 vhcurveto
          67 -58 -77 34 -95 -107 callsubr
          -13 476 33 callsubr
        </CharString>
        <CharString name="Omega">
          137 145 callsubr
          501 34 hstemhm
          56 67 callsubr
          hintmask 01111000
          723 -56 callgsubr
          hintmask 10111000
          -102 callgsubr
          hintmask 01111000
          -103 callgsubr
          endchar
        </CharString>
        <CharString name="Omegatonos">
          354 145 callsubr
          501 34 2 -20 hstemhm
          266 67 callsubr
          hintmask 01101100
          933 -56 callgsubr
          hintmask 10101100
          -102 callgsubr
          hintmask 01101100
          -103 callgsubr
          -694 661 rmoveto
          hintmask 10011100
          -60 callsubr
        </CharString>
        <CharString name="Omicron">
          106 42 callsubr
          hstem
          59 12 callgsubr
          vstem
          698 -99 callgsubr
          endchar
        </CharString>
        <CharString name="Omicrontonos">
          285 42 callsubr
          3 -20 hstemhm
          245 192 callgsubr
          884 -99 callgsubr
          -493 329 rmoveto
          hintmask 10111000
          -60 callsubr
        </CharString>
        <CharString name="Oslash">
          84 -65 -21 70 39 650 33 70 -20 hstem
          44 12 callgsubr
          vstem
          493 776 rmoveto
          -282 -862 rlineto
          54 hlineto
          281 862 rlineto
          137 -437 rmoveto
          111 -29 88 -59 67 vhcurveto
          67 -58 -77 34 -95 -107 callsubr
          endchar
        </CharString>
        <CharString name="Oslashacute">
          84 -65 -21 70 39 650 33 223 -20 hstem
          44 12 callgsubr
          vstem
          493 776 rmoveto
          -282 -862 rlineto
          54 hlineto
          281 862 rlineto
          137 -437 rmoveto
          111 -29 88 -59 67 vhcurveto
          67 -58 -77 34 -95 -107 callsubr
          54 549 rmoveto
          210 callsubr
          -23 -22 -13 -25 -21 vhcurveto
          -128 -147 rlineto
          54 hlineto
          165 101 220 callsubr
          endchar
        </CharString>
        <CharString name="Otilde">
          106 42 callsubr
          39 78 -29 77 81 callgsubr
          hintmask 11011100
          692 339 rmoveto
          111 -29 88 -59 67 vhcurveto
          67 -58 -77 34 -95 -107 callsubr
          -31 535 -41 callgsubr
        </CharString>
        <CharString name="P">
          2 0 31 268 29 331 142 callgsubr
          621 495 rmoveto
          73 -26 52 -52 31 vhcurveto
          26 -45 -68 13 -92 hhcurveto
          -305 -31 95 -628 -95 -31 325 31 -94 268 39 hlineto
          88 72 15 29 57 hvcurveto
          67 35 34 50 67 vvcurveto
          -138 -2 rmoveto
          1 -57 -18 -43 -38 -30 rrcurveto
          -23 -32 -41 -12 -50 hhcurveto
          -41 331 61 hlineto
          107 47 -50 -116 4 hvcurveto
          endchar
        </CharString>
        <CharString name="Phi">
          165 0 31 540 28 60 31 hstem
          34 136 159 137 159 136 cntrmask 00011100
          761 361 rmoveto
          75 -31 60 -62 45 vhcurveto
          -57 41 -67 20 -78 -3 rrcurveto
          60 94 31 -325 -31 94 -60 vlineto
          -77 3 -67 -20 -57 -41 rrcurveto
          -63 -45 -31 -60 -75 vvcurveto
          -84 29 -64 58 -45 vhcurveto
          51 -40 70 -22 87 -3 rrcurveto
          -72 69 callsubr
          31 -94 72 vlineto
          88 3 69 22 51 40 rrcurveto
          58 45 29 64 84 vvcurveto
          -136 2 rmoveto
          -139 -53 -77 -106 -17 vhcurveto
          441 vlineto
          49 -1 40 -24 30 -46 rrcurveto
          27 -40 13 -46 -51 vvcurveto
          -296 -233 rmoveto
          -106 17 -53 77 139 vvcurveto
          51 13 46 27 40 vhcurveto
          30 46 40 24 49 1 rrcurveto
          endchar
        </CharString>
        <CharString name="Pi">
          135 31 callsubr
        </CharString>
        <CharString name="Psi">
          304 0 31 220 37 246 169 -44 31 -17 30 hstemhm
          115 126 172 137 164 44 55 113 hintmask 1100111110000000
          926 604 rmoveto
          61 -45 38 -63 -31 -26 -13 -27 -19 vhcurveto
          -19 -27 -9 -29 -33 vvcurveto
          -74 0 -43 -1 -11 vhcurveto
          -5 -50 -11 -37 -18 -25 -24 -32 -38 -15 -52 1 rrcurveto
          -15 hlineto
          hintmask 1101011110000000
          371 93 31 -324 -31 94 -371 -15 vlineto
          -69 -46 21 42 -22 hvcurveto
          -13 29 -7 52 77 vvcurveto
          71 -12 49 -24 29 vhcurveto
          -24 29 -47 13 -69 -2 -39 -2 rcurveline
          -33 vlineto
          59 4 30 -41 -61 vvcurveto
          -116 14 -79 29 -42 vhcurveto
          37 -56 74 -26 109 5 35 2 rcurveline
          -222 -94 -31 324 31 -93 220 vlineto
          96 -4 62 34 27 73 9 24 7 69 7 113 rrcurveto
          hintmask 1100111110000000
          75 5 22 38 41 hhcurveto
          16 8 -9 -18 hvcurveto
          -3 vlineto
          -25 -9 -12 -20 -31 vvcurveto
          hintmask 1110011110000000
          -29 23 -20 28 35 27 35 35 vhcurveto
          endchar
        </CharString>
        <CharString name="Q">
          89 -8 37 642 34 hstem
          57 150 332 150 vstem
          372 -8 rmoveto
          33 43 -27 -52 53 hvcurveto
          46 -49 51 -22 52 5 27 2 20 10 18 19 6 8 6 9 5 9 rrcurveto
          24 vlineto
          -7 -13 -13 -4 -14 hhcurveto
          -13 -13 5 9 -8 hvcurveto
          -64 64 -67 11 -67 -1 67 22 55 42 43 63 rrcurveto
          43 63 21 70 78 vvcurveto
          105 -28 86 -55 67 vhcurveto
          70 -55 -76 34 -92 hhcurveto
          -94 -76 -32 -64 -60 hvcurveto
          -64 -67 -31 -86 -1 -107 rrcurveto
          -96 31 -84 61 -70 vhcurveto
          -71 64 74 -36 85 hhcurveto
          167 354 rmoveto
          -211 -53 -106 -103 -71 -49 30 59 -25 vhcurveto
          -22 47 -9 76 108 vvcurveto
          105 11 76 22 51 vhcurveto
          61 27 47 29 68 hhcurveto
          60 42 -32 -62 25 hvcurveto
          19 -50 11 -78 -103 vvcurveto
          endchar
        </CharString>
        <CharString name="R">
          194 callgsubr
          hstemhm
          127 137 238 130 hintmask 10111000
          -40 callgsubr
          hlineto
          hintmask 01111000
          -33 vlineto
          hintmask 10111000
          37 callsubr
          endchar
        </CharString>
        <CharString name="Racute">
          194 callgsubr
          240 -20 hstemhm
          502 130 hintmask 10111000
          -40 callgsubr
          hlineto
          hintmask 01111000
          -33 vlineto
          hintmask 10111000
          37 callsubr
          -66 372 rmoveto
          210 callsubr
          -23 -22 -13 -25 -21 vhcurveto
          -128 -147 rlineto
          54 hlineto
          165 101 220 callsubr
          endchar
        </CharString>
        <CharString name="Rcaron">
          194 callgsubr
          0 227 hstemhm
          127 137 238 130 hintmask 10101100
          708 hmoveto
          hintmask 01101100
          -261 -1 rlineto
          hintmask 10101100
          33 29 vlineto
          8 2 5 4 5 vvcurveto
          4 -1 3 -4 4 vhcurveto
          -52 64 -64 91 -74 119 rrcurveto
          -30 -296 93 -32 -324 32 94 627 -94 31 350 hlineto
          81 63 -16 -34 44 hvcurveto
          41 -31 20 -42 -54 vvcurveto
          -50 -21 -43 -44 -36 vhcurveto
          -36 -30 -40 -17 -43 -4 205 -279 rcurveline
          10 -14 19 -7 26 -3 rrcurveto
          -206 484 rmoveto
          96 -4 -42 49 -84 hhcurveto
          -108 -302 87 hlineto
          88 64 63 94 -1 hvcurveto
          hintmask 10011100
          -27 403 -68 callgsubr
        </CharString>
        <CharString name="Rcommaaccent">
          75 -296 237 callsubr
          101 32 627 31 hstem
          127 137 139 43 56 130 vstem
          -40 callgsubr
          -33 hlineto
          37 callsubr
          -181 -831 rmoveto
          -26 callsubr
          104 callsubr
          85 callgsubr
        </CharString>
        <CharString name="Rho">
          0 0 31 268 29 331 142 callgsubr
          621 23 callgsubr
          endchar
        </CharString>
        <CharString name="Ring">
          743 22 148 21 hstem
          65 43 117 43 vstem
          268 839 rmoveto
          55 -45 40 -57 -56 -45 -40 -55 -57 45 -39 56 57 45 39 57 vhcurveto
          -43 hmoveto
          -39 -22 -35 -37 -35 -23 35 39 36 23 38 35 37 22 -38 -36 vhcurveto
          endchar
        </CharString>
        <CharString name="Ringsmall">
          518 21 134 21 hstem
          73 38 109 40 vstem
          260 608 rmoveto
          51 -41 35 -53 -51 -42 -37 -49 -52 40 -38 53 52 42 37 53 vhcurveto
          -40 hmoveto
          -36 -21 -33 -33 -33 -22 33 36 33 22 32 33 33 21 -30 -35 vhcurveto
          endchar
        </CharString>
        <CharString name="S">
          -93 -16 233 callsubr
          245 126 hintmask 11011000
          527 225 rmoveto
          -29 callsubr
          hintmask 10111000
          55 callgsubr
          hintmask 11011000
          -59 callsubr
          hhcurveto
          83 69 19 37 53 hvcurveto
          61 44 30 61 -3 80 rrcurveto
          endchar
        </CharString>
        <CharString name="Sacute">
          -93 -16 151 callgsubr
          248 -30 callgsubr
          -141 661 rmoveto
          210 callsubr
          -23 -22 -13 -25 -21 vhcurveto
          -128 -147 rlineto
          54 hlineto
          165 101 220 callsubr
          endchar
        </CharString>
        <CharString name="Scaron">
          -93 -16 151 callgsubr
          22 213 149 callsubr
          hintmask 11001100
          527 225 rmoveto
          3 -80 -30 -61 -61 -44 rrcurveto
          -37 -53 -69 -19 -83 hhcurveto
          -76 -65 15 29 -53 hvcurveto
          154 40 vlineto
          -96 14 55 -48 95 hhcurveto
          89 68 48 84 45 -28 31 -55 16 hvcurveto
          -139 42 rlineto
          -89 26 -57 60 84 vvcurveto
          75 26 57 53 41 vhcurveto
          47 36 61 19 76 2 36 2 37 -5 39 -10 rrcurveto
          hintmask 10111100
          19 -5 12 3 4 13 rrcurveto
          29 hlineto
          1 -187 rlineto
          -41 hlineto
          -3 34 -6 27 -10 20 rrcurveto
          hintmask 11001100
          39 -19 -39 18 -62 hhcurveto
          -88 -49 -57 -74 -46 35 -32 71 -19 hvcurveto
          114 -30 89 -23 58 -66 4 -81 rlinecurve
          hintmask 10111100
          -66 692 -68 callgsubr
        </CharString>
        <CharString name="Scedilla">
          -93 -225 46 71 43 49 233 callsubr
          135 94 16 126 hintmask 11110111
          208 -103 rmoveto
          10 -8 rlineto
          2 12 11 1 9 hhcurveto
          27 14 -12 -23 -24 -17 -12 -34 -17 -22 3 6 -27 hvcurveto
          -15 -38 rlineto
          -11 30 29 -6 28 hhcurveto
          35 30 5 11 25 hvcurveto
          33 15 16 23 31 vvcurveto
          50 -26 25 -53 -11 -14 -2 -4 -17 vhcurveto
          25 58 59 7 50 18 41 28 rlinecurve
          61 44 30 61 -3 80 -29 callsubr
          hintmask 11101111
          55 callgsubr
          hintmask 11110111
          -59 callsubr
          4 4 0 4 hhcurveto
          endchar
        </CharString>
        <CharString name="Scircumflex">
          -93 -16 151 callgsubr
          232 -30 callgsubr
          -208 689 -96 callsubr
          endchar
        </CharString>
        <CharString name="Scommaaccent">
          -93 -301 237 callsubr
          90 233 callsubr
          20 129 -43 43 96 126 hintmask 1111010110000000
          527 225 rmoveto
          -29 callsubr
          hintmask 1110111010000000
          55 callgsubr
          hintmask 1111011010000000
          -59 callsubr
          hhcurveto
          83 69 19 37 53 hvcurveto
          61 44 30 61 -3 80 rrcurveto
          -347 -547 rmoveto
          -26 callsubr
          hintmask 1111010110000000
          104 callsubr
          hintmask 1111011010000000
          85 callgsubr
        </CharString>
        <CharString name="Sigma">
          82 0 104 549 37 hstem
          619 16 callgsubr
        </CharString>
        <CharString name="T">
          78 207 callsubr
          hstem
          132 callsubr
          cntrmask 00111000
          -19 callsubr
          endchar
        </CharString>
        <CharString name="Tau">
          75 207 callsubr
          hstem
          296 137 216 41 vstem
          689 690 rmoveto
          -649 hlineto
          -2 -202 rlineto
          42 hlineto
          6 67 22 44 37 22 25 15 51 11 75 7 rrcurveto
          -623 123 callsubr
          vlineto
          75 -7 51 -11 25 -15 38 -22 22 -44 5 -67 rrcurveto
          42 hlineto
          endchar
        </CharString>
        <CharString name="Tbar">
          78 0 31 389 44 24 202 hstem
          132 callsubr
          cntrmask 00011100
          689 690 rmoveto
          -649 hlineto
          -2 -202 rlineto
          42 hlineto
          4 52 16 40 28 28 21 22 45 14 69 7 33 3 rcurveline
          -190 -180 -44 180 -389 -93 -31 325 31 -95 389 166 44 -166 190 vlineto
          33 -3 69 -7 46 -14 22 -22 rlinecurve
          27 -28 15 -40 4 -52 rrcurveto
          42 hlineto
          endchar
        </CharString>
        <CharString name="Tcaron">
          78 207 callsubr
          0 225 hstemhm
          132 callsubr
          cntrmask 00011100
          hintmask 11011100
          691 488 rmoveto
          -42 hlineto
          -4 52 -15 40 -27 28 -22 22 -46 14 -69 7 -33 3 rcurveline
          -623 95 -31 -325 31 93 623 vlineto
          -33 -3 -69 -7 -45 -14 -21 -22 rlinecurve
          -28 -28 -16 -40 -4 -52 rrcurveto
          -42 hlineto
          2 202 rlineto
          649 hlineto
          hintmask 10111100
          -155 225 -68 callgsubr
        </CharString>
        <CharString name="Tcommaaccent">
          78 -278 237 callsubr
          83 31 457 202 hstemhm
          39 41 216 137 -52 52 216 41 hintmask 11111101
          -19 callsubr
          -392 -787 rmoveto
          -26 callsubr
          hintmask 11111011
          104 callsubr
          85 callgsubr
        </CharString>
        <CharString name="Theta">
          114 -16 39 271 114 265 33 hstem
          57 151 64 31 150 30 62 151 vstem
          696 339 rmoveto
          103 -26 86 -53 67 vhcurveto
          74 -58 -79 37 -100 hhcurveto
          -97 -79 -37 -73 -61 hvcurveto
          -57 -69 -29 -83 -99 vvcurveto
          -93 30 -83 60 -71 vhcurveto
          -76 63 77 -38 93 hhcurveto
          91 76 37 74 61 hvcurveto
          59 69 29 82 93 vvcurveto
          -151 -3 rmoveto
          -87 -8 -67 -16 -46 vhcurveto
          -75 -25 -47 -38 -68 hhcurveto
          -73 -50 37 75 -26 hvcurveto
          -16 46 -8 69 91 vvcurveto
          90 8 70 16 50 vhcurveto
          81 27 49 41 72 hhcurveto
          71 47 -42 -83 25 hvcurveto
          15 -46 7 -71 -95 vvcurveto
          -62 138 rmoveto
          -31 -66 -149 66 -31 -248 31 68 152 hlineto
          -3 -68 rlineto
          31 hlineto
          endchar
        </CharString>
        <CharString name="Thorn">
          -55 0 31 540 32 56 31 hstem
          139 139 155 138 vstem
          370 31 rmoveto
          -92 540 hlineto
          104 47 -51 -115 4 hvcurveto
          2 -85 -39 -53 -81 -21 23 -28 rcurveline
          151 20 78 63 4 107 3 72 -26 52 -53 32 rrcurveto
          26 -45 -69 13 -93 hhcurveto
          -10 56 -53 callsubr
          -31 324 hlineto
          endchar
        </CharString>
        <CharString name="Tilde">
          783 62 -14 62 hstemhm
          hintmask 01000000
          334 893 rmoveto
          -23 hlineto
          hintmask 10000000
          -32 -12 -19 -16 -27 hhcurveto
          -13 -23 8 16 -35 hvcurveto
          hintmask 01000000
          16 -34 -26 8 -19 hhcurveto
          -53 -43 -51 -56 -11 hvcurveto
          hintmask 10000000
          4 -3 rlineto
          21 hlineto
          hintmask 01000000
          32 11 20 16 29 hhcurveto
          11 23 -8 -16 34 hvcurveto
          hintmask 10000000
          -16 34 27 -8 20 hhcurveto
          27 23 12 23 21 hvcurveto
          18 21 12 24 7 27 rrcurveto
          endchar
        </CharString>
        <CharString name="Tildesmall">
          550 60 -38 -21 49 59 2 -20 hstemhm
          hintmask 10010000
          334 661 rmoveto
          -26 hlineto
          -34 -13 -18 -17 -24 hhcurveto
          -13 -23 8 16 -35 hvcurveto
          hintmask 01100000
          17 -35 -26 8 -18 hhcurveto
          -26 -23 -11 -21 -20 hvcurveto
          -19 -21 -13 -25 -5 -27 3 -3 rcurveline
          25 hlineto
          33 13 18 16 25 hhcurveto
          13 23 -8 -17 33 hvcurveto
          hintmask 10010000
          -17 34 27 -8 19 hhcurveto
          27 23 12 23 21 hvcurveto
          17 20 11 24 7 29 rrcurveto
          endchar
        </CharString>
        <CharString name="Tquoteright">
          78 207 callsubr
          -104 116 hstemhm
          132 callsubr
          51 129 -43 43 hintmask 11011110
          -19 callsubr
          54 -2 rmoveto
          83 7 42 46 83 vvcurveto
          hintmask 10111110
          53 -22 27 -45 -36 -26 -21 -35 -38 22 -20 43 -2 vhcurveto
          hintmask 11011101
          104 callsubr
          hintmask 11011110
          85 callgsubr
        </CharString>
        <CharString name="U">
          57 callgsubr
          hstem
          135 callsubr
          385 41 vstem
          -98 callgsubr
          endchar
        </CharString>
        <CharString name="Uacute">
          57 callgsubr
          238 -20 hstem
          135 callsubr
          385 41 vstem
          -98 callgsubr
          -120 225 rmoveto
          210 callsubr
          -23 -22 -13 -25 -21 vhcurveto
          -128 -147 rlineto
          54 hlineto
          165 101 220 callsubr
          endchar
        </CharString>
        <CharString name="Ubreve">
          57 callgsubr
          55 64 95 -20 hstem
          135 callsubr
          385 41 vstem
          -98 callgsubr
          -186 245 8 callsubr
        </CharString>
        <CharString name="Ucircumflex">
          57 callgsubr
          225 -20 hstem
          135 callsubr
          385 41 vstem
          -98 callgsubr
          -277 256 -96 callsubr
          endchar
        </CharString>
        <CharString name="Udieresis">
          57 callgsubr
          58 135 hstem
          135 callsubr
          18 134 81 134 18 41 vstem
          630 815 rmoveto
          153 callgsubr
          -215 hmoveto
          153 callgsubr
          368 -125 rmoveto
          -230 97 callsubr
          19 -16 9 -26 -35 vvcurveto
          -310 vlineto
          -158 -65 -79 -130 -127 -63 73 146 vhcurveto
          414 93 31 -323 -31 92 -436 vlineto
          -66 29 -56 58 -47 vhcurveto
          -47 58 70 -23 83 hhcurveto
          95 1 68 22 41 45 rrcurveto
          41 45 21 74 104 vvcurveto
          298 vlineto
          34 8 25 17 17 vhcurveto
          7 7 23 3 39 hhcurveto
          endchar
        </CharString>
        <CharString name="Ugrave">
          57 callgsubr
          251 -20 hstem
          135 callsubr
          385 41 vstem
          -98 callgsubr
          -374 242 39 callsubr
          -8 -10 -2 -5 -13 hvcurveto
          -15 29 callsubr
          11 -10 vhcurveto
          118 -120 rlineto
          47 hlineto
          endchar
        </CharString>
        <CharString name="Uhorn">
          237 124 callgsubr
          101 callsubr
          hintmask 10111100
          -38 callsubr
          hintmask 11011100
          46 callsubr
          -89 callgsubr
          endchar
        </CharString>
        <CharString name="Uhungarumlaut">
          57 callgsubr
          53 210 2 -20 197 callgsubr
          385 41 hintmask 11101100
          -98 callgsubr
          -34 250 -70 callsubr
        </CharString>
        <CharString name="Umacron">
          57 callgsubr
          53 66 hstem
          135 callsubr
          385 41 vstem
          -98 callgsubr
          -181 150 33 callsubr
        </CharString>
        <CharString name="Uogonek">
          178 -195 61 120 40 633 31 hstem
          135 callsubr
          87 76 222 41 vstem
          465 -14 rmoveto
          159 12 65 85 192 vvcurveto
          298 vlineto
          34 8 25 17 17 vhcurveto
          7 7 23 3 39 hhcurveto
          31 -230 -31 vlineto
          38 177 callsubr
          -16 9 -26 -35 vvcurveto
          -310 vlineto
          -158 -65 -79 -130 -127 -63 73 146 vhcurveto
          414 93 31 -323 -31 92 -436 vlineto
          -63 27 -56 55 -47 vhcurveto
          55 -47 68 -24 80 -2 rrcurveto
          -40 -38 -20 -37 -35 vvcurveto
          -18 5 -15 11 -12 vhcurveto
          -16 15 20 -8 25 hhcurveto
          25 26 7 13 27 hvcurveto
          27 13 21 14 13 15 -15 20 rcurveline
          -14 -23 -23 -7 -23 hhcurveto
          -37 -18 12 23 20 13 28 26 37 hvcurveto
          endchar
        </CharString>
        <CharString name="Upsilon">
          25 82 callgsubr
          -33 33 -1 -20 hstemhm
          255 68 callsubr
          hintmask 10101010
          669 -51 callsubr
          7 callsubr
          hintmask 10011010
          46 -55 -85 23 -115 hhcurveto
          -25 vlineto
          103 -5 70 -49 39 -93 rrcurveto
          25 -62 12 -92 -121 vvcurveto
          -232 69 callsubr
          31 vlineto
          hintmask 10100110
          -70 callgsubr
          hintmask 11001010
          21 callgsubr
          endchar
        </CharString>
        <CharString name="Upsilondieresis">
          25 82 callgsubr
          -33 33 29 134 hstemhm
          161 133 -39 104 -104 138 -28 144 34 126 hintmask 1011010110000000
          669 -84 callsubr
          vlineto
          hintmask 1101100110000000
          69 callsubr
          31 hlineto
          hintmask 1011001010000000
          -70 callgsubr
          hintmask 1101100110000000
          21 callgsubr
          -160 194 -79 callgsubr
        </CharString>
        <CharString name="Upsilontonos">
          297 82 callgsubr
          -33 33 -6 -20 25 -20 hstemhm
          531 104 -104 138 -34 184 0 126 hintmask 1010001010000000
          945 -51 callsubr
          hintmask 1000110010000000
          7 callsubr
          46 -55 -85 23 -115 hhcurveto
          hintmask 1001001010000000
          -25 vlineto
          103 -5 70 -49 39 -93 rrcurveto
          25 -62 12 -92 -121 vvcurveto
          -232 69 callsubr
          31 -93 233 vlineto
          87 9 81 18 74 vhcurveto
          hintmask 1010001010000000
          115 27 45 57 62 hhcurveto
          20 10 -10 -19 -1 -2 -1 -3 -2 hvcurveto
          81 callsubr
          hintmask 1100001010000000
          21 callgsubr
          -706 48 rmoveto
          hintmask 1001000100000000
          -60 callsubr
        </CharString>
        <CharString name="Uring">
          57 callgsubr
          48 50 100 50 hstem
          135 callsubr
          92 50 100 50 93 41 vstem
          -98 callgsubr
          -228 179 5 callsubr
        </CharString>
        <CharString name="Utilde">
          57 callgsubr
          65 78 -29 77 197 callgsubr
          385 41 hintmask 11011100
          -98 callgsubr
          -204 222 -41 callgsubr
        </CharString>
        <CharString name="V">
          128 5 -21 675 31 hstem
          762 690 rmoveto
          -218 -31 hlineto
          39 21 -3 -6 4 hvcurveto
          4 -6 2 -7 -9 vvcurveto
          -17 -7 -25 -13 -33 vhcurveto
          -164 -423 -183 529 rlineto
          80 31 -309 -31 76 hlineto
          233 -675 rlineto
          92 hlineto
          215 569 20 52 19 32 17 11 rlinecurve
          13 9 24 3 35 -1 rrcurveto
          endchar
        </CharString>
        <CharString name="W">
          144 callgsubr
          hstem
          1047 143 callsubr
          31 20 -3 -6 9 hvcurveto
          5 -4 3 -10 -17 vvcurveto
          -20 -3 -23 -7 -25 vhcurveto
          -91 -346 -174 485 rlineto
          -62 hlineto
          -186 -464 -114 433 rlineto
          77 31 -307 -31 75 hlineto
          171 -679 rlineto
          40 hlineto
          219 534 184 -534 rlineto
          62 hlineto
          149 573 9 33 10 24 11 15 rlinecurve
          8 13 19 24 72 -3 rrcurveto
          endchar
        </CharString>
        <CharString name="Wacute">
          144 callgsubr
          234 -20 hstem
          1047 143 callsubr
          31 20 -3 -6 9 hvcurveto
          5 -4 3 -10 -17 vvcurveto
          -20 -3 -23 -7 -25 vhcurveto
          -91 -346 -174 485 rlineto
          -62 hlineto
          -186 -464 -114 433 rlineto
          77 31 -307 -31 75 hlineto
          171 -679 rlineto
          40 hlineto
          219 534 184 -534 rlineto
          62 hlineto
          149 573 9 33 10 24 11 15 rlinecurve
          8 13 19 24 72 -3 rrcurveto
          -251 221 rmoveto
          210 callsubr
          -23 -22 -13 -25 -21 vhcurveto
          -128 -147 rlineto
          54 hlineto
          165 101 220 callsubr
          endchar
        </CharString>
        <CharString name="Wcircumflex">
          144 callgsubr
          232 -20 hstem
          1047 143 callsubr
          31 20 -3 -6 9 hvcurveto
          5 -4 3 -10 -17 vvcurveto
          -20 -3 -23 -7 -25 vhcurveto
          -91 -346 -174 485 rlineto
          -62 hlineto
          -186 -464 -114 433 rlineto
          77 31 -307 -31 75 hlineto
          171 -679 rlineto
          40 hlineto
          219 534 184 -534 rlineto
          62 hlineto
          149 573 9 33 10 24 11 15 rlinecurve
          8 13 19 24 72 -3 rrcurveto
          -425 263 -96 callsubr
          endchar
        </CharString>
        <CharString name="Wdieresis">
          144 callgsubr
          51 134 hstem
          400 161 callsubr
          vstem
          1047 143 callsubr
          31 20 -3 -6 9 hvcurveto
          5 -4 3 -10 -17 vvcurveto
          -20 -3 -23 -7 -25 vhcurveto
          -91 -346 -174 485 rlineto
          -62 hlineto
          -186 -464 -114 433 rlineto
          77 31 -307 -31 75 hlineto
          171 -679 rlineto
          40 hlineto
          219 534 184 -534 rlineto
          62 hlineto
          149 573 9 33 10 24 11 15 rlinecurve
          8 13 19 24 72 -3 rrcurveto
          -299 149 -79 callgsubr
        </CharString>
        <CharString name="Wgrave">
          144 callgsubr
          244 -20 hstem
          1047 143 callsubr
          31 20 -3 -6 9 hvcurveto
          5 -4 3 -10 -17 vvcurveto
          -20 -3 -23 -7 -25 vhcurveto
          -91 -346 -174 485 rlineto
          -62 hlineto
          -186 -464 -114 433 rlineto
          77 31 -307 -31 75 hlineto
          171 -679 rlineto
          40 hlineto
          219 534 184 -534 rlineto
          62 hlineto
          149 573 9 33 10 24 11 15 rlinecurve
          8 13 19 24 72 -3 rrcurveto
          -519 235 39 callsubr
          -8 -10 -2 -5 -13 hvcurveto
          -15 29 callsubr
          11 -10 vhcurveto
          118 -120 rlineto
          47 hlineto
          endchar
        </CharString>
        <CharString name="X">
          147 callgsubr
          157 184 27 29 22 20 18 10 rlinecurve
          11 19 26 5 35 hhcurveto
          31 -234 -31 36 vlineto
          10 -2 9 -5 9 -7 rrcurveto
          3 -3 2 -4 -5 vvcurveto
          -13 -9 -15 -18 -17 vhcurveto
          -136 -155 -53 75 -54 75 -54 76 rlinecurve
          215 callsubr
          -185 -216 -28 -27 -22 -18 -17 -11 rlinecurve
          -15 -25 -27 -8 -31 hhcurveto
          -31 240 31 -32 vlineto
          -9 2 -9 5 -10 8 rrcurveto
          -5 3 -3 5 6 vvcurveto
          12 8 15 15 17 vhcurveto
          80 93 55 64 30 33 205 callgsubr
        </CharString>
        <CharString name="Xi">
          79 0 104 -104 188 107 108 125 162 -99 99 hstemhm
          71 39 89 26 279 27 87 38 hintmask 1011011110000000
          638 690 rmoveto
          -540 hlineto
          -2 -162 rlineto
          40 hlineto
          -1 5 0 5 5 vvcurveto
          hintmask 1010111110000000
          32 19 16 39 vhcurveto
          345 hlineto
          hintmask 0111011110000000
          44 21 -21 -42 -3 hvcurveto
          39 hlineto
          -108 -63 rmoveto
          -27 hlineto
          -41 -2 -21 -3 vhcurveto
          -264 hlineto
          -5 -3 4 9 -2 hvcurveto
          -1 8 0 10 1 11 rrcurveto
          1 16 0 7 -3 vvcurveto
          -27 -242 27 hlineto
          -2 0 8 -1 17 vhcurveto
          -1 13 0 11 1 9 rrcurveto
          11 1 3 5 5 hhcurveto
          262 hlineto
          5 4 -5 -11 1 hvcurveto
          1 -7 0 -11 -1 -15 rrcurveto
          -1 -17 -1 -7 1 vvcurveto
          27 hlineto
          125 -35 rmoveto
          -38 hlineto
          hintmask 1011011110000000
          -56 1 -22 -28 -43 hhcurveto
          -386 hlineto
          -40 -19 25 50 1 hvcurveto
          hintmask 0111011110000000
          9 -39 -188 585 vlineto
          endchar
        </CharString>
        <CharString name="Y">
          152 callgsubr
          hstem
          307 138 vstem
          493 -94 callgsubr
          endchar
        </CharString>
        <CharString name="Yacute">
          152 callgsubr
          240 -20 hstem
          307 138 vstem
          493 -94 callgsubr
          -115 196 rmoveto
          210 callsubr
          -23 -22 -13 -25 -21 vhcurveto
          -128 -147 rlineto
          54 hlineto
          165 101 220 callsubr
          endchar
        </CharString>
        <CharString name="Ycircumflex">
          152 callgsubr
          229 -20 hstem
          307 138 vstem
          493 -94 callgsubr
          -260 229 -96 callsubr
          endchar
        </CharString>
        <CharString name="Ydieresis">
          44 0 30 629 31 59 134 hstemhm
          218 133 -61 138 5 133 hintmask 11101100
          476 -94 callgsubr
          -130 126 rmoveto
          22 callgsubr
          -36 28 -31 39 37 29 31 36 vhcurveto
          hintmask 11110100
          -215 hmoveto
          22 callgsubr
          -36 28 -31 39 37 29 31 36 vhcurveto
          endchar
        </CharString>
        <CharString name="Ygrave">
          152 callgsubr
          245 -20 hstem
          307 138 vstem
          493 -94 callgsubr
          -372 205 39 callsubr
          -8 -10 -2 -5 -13 hvcurveto
          -15 29 callsubr
          11 -10 vhcurveto
          118 -120 rlineto
          47 hlineto
          endchar
        </CharString>
        <CharString name="Z">
          209 callgsubr
          1 -20 hstemhm
          633 38 hintmask 10110000
          27 callgsubr
          rlineto
          hintmask 11010000
          -1 callgsubr
          endchar
        </CharString>
        <CharString name="Zacute">
          209 callgsubr
          236 -20 hstem
          633 38 vstem
          27 callgsubr
          -1 callgsubr
          -81 641 rmoveto
          210 callsubr
          -23 -22 -13 -25 -21 vhcurveto
          -128 -147 rlineto
          54 hlineto
          165 101 220 callsubr
          endchar
        </CharString>
        <CharString name="Zcaron">
          209 callgsubr
          0 226 hstem
          633 38 vstem
          678 240 rmoveto
          -13 -240 -630 1 420 653 -170 -3 -73 -1 -46 -14 -21 -25 rlinecurve
          -17 -21 -11 -22 -4 -24 -2 -19 -2 -19 -1 -18 rrcurveto
          -44 hlineto
          2 201 568 1 -415 -652 226 2 rlineto
          19 22 5 10 25 hvcurveto
          26 10 20 11 14 13 39 36 20 50 3 65 rrcurveto
          -79 675 -68 callgsubr
        </CharString>
        <CharString name="Zdotaccent">
          209 callgsubr
          57 109 hstem
          324 110 199 38 vstem
          27 callgsubr
          -1 callgsubr
          -297 506 rmoveto
          -10 callsubr
        </CharString>
        <CharString name="Zeta">
          69 0 38 620 31 1 -20 hstemhm
          633 38 hintmask 10110000
          633 240 rmoveto
          -3 -74 -25 -53 -45 -32 -35 -25 -52 -15 -69 -3 rrcurveto
          -185 hlineto
          415 652 rlineto
          hintmask 11010000
          -568 -1 -2 -201 rlineto
          44 hlineto
          7 68 21 47 35 25 rrcurveto
          20 27 43 10 60 hhcurveto
          13 24 -1 -2 37 hvcurveto
          -1 33 26 0 21 hhcurveto
          -420 -653 630 -1 13 240 rlineto
          endchar
        </CharString>
        <CharString name="a">
          -44 callgsubr
          14 callsubr
          hintmask 10011100
          495 33 rmoveto
          -47 hlineto
          -106 callgsubr
          hintmask 00111100
          -19 22 28 -10 35 hhcurveto
          31 27 9 18 21 hvcurveto
          2 20 21 44 39 hvcurveto
          hintmask 10011100
          -39 callgsubr
          hintmask 01011100
          6 callgsubr
        </CharString>
        <CharString name="aacute">
          -44 callgsubr
          245 211 callsubr
          443 673 rmoveto
          23 -21 20 -24 -23 -21 -12 -25 72 callgsubr
          -148 rlineto
          54 hlineto
          165 102 rlineto
          13 7 7 14 19 vvcurveto
          52 -640 -41 callsubr
        </CharString>
        <CharString name="abreve">
          -44 callgsubr
          62 60 85 64 callgsubr
          hintmask 10011111
          495 33 rmoveto
          -47 hlineto
          -106 callgsubr
          hintmask 00111111
          -19 22 28 -10 35 hhcurveto
          31 27 9 18 21 hvcurveto
          2 20 21 44 39 hvcurveto
          hintmask 10011111
          -39 callgsubr
          hintmask 01011111
          -91 callgsubr
          73 437 -100 callsubr
          endchar
        </CharString>
        <CharString name="acircumflex">
          -44 callgsubr
          237 211 callsubr
          291 708 rmoveto
          -93 hlineto
          -121 -175 rlineto
          55 hlineto
          114 97 111 -97 rlineto
          58 hlineto
          80 -500 -41 callsubr
        </CharString>
        <CharString name="acute">
          555 -21 185 -20 hstem
          424 675 rmoveto
          210 callsubr
          -23 -22 -13 -25 -21 vhcurveto
          -128 -147 rlineto
          54 hlineto
          165 101 220 callsubr
          endchar
        </CharString>
        <CharString name="acutecomb">
          -130 486 -21 205 -20 hstem
          408 635 1 callsubr
        </CharString>
        <CharString name="adieresis">
          -44 callgsubr
          62 135 139 callsubr
          -67 135 68 121 -109 135 hintmask 1001101010000000
          438 600 rmoveto
          37 -31 31 -37 -36 -31 -31 -37 -36 31 -31 36 37 31 31 36 vhcurveto
          -215 hmoveto
          hintmask 1001110100000000
          37 -31 31 -37 vhcurveto
          hintmask 1001101100000000
          -36 -31 -31 -37 hvcurveto
          hintmask 1001110100000000
          -36 31 -31 36 vhcurveto
          hintmask 1001101100000000
          37 31 31 36 hvcurveto
          272 -567 rmoveto
          -47 hlineto
          -22 -13 11 23 -1 hvcurveto
          194 vlineto
          -1 82 -12 56 -23 28 rrcurveto
          29 -23 -43 15 -65 hhcurveto
          -35 -32 -7 -14 -30 hvcurveto
          -44 -19 -23 -30 -1 -40 rrcurveto
          -35 28 -23 34 9 7 2 3 8 vhcurveto
          18 7 9 10 -4 12 -1 9 -19 12 2 16 1 37 21 18 41 -2 39 -1 20 -49 -2 -96 -71 -16 rcurveline
          -56 -10 -42 -14 -29 -18 rrcurveto
          hintmask 0011110100000000
          -67 callsubr
          -19 22 28 -10 35 hhcurveto
          31 27 9 18 21 hvcurveto
          2 20 21 44 39 hvcurveto
          hintmask 1001110100000000
          -39 callgsubr
          hintmask 0101110100000000
          6 callgsubr
        </CharString>
        <CharString name="ae">
          118 -15 70 -70 86 158 48 139 55 hstemhm
          302 126 171 127 hintmask 01111100
          305 -34 callsubr
          hintmask 10111100
          19 callsubr
          endchar
        </CharString>
        <CharString name="aeacute">
          137 -15 70 -70 86 158 48 139 55 249 -20 hstemhm
          317 126 171 127 hintmask 01111110
          320 -34 callsubr
          hintmask 10111110
          19 callsubr
          4 399 rmoveto
          210 callsubr
          -23 -22 -13 -25 -21 vhcurveto
          -128 -147 rlineto
          54 hlineto
          165 101 220 callsubr
          endchar
        </CharString>
        <CharString name="afii00208">
          405 210 53 hstem
          1051 217 callgsubr
        </CharString>
        <CharString name="agrave">
          -44 callgsubr
          256 211 callsubr
          495 33 rmoveto
          -47 hlineto
          -106 callgsubr
          hintmask 00111110
          -19 22 28 -10 35 hhcurveto
          31 27 9 18 21 hvcurveto
          2 20 21 44 39 hvcurveto
          hintmask 10011110
          -39 callgsubr
          hintmask 01011110
          -91 callgsubr
          -85 453 39 callsubr
          -8 -10 -2 -5 -13 hvcurveto
          -15 29 callsubr
          11 -10 vhcurveto
          118 -120 rlineto
          47 hlineto
          endchar
        </CharString>
        <CharString name="alpha">
          19 -14 38 -38 105 319 60 199 callgsubr
          hintmask 01110000
          -101 callgsubr
          hintmask 10110000
          -96 callgsubr
          endchar
        </CharString>
        <CharString name="alphatonos">
          19 50 callgsubr
          257 -20 199 callgsubr
          hintmask 01111000
          427 685 rmoveto
          25 -26 15 -27 -21 -18 -13 -27 -13 vhcurveto
          -76 -155 rlineto
          46 hlineto
          100 100 rlineto
          23 23 12 19 13 vvcurveto
          212 -594 188 callgsubr
          -2 7 vhcurveto
          -17 -18 -18 -8 -19 hhcurveto
          -41 -30 27 55 -19 hvcurveto
          129 -12 callsubr
          -9 -47 53 -83 hhcurveto
          -70 -58 -25 -50 -45 hvcurveto
          -24 callsubr
          43 51 -23 60 hhcurveto
          44 41 15 31 38 hvcurveto
          35 27 28 36 21 43 rrcurveto
          -101 13 32 -51 50 hhcurveto
          24 19 12 25 13 hvcurveto
          11 21 6 24 25 vvcurveto
          -237 172 rmoveto
          -1 -9 -31 -19 -61 vhcurveto
          hintmask 10111000
          -100 -32 -40 -50 -48 hhcurveto
          -29 -22 15 31 -13 hvcurveto
          -10 23 -5 163 callsubr
          8 52 17 74 callgsubr
          43 hhcurveto
          29 25 -17 -35 22 hvcurveto
          18 -31 9 -30 -30 vvcurveto
          endchar
        </CharString>
        <CharString name="amacron">
          -44 callgsubr
          63 66 14 callsubr
          hintmask 10011110
          495 33 rmoveto
          -47 hlineto
          -106 callgsubr
          hintmask 00111110
          -19 22 28 -10 35 hhcurveto
          31 27 9 18 21 hvcurveto
          2 20 21 44 39 hvcurveto
          hintmask 10011110
          -39 callgsubr
          hintmask 01011110
          -91 callgsubr
          118 366 33 callsubr
        </CharString>
        <CharString name="ampersand">
          187 -18 71 -71 103 238 72 228 62 hstemhm
          42 118 3 91 125 88 80 76 hintmask 01111111
          788 123 rmoveto
          -16 -12 rlineto
          -17 -28 -21 -9 -14 hhcurveto
          -55 -50 16 32 -47 hvcurveto
          44 53 22 52 51 vvcurveto
          11 -1 12 -3 11 vhcurveto
          49 47 -2 -3 45 hvcurveto
          3 23 7 23 10 22 -2 9 rcurveline
          -80 -5 -65 -1 -50 1 -116 4 rcurveline
          -12 -29 -10 -22 -8 -15 rrcurveto
          90 hlineto
          13 -25 7 -27 -28 vvcurveto
          -29 -11 -30 -22 -31 vhcurveto
          -80 65 -69 76 -57 86 49 32 35 26 21 21 rrcurveto
          36 36 18 38 40 vvcurveto
          67 -46 40 -64 -47 -35 -13 -26 -25 vhcurveto
          -36 -38 rlineto
          -34 -36 -17 -35 -33 vvcurveto
          -35 11 -44 23 -52 vhcurveto
          -103 -50 -52 -65 -80 vvcurveto
          -62 24 -49 47 -36 vhcurveto
          -33 43 54 -16 64 hhcurveto
          hintmask 10111111
          74 66 24 47 58 hvcurveto
          57 -48 57 -22 57 4 66 4 rcurveline
          23 33 31 33 39 33 rrcurveto
          -423 468 rmoveto
          -49 -30 -44 -61 -39 vhcurveto
          -23 51 -11 39 27 vvcurveto
          53 23 27 45 36 21 -30 -35 vhcurveto
          51 -475 rmoveto
          -20 -25 -31 -10 -35 hhcurveto
          -47 -42 18 35 -36 hvcurveto
          -36 36 -18 42 47 vvcurveto
          39 17 35 35 31 vhcurveto
          58 -94 73 -84 87 -75 rrcurveto
          endchar
        </CharString>
        <CharString name="anoteleia">
          -425 326 128 hstem
          45 128 vstem
          109 454 rmoveto
          -35 -29 -29 -35 -35 29 -29 35 35 29 29 35 35 -29 29 -35 hvcurveto
          endchar
        </CharString>
        <CharString name="aogonek">
          -126 -195 61 123 44 -44 82 -50 -21 427 44 139 callsubr
          101 77 -42 121 hintmask 10011110
          495 hmoveto
          hintmask 11001101
          33 -47 vlineto
          -106 callgsubr
          -19 22 28 -10 35 hhcurveto
          31 27 9 18 21 hvcurveto
          2 20 21 44 39 hvcurveto
          hintmask 10011101
          -81 44 vlineto
          224 callgsubr
          hintmask 10011110
          -17 -25 -8 -24 -21 vvcurveto
          -18 6 98 callsubr
          27 hhcurveto
          24 26 7 13 29 hvcurveto
          25 13 20 14 13 15 -15 20 rcurveline
          -14 -22 -23 -7 -23 hhcurveto
          -37 -18 12 23 24 16 33 32 42 hvcurveto
          hintmask 10101101
          -90 122 rmoveto
          6 callgsubr
        </CharString>
        <CharString name="approxequal">
          179 154 49 -36 -21 75 47 50 47 19 49 10 -20 hstemhm
          hintmask 10110100
          734 443 rmoveto
          -52 -73 -61 -26 -49 hhcurveto
          -33 -47 11 23 -61 hvcurveto
          hintmask 10111000
          23 -60 -46 11 -33 hhcurveto
          -57 -62 -24 -48 -67 hvcurveto
          -53 vlineto
          43 27 30 18 16 7 rrcurveto
          16 33 33 8 31 hhcurveto
          33 46 -11 -22 60 hvcurveto
          -22 61 47 -11 33 hhcurveto
          53 61 23 47 69 hvcurveto
          hintmask 10110100
          -109 vmoveto
          -51 -76 -61 -25 -46 hhcurveto
          -33 -47 11 21 -60 hvcurveto
          22 -60 -46 11 -31 hhcurveto
          -59 -63 -23 -45 -67 hvcurveto
          hintmask 01111000
          -54 vlineto
          39 25 29 18 20 9 rrcurveto
          15 34 33 8 31 hhcurveto
          32 46 -11 -23 60 hvcurveto
          hintmask 10111000
          -22 60 46 -11 33 hhcurveto
          63 62 24 47 61 hvcurveto
          endchar
        </CharString>
        <CharString name="aring">
          -44 callgsubr
          59 50 100 50 139 callsubr
          -5 50 91 59 -59 121 hintmask 1001110110000000
          350 630 rmoveto
          55 -45 45 -55 -55 -45 -45 -55 -55 45 -45 55 55 45 45 55 vhcurveto
          -50 hmoveto
          -28 -22 -22 -28 -28 -22 22 28 27 22 23 28 28 22 -23 -27 vhcurveto
          195 -597 rmoveto
          -47 hlineto
          hintmask 0011111001000000
          -106 callgsubr
          -19 22 28 -10 35 hhcurveto
          31 27 9 18 21 hvcurveto
          2 20 21 44 39 hvcurveto
          hintmask 1001111010000000
          -39 callgsubr
          hintmask 0101111010000000
          6 callgsubr
        </CharString>
        <CharString name="aringacute">
          -44 callgsubr
          58 50 100 50 216 -20 139 callsubr
          -5 50 91 59 hintmask 1001111101000000
          495 33 rmoveto
          -47 hlineto
          -106 callgsubr
          hintmask 0011111101000000
          -19 22 28 -10 35 hhcurveto
          31 27 9 18 21 hvcurveto
          2 20 21 44 39 hvcurveto
          hintmask 1001111101000000
          -39 callgsubr
          hintmask 0101111101000000
          -91 callgsubr
          59 395 rmoveto
          55 -45 45 -55 vhcurveto
          hintmask 1001111011000000
          -55 -45 -45 -55 -55 45 -45 55 55 45 45 55 hvcurveto
          -50 hmoveto
          -28 -23 -22 -27 -28 -22 22 28 28 22 22 28 27 23 -22 -28 vhcurveto
          165 272 rmoveto
          210 callsubr
          -23 -22 -13 -25 -21 vhcurveto
          -128 -147 rlineto
          54 hlineto
          165 101 220 callsubr
          endchar
        </CharString>
        <CharString name="arrowupdn">
          423 804 135 hstem
          325 135 80 135 vstem
          675 871 -62 callsubr
          endchar
        </CharString>
        <CharString name="arrowupdnbse">
          48 524 135 hstem
          140 135 80 135 vstem
          490 591 -62 callsubr
          endchar
        </CharString>
        <CharString name="asciicircum">
          -141 265 -21 382 -20 hstem
          274 626 rmoveto
          -48 hlineto
          -177 -382 rlineto
          64 hlineto
          137 311 138 -311 rlineto
          62 hlineto
          endchar
        </CharString>
        <CharString name="asciitilde">
          0 205 -21 24 100 -28 101 9 -20 hstemhm
          hintmask 11010000
          539 390 rmoveto
          -55 -29 -35 -27 -41 hhcurveto
          -20 -38 12 24 -55 hvcurveto
          hintmask 10100000
          25 -55 -40 12 -27 hhcurveto
          -55 -49 -40 -80 -43 hvcurveto
          47 -77 17 31 15 21 11 12 rlinecurve
          21 20 23 11 25 hhcurveto
          25 37 -12 -24 51 hvcurveto
          hintmask 11010000
          -24 51 40 -12 28 hhcurveto
          57 49 37 75 41 hvcurveto
          endchar
        </CharString>
        <CharString name="asterisk">
          -238 325 -21 84 246 84 -20 hstem
          159 81 vstem
          383 593 rmoveto
          23 -23 18 -24 -7 -6 -2 -3 -5 vhcurveto
          -9 -5 -19 -18 -29 -30 -28 -30 -19 -18 -9 -7 1 15 6 26 11 39 rrcurveto
          11 39 6 23 7 vvcurveto
          27 -18 21 -23 -24 -16 -21 -27 -8 5 -24 10 -39 vhcurveto
          11 -39 6 -26 2 -13 -11 7 -20 18 -29 29 -28 30 -18 17 -7 4 rrcurveto
          5 -7 -7 2 -7 hhcurveto
          -21 -23 -19 -21 -18 8 -13 16 -9 hvcurveto
          8 -5 22 -7 37 -8 40 -9 27 -7 13 -6 -62 -19 -49 -13 -36 -9 rrcurveto
          -16 -10 -8 -13 -16 vvcurveto
          -8 3 -7 5 -6 vhcurveto
          -15 7 12 -7 17 hhcurveto
          7 7 2 4 7 hvcurveto
          7 4 18 17 28 30 29 30 20 19 11 7 -2 -13 -6 -27 -11 -39 rrcurveto
          -10 -39 -5 -23 -9 vvcurveto
          -24 18 -22 24 -1 vhcurveto
          20 22 23 24 hvcurveto
          -1 7 -7 22 -12 38 -11 39 -7 27 -2 17 9 -7 20 -18 31 -30 27 -28 18 -16 10 -4 rrcurveto
          -5 5 7 -3 9 hhcurveto
          16 12 7 13 7 hvcurveto
          6 7 3 7 7 vvcurveto
          16 -8 13 -17 10 vhcurveto
          -9 4 -23 6 -39 9 -38 9 -26 8 -14 7 14 5 26 7 39 9 39 9 23 7 8 3 rrcurveto
          17 9 8 13 18 vvcurveto
          endchar
        </CharString>
        <CharString name="at">
          107 -13 57 99 30 298 30 124 56 hstem
          43 55 72 95 388 51 vstem
          704 404 rmoveto
          74 -29 64 -57 54 vhcurveto
          57 -61 -76 28 -90 hhcurveto
          -100 -83 -34 -69 -66 hvcurveto
          -66 -68 -33 -83 -99 vvcurveto
          -99 35 -81 70 -65 vhcurveto
          -64 67 84 -32 99 hhcurveto
          63 59 17 34 54 hvcurveto
          55 34 41 45 29 56 rrcurveto
          -64 hlineto
          -86 -57 -76 -43 -93 hhcurveto
          -89 -73 26 53 -58 hvcurveto
          -61 53 -30 71 87 vvcurveto
          85 28 69 57 55 vhcurveto
          55 57 72 27 86 hhcurveto
          77 64 -24 -47 49 hvcurveto
          43 -43 22 -50 -58 vvcurveto
          -60 -18 -55 -36 -49 vhcurveto
          -46 -33 -30 -23 -26 hhcurveto
          -13 -7 8 17 7 1 8 2 9 hvcurveto
          75 274 rlineto
          -95 hlineto
          -15 -60 rlineto
          -2 hlineto
          45 -7 -27 23 -47 hhcurveto
          -54 -48 -23 -45 -41 hvcurveto
          -41 -45 -21 -50 -55 vvcurveto
          -84 46 -56 80 25 23 7 14 19 vhcurveto
          14 11 17 18 19 26 rrcurveto
          -54 3 24 -27 43 hhcurveto
          25 27 9 17 31 hvcurveto
          27 16 23 18 20 21 rrcurveto
          45 49 23 62 74 vvcurveto
          -266 -1 rmoveto
          -47 -11 -46 -21 -47 vhcurveto
          -60 -28 -30 -30 -33 hhcurveto
          -33 -17 26 51 39 12 45 23 50 hvcurveto
          58 27 30 29 34 hhcurveto
          16 12 -8 -15 9 hvcurveto
          7 -13 3 -15 -17 vvcurveto
          endchar
        </CharString>
        <CharString name="atilde">
          -44 callgsubr
          55 78 -29 77 14 callsubr
          hintmask 10011011
          495 33 rmoveto
          -47 hlineto
          -106 callgsubr
          hintmask 00111011
          -19 22 28 -10 35 hhcurveto
          31 27 9 18 21 hvcurveto
          2 20 21 44 39 hvcurveto
          hintmask 10011011
          -39 callgsubr
          hintmask 01010111
          -91 callgsubr
          103 418 8 callgsubr
          hintmask 10011011
          -35 callsubr
          hintmask 10010111
          52 callsubr
          hintmask 10011011
          -47 callgsubr
          hintmask 10010111
          -34 callgsubr
          hintmask 10011011
          53 callgsubr
          hintmask 10010111
          24 callgsubr
        </CharString>
        <CharString name="b">
          -57 21 -21 389 91 192 33 hstem
          67 125 222 128 vstem
          542 291 rmoveto
          55 -18 44 -34 36 vhcurveto
          37 -34 -43 17 -54 hhcurveto
          -80 -1 -55 -29 -32 -60 rrcurveto
          315 -207 -33 48 vlineto
          22 11 -11 -23 1 hvcurveto
          -638 28 vlineto
          26 22 44 -26 47 -13 47 1 rlinecurve
          83 2 68 33 55 64 rrcurveto
          52 60 25 70 78 vvcurveto
          -128 -59 rmoveto
          -111 -39 -59 -80 -8 vhcurveto
          -42 -4 -35 18 -26 42 rrcurveto
          228 vlineto
          35 19 32 16 44 hhcurveto
          43 33 -16 -32 22 hvcurveto
          19 -28 10 -37 -44 vvcurveto
          endchar
        </CharString>
        <CharString name="backslash">
          -10 21 -21 720 -20 hstem
          169 720 rmoveto
          -90 hlineto
          371 -720 rlineto
          90 hlineto
          endchar
        </CharString>
        <CharString name="bar">
          -386 21 -21 705 -20 hstem
          90 75 vstem
          165 192 callsubr
          endchar
        </CharString>
        <CharString name="beta">
          -75 -219 -21 224 76 284 94 236 29 hstemhm
          63 78 -78 121 207 98 -73 122 hintmask 11111001
          538 199 rmoveto
          81 -51 78 -75 33 vhcurveto
          hintmask 11111010
          47 27 30 61 56 vvcurveto
          112 -69 56 -139 -81 -58 -26 -51 -35 vhcurveto
          -29 -42 -15 -63 -83 vvcurveto
          -35 2 -51 3 -67 vhcurveto
          3 -67 2 -50 -34 vvcurveto
          -37 -3 -54 -7 -72 vhcurveto
          -6 -73 -3 -54 -35 vvcurveto
          -33 24 -16 49 vhcurveto
          hintmask 11110110
          38 19 12 23 17 -8 43 -15 70 hvcurveto
          hintmask 11111001
          -15 70 -6 57 1 43 18 -31 25 -27 33 -21 rrcurveto
          -21 33 33 -11 35 hhcurveto
          63 53 20 40 41 hvcurveto
          42 40 21 52 63 vvcurveto
          -122 35 rmoveto
          -45 -11 -40 -23 -33 vhcurveto
          -37 -26 -34 -19 -43 hhcurveto
          -55 -46 28 57 -37 hvcurveto
          1 136 7 103 12 70 rrcurveto
          147 25 47 73 70 hhcurveto
          26 22 -11 -22 17 hvcurveto
          hintmask 11111010
          15 -21 8 -23 -27 vvcurveto
          -28 -8 -28 -16 -28 vhcurveto
          -32 -19 -23 -16 -27 -9 -28 7 -12 hhcurveto
          -22 -11 -17 -34 -33 18 -17 37 39 31 9 17 25 hvcurveto
          hintmask 11111001
          33 -34 17 -45 -57 vvcurveto
          endchar
        </CharString>
        <CharString name="braceleft">
          -79 214 94 vstem
          418 -171 rmoveto
          -73 11 -37 42 73 vvcurveto
          171 vlineto
          43 -6 31 -11 19 vhcurveto
          -15 23 -29 17 -44 10 42 8 29 15 15 23 rrcurveto
          13 19 6 29 40 vvcurveto
          181 vlineto
          38 7 28 15 19 vhcurveto
          17 21 29 15 42 8 -72 1 -51 -9 -29 -17 rrcurveto
          -35 -21 -17 -40 -58 vvcurveto
          -183 vlineto
          -35 -6 -25 -13 -16 vhcurveto
          -14 -18 -27 -14 -39 -9 41 -9 26 -14 13 -17 rrcurveto
          13 -17 6 -26 -37 vvcurveto
          -167 vlineto
          -63 15 -43 31 -21 vhcurveto
          29 -20 52 -9 77 3 rrcurveto
          endchar
        </CharString>
        <CharString name="braceright">
          -82 251 94 vstem
          444 269 rmoveto
          -39 9 -27 14 -14 18 rrcurveto
          -13 16 -6 25 35 vvcurveto
          183 vlineto
          58 -17 40 -34 21 vhcurveto
          -29 17 -50 9 -71 -1 rrcurveto
          81 -16 26 -38 -75 vvcurveto
          -181 vlineto
          -40 6 -29 13 -19 vhcurveto
          15 -23 28 -15 43 -8 -43 -10 -29 -17 -15 -23 rrcurveto
          -12 -19 -6 -31 -43 vvcurveto
          -171 vlineto
          -73 -36 -42 -71 -11 vhcurveto
          75 -3 53 10 29 21 rrcurveto
          29 21 15 42 62 vvcurveto
          167 vlineto
          37 6 27 11 15 vhcurveto
          13 18 28 14 41 9 rrcurveto
          endchar
        </CharString>
        <CharString name="bracketleft">
          -254 -194 36 787 37 hstem
          91 120 vstem
          351 -158 rmoveto
          -140 787 140 37 -260 -860 260 hlineto
          endchar
        </CharString>
        <CharString name="bracketright">
          -254 -194 36 787 37 hstem
          178 120 vstem
          298 666 rmoveto
          -260 -37 140 -787 -140 -36 260 hlineto
          endchar
        </CharString>
        <CharString name="breve">
          -281 533 60 85 -20 hstem
          313 671 -100 callsubr
          endchar
        </CharString>
        <CharString name="brokenbar">
          -424 7 -21 614 -20 hstem
          79 59 vstem
          138 600 rmoveto
          -59 -257 59 hlineto
          -100 vmoveto
          -59 -257 59 hlineto
          endchar
        </CharString>
        <CharString name="bullet">
          -47 190 -21 337 -20 hstem
          466 338 rmoveto
          45 -17 40 -33 33 vhcurveto
          33 -33 -40 17 -45 hhcurveto
          -47 -40 -17 -33 -33 hvcurveto
          -33 -33 -17 -40 -45 vvcurveto
          -47 17 -40 33 -33 vhcurveto
          -33 33 40 -16 47 hhcurveto
          45 40 16 33 33 hvcurveto
          33 33 17 40 47 vvcurveto
          endchar
        </CharString>
        <CharString name="c">
          145 callgsubr
          -77 callsubr
          endchar
        </CharString>
        <CharString name="cacute">
          145 callgsubr
          252 -20 -77 callsubr
          214 417 rmoveto
          210 callsubr
          -23 -22 -13 -25 -21 vhcurveto
          -128 -147 rlineto
          54 hlineto
          165 101 220 callsubr
          endchar
        </CharString>
        <CharString name="care">
          55 -11 27 -13 -21 273 26 132 36 217 38 hstemhm
          20 61 299 64 171 65 hintmask 01111111
          254 468 rmoveto
          -13 -26 -23 -6 -20 hhcurveto
          -34 -26 13 27 -19 hvcurveto
          -17 23 -8 29 35 vvcurveto
          60 26 30 53 31 31 -15 -9 3 vhcurveto
          2 -5 1 -10 1 -17 5 -5 rcurveline
          15 hlineto
          5 4 1 27 3 26 5 23 rlinecurve
          13 -21 -26 6 -31 hhcurveto
          -21 -15 -3 -5 -11 hvcurveto
          -42 -17 -29 -18 -17 -17 rrcurveto
          -20 -21 -10 -31 -42 vvcurveto
          -85 54 -52 87 33 29 7 14 26 vhcurveto
          15 21 rlineto
          -189 -473 rmoveto
          38 hlineto
          450 701 -3 5 rlineto
          -39 hlineto
          hintmask 10111111
          -450 -699 rlineto
          hintmask 01111111
          309 145 rmoveto
          -41 14 -34 27 -28 vhcurveto
          hintmask 10111111
          -28 28 34 -14 40 hhcurveto
          44 37 14 29 30 hvcurveto
          31 29 15 37 45 vvcurveto
          83 -60 55 -84 -45 -37 -14 -27 -30 vhcurveto
          -29 -27 -15 -35 -44 vvcurveto
          64 20 rmoveto
          67 26 34 53 32 24 -15 -31 17 vhcurveto
          13 -23 6 -30 -36 vvcurveto
          -69 -26 -35 -51 -33 -24 16 32 -17 vhcurveto
          -13 24 -7 30 36 vvcurveto
          endchar
        </CharString>
        <CharString name="caron">
          555 -21 175 -20 hstem
          358 709 -68 callgsubr
        </CharString>
        <CharString name="ccaron">
          145 callgsubr
          242 -20 117 callgsubr
          -57 12 -47 24 -36 vhcurveto
          -42 28 41 -21 54 hhcurveto
          26 27 6 13 29 hvcurveto
          12 -21 rlineto
          -46 -32 -51 -22 -70 hhcurveto
          -74 -57 22 45 -38 hvcurveto
          -36 40 -17 56 71 vvcurveto
          -1 74 28 61 56 48 48 41 54 22 60 2 68 4 47 -28 4 -51 1 -41 -33 -19 -40 3 -19 2 -23 19 5 15 4 9 22 13 -3 16 rrcurveto
          11 -3 -11 7 -19 hhcurveto
          -28 -2 -26 -13 -24 -26 rrcurveto
          -30 -32 -15 -43 -53 vvcurveto
          293 451 -68 callgsubr
        </CharString>
        <CharString name="ccedilla">
          -209 -225 46 71 43 50 70 372 40 hstem
          27 122 107 94 vstem
          253 -15 rmoveto
          67 1 51 22 31 45 -12 21 rcurveline
          -13 -29 -27 -6 -26 hhcurveto
          -54 -41 21 42 -28 hvcurveto
          -24 36 -12 47 57 vvcurveto
          53 15 43 30 32 vhcurveto
          24 26 26 13 28 2 rrcurveto
          19 11 -7 -11 3 hvcurveto
          3 -16 -22 -13 -4 -9 -5 -15 23 -19 19 -2 40 -3 33 19 -1 41 -4 51 -47 28 -68 -4 -60 -2 -54 -22 -48 -41 -56 -48 -28 -61 1 -74 rrcurveto
          -71 17 -56 36 -40 vhcurveto
          32 -37 44 -22 57 -6 -40 -90 rcurveline
          -27 callsubr
          116 callgsubr
          endchar
        </CharString>
        <CharString name="ccircumflex">
          145 callgsubr
          243 -20 -77 callsubr
          127 452 -96 callsubr
          endchar
        </CharString>
        <CharString name="cdotaccent">
          145 callgsubr
          63 94 -77 callsubr
          139 321 -16 callsubr
        </CharString>
        <CharString name="cedilla">
          -225 46 71 43 57 -20 hstem
          206 94 vstem
          300 -140 rmoveto
          116 callgsubr
          28 63 rlineto
          -41 hlineto
          -42 -95 -27 callsubr
          endchar
        </CharString>
        <CharString name="cedillaalt">
          -155 35 0 60 hstemhm
          hintmask 01000000
          258 -90 rmoveto
          1 15 -7 13 -13 12 -16 14 -22 6 -27 -1 -15 -1 -16 -5 -17 -9 rrcurveto
          -4 -3 -2 -3 -4 vvcurveto
          -7 6 -2 13 2 vhcurveto
          2 8 8 1 8 hhcurveto
          27 13 -10 -19 -21 -16 -10 -31 hvcurveto
          -13 -31 9 -9 hhcurveto
          -11 -6 -4 -9 -7 5 -5 9 -4 hvcurveto
          hintmask 10000000
          -10 24 23 -5 22 hhcurveto
          27 21 7 15 17 hvcurveto
          15 13 8 14 1 16 rrcurveto
          endchar
        </CharString>
        <CharString name="cent">
          -222 52 81 vstem
          377 480 rmoveto
          -14 14 -26 10 -39 6 12 98 rcurveline
          -12 1 -11 0 -11 -1 -10 -85 rcurveline
          -10 -15 vlineto
          -54 -47 -19 -39 -39 hvcurveto
          -39 -38 -20 -47 -55 vvcurveto
          -53 15 -44 31 -36 vhcurveto
          31 -36 40 -21 49 -7 -15 -118 rcurveline
          1 -3 11 0 21 3 14 101 rcurveline
          1 14 50 1 42 15 33 29 rlinecurve
          7 6 3 6 6 vvcurveto
          7 -4 4 -9 -5 -7 -3 -5 -8 vhcurveto
          -32 -21 -32 -11 -32 1 rrcurveto
          -2 hlineto
          38 323 12 -6 8 -7 3 -9 rlinecurve
          -21 7 13 -10 19 hhcurveto
          17 15 19 17 9 -3 8 -7 7 hvcurveto
          -154 -321 rmoveto
          -59 17 -30 53 -1 87 -1 46 11 39 23 33 23 33 28 17 35 1 rrcurveto
          10 hlineto
          endchar
        </CharString>
        <CharString name="centsuperior">
          -321 239 -21 385 -20 hstem
          40 58 68 24 vstem
          274 318 rmoveto
          -29 -13 -22 -7 -17 1 -16 1 rcurveline
          218 vlineto
          27 26 -16 -12 5 hvcurveto
          1 -1 1 -10 3 -19 3 -4 rcurveline
          10 hlineto
          4 3 3 24 3 24 4 23 rlinecurve
          12 -21 -26 6 -29 hhcurveto
          -14 21 hlineto
          11 1 10 2 10 vhcurveto
          -5 3 rlineto
          -18 hlineto
          -5 -3 rlineto
          1 -9 0 -11 -12 vvcurveto
          -24 vlineto
          -7 -1 -17 -8 -29 -15 rrcurveto
          -49 -23 -24 -40 -56 vvcurveto
          -76 50 -50 76 -5 vhcurveto
          -13 0 -17 -1 -20 vhcurveto
          5 -2 rlineto
          18 hlineto
          5 2 rlineto
          -2 17 -1 16 13 vvcurveto
          4 vlineto
          29 2 26 7 23 11 12 20 rcurveline
          -114 -4 rmoveto
          -21 7 -18 16 -13 26 rrcurveto
          -11 22 -5 24 25 vvcurveto
          57 23 30 45 3 vhcurveto
          endchar
        </CharString>
        <CharString name="ch202">
          -391 endchar
        </CharString>
        <CharString name="chi">
          -149 -228 113 -113 137 -127 -21 565 142 -118 118 hstemhm
          hintmask 01010000
          536 -168 rmoveto
          37 -26 40 -35 -7 -9 -4 -8 -12 vhcurveto
          hintmask 10010000
          -8 -11 -10 -4 -8 hhcurveto
          -39 -33 74 149 -27 hvcurveto
          191 346 rlineto
          -139 hlineto
          -21 -54 -35 -76 -49 -98 -17 76 -18 53 -17 31 rrcurveto
          55 -31 -43 27 -57 hhcurveto
          -55 -27 -25 -50 -32 21 -35 29 hvcurveto
          hintmask 10001000
          16 11 24 27 hhcurveto
          37 30 -20 -40 24 hvcurveto
          13 -21 15 -37 16 -51 -86 -165 -77 -136 -67 -108 rrcurveto
          135 hlineto
          64 128 48 96 33 63 4 -40 5 -40 5 -40 8 -53 13 -41 18 -28 rrcurveto
          hintmask 00110000
          -37 24 33 -19 41 hhcurveto
          22 21 6 13 19 hvcurveto
          22 13 11 18 21 vvcurveto
          endchar
        </CharString>
        <CharString name="circumflex">
          555 -21 175 -20 hstem
          235 709 -96 callsubr
          endchar
        </CharString>
        <CharString name="colon">
          -396 -14 123 161 123 hstem
          60 125 vstem
          185 331 rmoveto
          33 -30 29 -33 -33 -29 -29 -33 -33 29 -28 33 33 30 28 33 vhcurveto
          -283 vmoveto
          31 -30 30 -33 -33 -29 -28 -33 -33 29 -29 33 33 30 29 33 vhcurveto
          endchar
        </CharString>
        <CharString name="colonmonetary">
          17 -50 -21 55 37 448 -20 224 33 -33 77 hstemhm
          39 152 hintmask 11101100
          612 158 rmoveto
          -13 -33 -27 -30 -40 -27 rrcurveto
          -31 -45 -46 -16 -47 hhcurveto
          -41 -36 11 21 -31 hvcurveto
          178 596 19 -10 18 -15 17 -20 rlinecurve
          13 -17 13 -16 13 -16 185 callsubr
          -36 27 -29 16 -35 12 -39 8 rlinecurve
          16 54 rlineto
          -33 hlineto
          -15 -49 -13 2 -14 1 -15 1 rlinecurve
          14 45 rlineto
          -34 hlineto
          hintmask 11110100
          -13 -44 rlineto
          -10 hlineto
          -89 -75 -32 -65 -61 hvcurveto
          -63 -69 -33 -88 -1 -107 -1 -120 45 -96 91 -73 -38 -127 rcurveline
          37 hlineto
          31 105 11 -7 12 -6 11 -6 rlinecurve
          -26 -86 rlineto
          37 hlineto
          22 72 29 -10 30 -6 31 -1 rlinecurve
          107 -5 79 29 51 63 31 57 rcurveline
          -372 -50 rmoveto
          -11 11 -9 12 -8 15 165 555 rcurveline
          15 -1 13 -3 12 -4 rrcurveto
          -226 -493 rmoveto
          -11 43 -6 57 71 188 callsubr
          rrcurveto
          endchar
        </CharString>
        <CharString name="comma">
          -405 -130 -21 142 102 -73 -21 hstemhm
          44 145 hintmask 11010000
          189 3 rmoveto
          2 29 -7 22 -17 17 rrcurveto
          15 -16 -20 7 -25 hhcurveto
          -32 -30 -23 -36 -29 14 -14 29 hvcurveto
          hintmask 10110000
          7 15 8 7 hhcurveto
          14 6 -10 -20 -3 hvcurveto
          -4 -29 -28 -31 -53 -34 18 -26 rcurveline
          68 31 51 59 4 64 rrcurveto
          endchar
        </CharString>
        <CharString name="commaaccent">
          -641 -229 -21 90 104 hstemhm
          -59 117 -40 40 hintmask 11100000
          -55 -250 rmoveto
          -26 callgsubr
          hintmask 11010000
          17 callgsubr
          5 -17 rlineto
          endchar
        </CharString>
        <CharString name="commasuperior">
          -491 206 -21 165 -20 hstem
          111 350 rmoveto
          -27 -8 -20 -6 -13 -3 -9 -52 -18 -47 -27 -41 8 -8 rcurveline
          25 11 33 39 30 49 26 59 rlinecurve
          endchar
        </CharString>
        <CharString name="congruent">
          -141 153 55 73 55 88 56 5 56 14 -20 hstemhm
          hintmask 11101000
          451 555 rmoveto
          -50 -27 -33 -25 -37 hhcurveto
          -17 -34 10 20 -49 hvcurveto
          hintmask 11110000
          21 -49 -35 10 -22 hhcurveto
          -29 -26 -11 -21 -23 hvcurveto
          -15 -14 -18 -23 -21 -32 33 -36 rcurveline
          17 27 14 18 10 10 rrcurveto
          17 19 20 9 21 hhcurveto
          13 22 -6 -13 31 hvcurveto
          -28 73 47 -14 20 hhcurveto
          50 43 32 64 35 hvcurveto
          hintmask 11101000
          1 -184 rmoveto
          -470 -55 470 hlineto
          -73 vmoveto
          -470 -55 470 hlineto
          endchar
        </CharString>
        <CharString name="copyright">
          94 -17 39 115 40 331 36 111 40 hstem
          12 40 126 87 418 40 vstem
          368 -17 41 callsubr
          41 callgsubr
          134 221 rmoveto
          -13 -20 -11 -14 -7 -7 -8 -7 -11 -6 -13 -5 rrcurveto
          -5 -13 -14 -2 -15 hhcurveto
          -22 -21 6 12 -19 hvcurveto
          -20 12 -16 20 -13 28 rrcurveto
          -14 28 -7 32 36 vvcurveto
          50 12 38 23 28 vhcurveto
          27 24 28 14 32 hhcurveto
          20 17 -5 -9 14 hvcurveto
          14 -10 11 -12 8 -14 4 -9 6 -17 6 -23 rrcurveto
          33 106 hlineto
          -9 3 -12 4 -16 4 -35 10 -20 4 -5 1 rrcurveto
          2 -13 -13 1 -12 hhcurveto
          -39 -34 -8 -16 -31 hvcurveto
          -30 -16 -24 -25 -19 -34 rrcurveto
          -18 -34 -9 -37 -41 vvcurveto
          -47 13 -41 27 -36 vhcurveto
          -48 35 49 -24 63 hhcurveto
          29 27 5 10 24 hvcurveto
          24 10 20 13 16 16 9 10 7 13 7 17 rrcurveto
          endchar
        </CharString>
        <CharString name="currency">
          -141 113 45 -36 -21 392 47 11 -20 hstemhm
          34 59 317 56 hintmask 10011100
          466 326 rmoveto
          51 -15 45 -31 37 vhcurveto
          45 45 -8 7 -8 7 -9 7 rlinecurve
          -17 17 -8 8 1 1 -41 -51 rcurveline
          hintmask 10101100
          -38 27 -42 14 -45 -1 -47 -1 -42 -13 -36 -26 rrcurveto
          hintmask 01011100
          -41 51 1 -1 -8 -8 -17 -15 rlinecurve
          -16 -15 -8 -7 -1 -1 45 -45 rcurveline
          -31 -37 -15 -45 -51 vvcurveto
          -51 15 -44 31 -37 vhcurveto
          -45 -45 -1 -2 8 -8 17 -15 rlinecurve
          8 -7 8 -8 9 -8 41 52 rcurveline
          hintmask 10101100
          -27 37 41 -13 47 hhcurveto
          46 42 13 27 37 hvcurveto
          hintmask 01101100
          41 -52 3 3 9 8 15 13 rlinecurve
          15 14 8 8 -1 2 -45 45 rcurveline
          31 37 15 44 51 vvcurveto
          -56 -1 rmoveto
          -47 -16 -39 -32 -33 vhcurveto
          hintmask 10101100
          -32 -31 -37 -16 -43 hhcurveto
          -42 -37 16 32 -32 hvcurveto
          -31 33 -16 39 47 vvcurveto
          46 15 39 31 33 vhcurveto
          33 31 38 17 43 hhcurveto
          42 37 -17 -33 32 hvcurveto
          32 -33 16 -39 -46 vvcurveto
          endchar
        </CharString>
        <CharString name="d">
          195 callgsubr
          187 32 193 callgsubr
          hintmask 01111100
          25 callsubr
          hintmask 10111100
          121 callgsubr
          hintmask 01111100
          79 vmoveto
          hintmask 10111100
          54 callsubr
          endchar
        </CharString>
        <CharString name="dagger">
          -52 -133 -21 550 201 callsubr
          -115 84 hintmask 11011000
          563 468 rmoveto
          43 -31 30 -37 -7 -7 -1 -2 -7 vhcurveto
          -1 -24 -11 -49 -21 vhcurveto
          hintmask 10111000
          140 callsubr
          138 callsubr
          hintmask 10110100
          16 -33 9 -20 1 -7 rrcurveto
          6 -17 3 -25 -33 vvcurveto
          -45 -53 29 23 -47 hvcurveto
          hintmask 11011000
          136 callgsubr
          hintmask 10110100
          17 47 50 19 48 hhcurveto
          1 -44 -3 -84 -7 -123 -7 -136 -8 -84 -8 -33 rrcurveto
          -3 -8 -1 -8 -7 vvcurveto
          -40 30 -23 39 41 29 25 40 7 -1 7 -2 7 vhcurveto
          -7 38 -9 85 -9 131 -9 131 -4 84 3 35 23 -1 23 -4 25 -7 10 -3 24 -8 39 -13 rrcurveto
          hintmask 11011000
          194 callsubr
          29 43 hvcurveto
          endchar
        </CharString>
        <CharString name="daggerdbl">
          -52 -218 -21 166 144 -89 49 365 201 callsubr
          -125 103 -84 63 hintmask 1101011000000000
          563 1 rmoveto
          43 -31 27 -37 -7 -7 -1 -2 -7 vhcurveto
          hintmask 1010110100000000
          -66 -22 -48 -12 -30 -3 -1 11 2 28 5 43 7 55 4 41 2 27 -2 29 -4 40 -7 53 -5 41 -2 26 1 11 23 -1 23 -4 25 -7 10 -3 24 -8 39 -13 rrcurveto
          hintmask 1101011000000000
          194 callsubr
          29 43 43 -31 30 -37 -7 -7 -1 -2 -7 hvcurveto
          -1 -24 -11 -49 -21 vhcurveto
          hintmask 1100110010000000
          140 callsubr
          hintmask 1100111000000000
          138 callsubr
          16 -33 9 -20 1 -7 rrcurveto
          hintmask 1100110010000000
          6 -17 3 -25 -33 vvcurveto
          -45 -53 29 23 -47 hvcurveto
          hintmask 1101011000000000
          136 callgsubr
          hintmask 1100110010000000
          17 47 50 19 48 hhcurveto
          -8 -2 -26 -5 -43 vhcurveto
          hintmask 1011010100000000
          -6 -50 -4 -41 -2 -32 2 -31 4 -41 6 -51 rrcurveto
          hintmask 1011010010000000
          5 -46 2 -27 -9 vvcurveto
          -48 -50 20 17 -47 hvcurveto
          hintmask 1101011000000000
          2 -7 -7 1 -7 hhcurveto
          -37 -33 -27 -43 -43 33 -31 37 7 7 1 3 7 hvcurveto
          hintmask 1011010010000000
          47 21 53 29 45 1 rrcurveto
          -32 -3 -25 -6 -19 vhcurveto
          -1 -6 -9 -20 -16 -33 rrcurveto
          hintmask 1011011000000000
          -6 -12 -3 -11 -10 vvcurveto
          -35 26 -18 51 49 24 18 35 10 -3 11 -5 12 vhcurveto
          -19 37 -9 19 -1 3 rrcurveto
          hintmask 1011010010000000
          -6 19 -2 25 2 32 22 -1 24 -6 27 -11 73 -33 rcurveline
          hintmask 1101011000000000
          194 callsubr
          31 43 hvcurveto
          endchar
        </CharString>
        <CharString name="dcaron">
          195 callgsubr
          187 32 59 -20 193 callgsubr
          97 145 hintmask 01111111
          25 callsubr
          hintmask 10111111
          121 callgsubr
          hintmask 01111111
          79 vmoveto
          hintmask 10111111
          54 callsubr
          363 310 -57 callgsubr
        </CharString>
        <CharString name="dcroat">
          195 callgsubr
          66 36 85 32 193 callgsubr
          -121 195 hintmask 10111101
          585 538 rmoveto
          36 vlineto
          hintmask 10111110
          -74 117 -202 -32 47 hlineto
          21 12 -12 -22 1 hvcurveto
          -51 -143 -36 143 -91 vlineto
          -20 7 rlineto
          11 -28 -26 7 -26 hhcurveto
          -69 -57 -25 -51 -45 hvcurveto
          -45 -50 -24 -63 -1 -75 -1 -59 15 -48 31 -39 121 callgsubr
          hintmask 01111110
          -81 198 33 -54 vlineto
          -13 -7 7 15 -3 hvcurveto
          480 vlineto
          hintmask 10111101
          -121 -375 rmoveto
          54 callsubr
          endchar
        </CharString>
        <CharString name="degree">
          -293 383 35 187 35 hstem
          40 56 157 55 vstem
          308 511 rmoveto
          39 -13 31 -26 23 vhcurveto
          24 -26 -32 12 -37 hhcurveto
          -37 -32 -12 -24 -26 hvcurveto
          -26 -23 -13 -31 -39 vvcurveto
          -80 59 -48 75 76 58 48 80 vhcurveto
          -55 hmoveto
          -56 -34 -37 -45 -45 -33 37 56 56 33 38 45 45 34 -38 -56 vhcurveto
          endchar
        </CharString>
        <CharString name="delta">
          -55 -16 31 383 33 279 -20 hstemhm
          44 132 -58 58 234 131 hintmask 11101100
          541 228 rmoveto
          71 -32 64 -65 57 vhcurveto
          -24 21 -60 40 -97 59 rrcurveto
          -65 39 -33 34 28 vvcurveto
          1 9 17 6 rlineto
          45 94 -57 -114 142 hvcurveto
          13 5 16 13 18 19 rrcurveto
          19 19 9 17 13 vvcurveto
          27 -43 31 -85 35 vhcurveto
          31 -77 -57 15 -36 hhcurveto
          -33 -28 -6 -13 -21 hvcurveto
          -27 -15 -14 -22 -31 vvcurveto
          -31 33 -39 65 -45 vhcurveto
          48 -30 48 -30 47 -30 rrcurveto
          9 -27 -29 4 -29 hhcurveto
          -67 -56 -22 -44 -43 hvcurveto
          hintmask 11110100
          -43 -43 -21 -56 -67 vvcurveto
          -63 23 -52 46 -41 vhcurveto
          -39 43 54 -20 63 hhcurveto
          72 62 22 44 52 hvcurveto
          55 47 27 59 72 vvcurveto
          -131 42 rmoveto
          -49 -12 -52 -23 -54 vhcurveto
          -67 -29 -36 -33 -42 hhcurveto
          -33 -25 18 35 -16 hvcurveto
          -12 27 -6 32 38 vvcurveto
          55 10 50 20 43 vhcurveto
          57 26 37 28 49 hhcurveto
          61 31 -43 -85 hvcurveto
          endchar
        </CharString>
        <CharString name="dialytika">
          538 135 hstem
          -5 135 80 135 vstem
          345 605 -62 callsubr
          endchar
        </CharString>
        <CharString name="dieresis">
          82 536 134 hstem
          193 161 callsubr
          vstem
          541 603 -79 callgsubr
        </CharString>
        <CharString name="dieresistonos">
          -53 531 130 -130 198 hstemhm
          64 130 171 128 hintmask 10110000
          493 598 rmoveto
          33 -29 30 -35 -35 -29 -28 -35 -37 29 -30 35 35 29 31 36 vhcurveto
          -117 92 rmoveto
          hintmask 01110000
          25 -26 14 -27 -21 -17 -13 104 callgsubr
          45 hlineto
          102 105 rlineto
          21 20 10 17 14 vvcurveto
          -182 -92 rmoveto
          hintmask 10110000
          33 -31 30 -33 -35 -31 -28 -35 -36 31 -31 35 33 31 31 36 vhcurveto
          endchar
        </CharString>
        <CharString name="divide">
          -47 10 113 105 55 105 115 hstem
          241 114 vstem
          355 444 rmoveto
          32 -28 27 -29 -31 -26 -30 -29 -28 26 -28 31 29 28 25 31 vhcurveto
          188 -161 rmoveto
          -494 -55 494 hlineto
          -188 -160 rmoveto
          28 -28 27 -29 -31 -26 -27 -28 -31 26 -27 31 29 28 26 32 vhcurveto
          endchar
        </CharString>
        <CharString name="dollar">
          -93 -93 -21 98 51 584 48 54 -20 hstemhm
          51 113 79 48 -48 209 -65 115 hintmask 11111101
          291 721 rmoveto
          -48 -58 hlineto
          -48 -7 -39 -17 -33 -26 rrcurveto
          -48 -39 -24 -54 -71 vvcurveto
          -80 52 -57 82 -24 vhcurveto
          58 -19 rlineto
          -234 vlineto
          -71 -65 46 91 -13 hvcurveto
          -36 -146 hlineto
          -28 48 59 -14 70 hhcurveto
          8 -98 48 101 hlineto
          51 7 44 17 35 26 56 42 28 58 -3 76 -4 76 -53 63 -81 22 -73 20 rcurveline
          225 vlineto
          54 36 -17 -37 17 hvcurveto
          9 -19 6 -26 3 -32 rrcurveto
          hintmask 11111010
          36 177 -27 hlineto
          -4 -12 -10 -3 -18 5 rrcurveto
          hintmask 11111101
          -35 9 -34 5 -33 -2 rrcurveto
          -48 -260 rmoveto
          -46 7 -33 41 39 vvcurveto
          56 27 45 52 17 vhcurveto
          68 -364 rmoveto
          51 -15 25 -30 -43 vvcurveto
          -63 -39 -41 -57 -15 vhcurveto
          213 vlineto
          endchar
        </CharString>
        <CharString name="dollarsuperior">
          -321 232 -21 508 -20 hstem
          29 51 68 23 75 53 vstem
          171 273 rmoveto
          79 9 49 50 77 vvcurveto
          34 -13 25 -27 16 vhcurveto
          -19 11 -29 7 -40 4 rrcurveto
          153 vlineto
          28 23 -9 -17 18 hvcurveto
          3 -23 1 -17 1 -13 4 -4 rcurveline
          11 hlineto
          4 4 2 31 3 19 2 14 2 7 rlinecurve
          -2 5 -23 15 -34 9 -43 1 rlinecurve
          18 1 11 1 5 vhcurveto
          -5 4 rlineto
          -18 hlineto
          -5 -4 1 -7 1 -12 1 -16 rlinecurve
          -79 -11 -40 -40 -71 vvcurveto
          -60 40 -34 79 -8 vhcurveto
          -163 vlineto
          -31 -41 17 23 -13 hvcurveto
          -5 51 -4 5 rlineto
          -11 hlineto
          -5 -4 -3 -36 -3 -28 -3 -21 rlinecurve
          4 -5 33 -15 39 -8 43 -2 rlinecurve
          -1 -26 -1 -18 -1 -10 5 -5 rcurveline
          19 hlineto
          4 5 rlineto
          -25 294 rmoveto
          -45 6 -23 22 38 vvcurveto
          43 25 34 43 5 vhcurveto
          23 -204 rmoveto
          26 -4 18 -6 11 -8 rrcurveto
          13 -11 7 -17 -24 vvcurveto
          -47 -28 -40 -47 -3 vhcurveto
          endchar
        </CharString>
        <CharString name="dotaccent">
          -281 539 94 hstem
          220 588 -16 callsubr
        </CharString>
        <CharString name="dotbelowcomb">
          -641 -219 108 hstem
          -54 108 vstem
          54 -165 -83 callgsubr
          endchar
        </CharString>
        <CharString name="dotlessi">
          125 callgsubr
          hstemhm
          28 118 callgsubr
          hintmask 11100000
          307 158 callsubr
          hintmask 11010000
          -36 callsubr
          hintmask 11100000
          113 callgsubr
          endchar
        </CharString>
        <CharString name="e">
          -15 callsubr
          hstem
          146 callgsubr
          127 vstem
          445 227 -49 callsubr
        </CharString>
        <CharString name="eacute">
          -15 callsubr
          245 231 callsubr
          401 673 rmoveto
          23 -19 20 -25 -23 -22 -12 -25 -21 vhcurveto
          -128 -148 rlineto
          54 hlineto
          165 102 220 callsubr
          44 -446 -49 callsubr
        </CharString>
        <CharString name="ebreve">
          -15 callsubr
          62 60 85 173 callsubr
          56 -56 127 hintmask 11111101
          445 227 -103 callsubr
          hintmask 11111110
          56 394 -100 callsubr
          endchar
        </CharString>
        <CharString name="ecaron">
          -163 -15 70 0 174 0 48 139 55 239 170 callgsubr
          hintmask 01011110
          445 227 rmoveto
          2 -98 0 -196 vhcurveto
          -50 14 -41 27 -31 vhcurveto
          -34 28 40 -18 52 hhcurveto
          33 35 12 24 39 hvcurveto
          12 -16 rlineto
          hintmask 10111110
          -48 -59 -60 -30 -74 -1 rrcurveto
          -143 -82 85 145 71 19 59 35 47 hvcurveto
          53 41 57 26 70 hhcurveto
          74 -1 53 -23 31 -46 22 -35 14 -57 5 -82 rrcurveto
          -127 50 rmoveto
          93 -29 46 -56 -57 -29 -46 -93 vhcurveto
          35 -1 57 0 79 1 rrcurveto
          87 433 -68 callgsubr
        </CharString>
        <CharString name="ecircumflex">
          -15 callsubr
          235 231 callsubr
          282 706 rmoveto
          -92 hlineto
          -80 callsubr
          98 112 -98 rlineto
          57 hlineto
          40 -304 -49 callsubr
        </CharString>
        <CharString name="edieresis">
          -15 callsubr
          67 133 hstemhm
          24 123 -72 161 callsubr
          -105 127 hintmask 11110110
          423 604 rmoveto
          36 -31 31 -36 -37 -29 -31 -36 -37 29 -29 37 36 31 29 37 vhcurveto
          -215 hmoveto
          36 -31 31 -36 -37 -29 -31 -36 -37 29 -29 37 36 31 29 37 vhcurveto
          hintmask 11111001
          237 -377 -49 callsubr
        </CharString>
        <CharString name="edotaccent">
          -15 callsubr
          57 94 hstem
          146 callgsubr
          127 vstem
          445 227 -103 callsubr
          -38 300 -16 callsubr
        </CharString>
        <CharString name="egrave">
          -15 callsubr
          259 231 callsubr
          445 227 -103 callsubr
          -116 413 39 callsubr
          -8 -10 -2 -5 -13 hvcurveto
          -15 29 callsubr
          11 -10 vhcurveto
          118 -120 rlineto
          47 hlineto
          endchar
        </CharString>
        <CharString name="eight">
          -34 -15 34 652 34 hstemhm
          58 112 -92 110 234 105 -80 115 hintmask 11100100
          562 188 rmoveto
          92 -60 67 -120 41 vhcurveto
          41 7 33 16 26 23 rrcurveto
          hintmask 11011000
          30 27 15 33 40 vvcurveto
          54 -23 43 -47 31 vhcurveto
          29 -41 -48 14 -56 hhcurveto
          -69 -55 -16 -32 -42 hvcurveto
          -45 -35 -23 -50 -67 vvcurveto
          -39 15 -37 31 -33 vhcurveto
          26 -29 33 -22 40 -15 -45 -8 -38 -17 -30 -27 rrcurveto
          hintmask 11100100
          -35 -30 -17 -36 -42 vvcurveto
          -73 26 -51 52 -29 vhcurveto
          -21 39 60 -11 80 hhcurveto
          71 58 15 31 43 hvcurveto
          50 35 25 53 69 vvcurveto
          hintmask 11011000
          -140 359 rmoveto
          -68 -27 -35 -61 -36 vhcurveto
          -63 33 -32 18 -3 1 rrcurveto
          -32 24 -16 31 39 vvcurveto
          69 54 48 72 69 39 -52 -72 vhcurveto
          hintmask 11100100
          25 -397 rmoveto
          -33 -14 -31 -27 -27 vhcurveto
          -27 -27 -30 -13 -34 hhcurveto
          -84 -61 47 83 69 44 65 65 29 hvcurveto
          37 -17 38 -18 38 -17 rrcurveto
          37 -25 18 -36 -49 vvcurveto
          endchar
        </CharString>
        <CharString name="eightinferior">
          -303 -87 58 callsubr
          -6 -90 callgsubr
        </CharString>
        <CharString name="eightsuperior">
          -303 458 58 callsubr
          539 -90 callgsubr
        </CharString>
        <CharString name="ellipsis">
          242 -16 127 hstem
          103 127 178 127 168 127 vstem
          830 48 rmoveto
          85 callsubr
          -295 hmoveto
          85 callsubr
          -305 hmoveto
          85 callsubr
          endchar
        </CharString>
</ttFont>
